<?xml version="1.0" encoding="utf-8"?>
<!-- Generator: Adobe Illustrator 25.4.1, SVG Export Plug-In . SVG Version: 6.00 Build 0)  -->
<svg version="1.1" id="图层_1" xmlns="http://www.w3.org/2000/svg" xmlns:xlink="http://www.w3.org/1999/xlink" x="0px" y="0px"
	 viewBox="0 0 1600 1200" style="enable-background:new 0 0 1600 1200;" xml:space="preserve">
<style type="text/css">
	.st0{fill:#E8E8E8;}
	.st1{fill:#161616;}
	.st2{fill:#FFFFFF;}
	.st3{fill:#FFFFFF;stroke:#161616;stroke-width:3.5;}
	.st4{fill:#7E4CFE;}
	.st5{opacity:0.21;fill:#6D6C6C;enable-background:new    ;}
	.st6{opacity:0.25;fill:#6D6C6C;enable-background:new    ;}
	.st7{opacity:0.14;fill:#6D6C6C;enable-background:new    ;}
	.st8{opacity:0.18;fill:#6D6C6C;enable-background:new    ;}
	.st9{fill:#D6D6D6;}
	.st10{opacity:0.2;fill:#6D6C6C;enable-background:new    ;}
	.st11{opacity:0.19;fill:#6D6C6C;enable-background:new    ;}
	.st12{opacity:0.15;fill:#6D6C6C;enable-background:new    ;}
	.st13{opacity:0.22;fill:#6D6C6C;enable-background:new    ;}
	.st14{fill:#FFFFFF;stroke:#161616;stroke-width:2;}
	.st15{opacity:0.11;fill:#6D6C6C;enable-background:new    ;}
	.st16{opacity:0.17;fill:#6D6C6C;enable-background:new    ;}
	.st17{opacity:0.24;fill:#6D6C6C;enable-background:new    ;}
	.st18{fill:#5C38CE;}
</style>
<path id="Shape" class="st0" d="M155.4,996.2c49.2,2.2,98.4,3.3,147.6,3.2c1.9,0,1.9-3,0-3c-49.2,0.1-98.4-1-147.6-3.2
	C153.5,993.1,153.5,996.1,155.4,996.2z M306,921.8c7.7,28.9,14.9,58,21.5,87.2c0.4,1.9,3.3,1.1,2.9-0.8
	c-6.7-29.2-13.8-58.3-21.5-87.2C308.4,919.2,305.5,920,306,921.8z M440,924c-2.8,27.5-5.6,55.1-8.3,82.6c-0.2,1.9,2.8,1.9,3,0
	c2.8-27.5,5.6-55.1,8.3-82.6C443.1,922.1,440.1,922.1,440,924L440,924z"/>
<path id="Shape_00000044891690682646439020000007053087419403916213_" class="st0" d="M328.3,1011.7c17.5,3.1,35.2,4.5,53,4
	c17-0.5,35.6-1.8,51.8-7.2c1.8-0.6,1-3.5-0.8-2.9c-16.1,5.3-34.2,6.6-51,7.1c-17.5,0.5-35-0.9-52.2-3.9
	C327.2,1008.4,326.4,1011.3,328.3,1011.7L328.3,1011.7z M307.2,922.8c20.7,5.8,43.2,5.9,64.6,6c23,0.2,46-1.1,68.8-3.7
	c1.9-0.2,1.9-3.2,0-3c-22.2,2.6-44.5,3.8-66.8,3.7c-21.7-0.1-44.7-0.1-65.8-5.9C306.1,919.4,305.3,922.3,307.2,922.8L307.2,922.8z"
	/>
<path id="Path" class="st0" d="M298.6,912.5c0.2,1.9,0.4,3.9,0.6,5.8c0.1,1.2,0.1,2.7,0.6,3.8c1.2,2.6,5.2,1.7,7.5,1.7
	c1.9,0,1.9-3,0-3h-3.4c-1.5,0-1.5-0.3-1.6-1.8c-0.2-2.2-0.4-4.3-0.6-6.5C301.4,910.6,298.4,910.5,298.6,912.5z"/>
<path id="Shape_00000183209298654731262380000012739944987801946536_" class="st0" d="M300.6,914.1c25,2.9,50.1,4.3,75.3,4.5
	c12.4,0.1,24.8-0.1,37.3-0.5c6.2-0.2,12.4-0.5,18.6-0.8c2.9-0.1,6.9-1.1,9.8-0.5c3.5,0.6,3.3,3.6,3.7,6.7c0.3-0.6,0.7-1.2,1-1.8
	h-3.9c-1.9-0.4-2.7,2.5-0.8,2.9c2,0.4,3.5,0.4,5.4,0c0.9-0.2,1.2-1.1,1-1.8c-0.5-3.5-0.1-7.9-4.3-8.8c-2.5-0.6-5.6,0.1-8.2,0.2
	c-3.3,0.2-6.5,0.3-9.8,0.5c-14,0.6-28.1,1-42.2,1c-27.8,0-55.5-1.3-83.1-4.6C298.7,910.9,298.7,913.9,300.6,914.1L300.6,914.1z
	 M322.3,986.8c8,10.5,17.4,19.6,28,27.4c1.6,1.1,3.1-1.5,1.5-2.6c-10.2-7.5-19.3-16.3-27-26.4C323.7,983.7,321.1,985.2,322.3,986.8
	L322.3,986.8z M315.6,956.3c15.6,22.5,34.8,42.2,57,58.3c1.6,1.1,3.1-1.5,1.5-2.6c-21.7-15.8-40.6-35.2-55.9-57.2
	C317.1,953.2,314.5,954.7,315.6,956.3z M309.5,929.5c27,32,57,61.9,92.8,84.1c1.6,1,3.2-1.6,1.5-2.6c-35.6-22-65.4-51.7-92.2-83.6
	C310.4,925.9,308.3,928.1,309.5,929.5z M338.2,927.8c25.7,29.9,54.2,58.3,86,81.7c1.6,1.1,3.1-1.5,1.5-2.6
	c-31.6-23.2-59.9-51.6-85.4-81.2C339,924.2,336.9,926.3,338.2,927.8L338.2,927.8z M371,929.9c17.4,21.3,37.4,40.3,59.6,56.6
	c1.6,1.1,3.1-1.5,1.5-2.6c-22-16.1-41.8-35-59-56.1C371.9,926.3,369.8,928.4,371,929.9z M397.8,928.8c11.2,12.6,24,23.4,38.2,32.5
	c1.6,1,3.1-1.6,1.5-2.6c-14-8.9-26.6-19.7-37.6-32C398.6,925.2,396.5,927.3,397.8,928.8L397.8,928.8z"/>
<path id="Path_00000091722397585919885550000005445316727956536989_" class="st0" d="M259.4,764c6.5,13.7,10.9,28.1,13.4,43.1
	c0.1,0.7,0.8,1.1,1.4,1.1c0.6,0,3.8-0.1,4,0.9c0.1,0.4-1.9,2.7-2.1,3.2c-0.6,1.6-0.6,3.5,0,5.1c0.8,1.9,2.3,3.2,4.1,3.9
	c0.6,0.3,1.3,0.4,2,0.5c0.6,0.1,1.2,0.1,1.8,0c0.8-0.1,0.7,0-0.2,0.4c-1,1.5-2.4,1.7-2.8,3.9c-0.3,2.1,0.7,4.1,1.5,5.9
	c3.3,7,5.2,14.4,7.9,21.7c9.3,24.8,27.1,45.3,47.2,62.2c1.5,1.2,3.6-0.9,2.1-2.1c-20.7-17.4-39.1-38.7-47.8-64.8
	c-1.1-3.4-2.1-6.8-3.3-10.1c-1-2.9-2.9-5.9-3.8-8.8c-1-1.6-0.9-3.4,0.4-5.2l1.2-0.9c0.3-0.5,0.9-0.8,1.2-1.4
	c0.4-1.1,0.1-2.1-0.7-2.9c-1.3-1.3-3.3-0.6-5-1.1c-6.5-1.9-1.2-6.3-0.7-9.5c0.7-4.2-4.5-3.7-7.3-3.9c0.5,0.4,1,0.7,1.4,1.1
	c-2.5-15.2-7.1-29.9-13.7-43.8C261.2,760.7,258.6,762.2,259.4,764L259.4,764z"/>
<path id="Path_00000088839240343546997730000009906759139959486359_" class="st0" d="M260.5,763.3c32.5,8.7,61,30.8,81.7,57
	c22,27.8,35.7,61.2,43.1,95.7c0.4,1.9,3.3,1.1,2.9-0.8c-7.5-35-21.5-68.8-43.8-97c-21-26.5-50-48.9-83-57.7
	C259.4,759.9,258.6,762.8,260.5,763.3z"/>
<path id="Path_00000141427434535328440550000011968892719468860550_" class="st0" d="M272.3,775.7c39.8,38.7,70.5,86.2,89.4,138.5
	c0.7,1.8,3.6,1,2.9-0.8c-19.1-52.7-50-100.7-90.2-139.8C273.1,772.2,270.9,774.3,272.3,775.7L272.3,775.7z"/>
<path id="Shape_00000159428503051792433750000015194720745716596377_" class="st0" d="M290,838.6c8.4,0.9,16.6,2.8,24.4,5.9
	c7.6,3,15.9,6.8,20.7,13.7c1.1,1.6,3.7,0.1,2.6-1.5c-4.8-6.9-12.3-10.8-19.9-14c-8.9-3.8-18.2-6.1-27.9-7.1
	C288.1,835.4,288.1,838.4,290,838.6L290,838.6z M304.9,783.8c-0.1,11.5,1.8,22.8,5.5,33.7c0.6,1.8,3.5,1,2.9-0.8
	c-3.6-10.6-5.4-21.6-5.4-32.9C307.9,781.9,304.9,781.9,304.9,783.8L304.9,783.8z M359.8,838.2c4.9-18.3,21.2-29.2,35.1-40.4
	c14.8-11.9,29.1-24.6,42.7-37.8c-0.8-0.5-1.7-1-2.5-1.5c-4.5,12.1-5.4,24.8-5.2,37.6c0.2,12.8,3.1,27.5-1,39.9
	c0.5-0.4,1-0.7,1.4-1.1c-3.2,0.2-6.4,0.5-9.6,0.7c-1,0.1-2,1.3-1.3,2.3c2.3,3.1,5,4.1,4.9,8.7c0,3.2-0.8,6.9-1.9,9.9
	c-1.1,3.1-4,5.2-5,8.1c-0.8,2.6,1.2,4.8,1.2,7.4c0.1,4.3-3,7.9-5.2,11.3c-2.1,3.2-4,6.5-5.7,9.9c-3.4,6.7-6.1,13.6-8.1,20.8
	c-0.5,1.9,2.4,2.7,2.9,0.8c2.5-8.9,6.1-17.5,10.8-25.5c3.2-5.4,9.2-11.7,8.5-18.5c-0.3-2.7-1.7-3.5-0.5-6.6c0.1-0.1,1.9-2.5,2-2.7
	c1.9-3.1,2.8-6.6,3.4-10.1c0.4-2.6,1.2-5.8,0.8-8.4c-0.6-3.7-3.4-4-5.5-6.8c-0.4,0.8-0.9,1.5-1.3,2.3c3.2-0.2,6.4-0.5,9.6-0.7
	c0.7-0.1,1.2-0.4,1.4-1.1c3.8-11.6,1.5-25.1,1.1-37.1c-0.4-13.7,0.1-27.5,5-40.5c0.6-1.5-1.5-2.4-2.5-1.5
	c-14.5,14.1-29.7,27.6-45.6,40.2c-13.6,10.8-28.3,21.8-33,39.4C356.4,839.3,359.3,840.1,359.8,838.2L359.8,838.2z"/>
<path id="Path_00000146483161585951773440000005420307752514943112_" class="st0" d="M426.5,773c-9.8,17.1-19.8,34-29.2,51.3
	c-8.8,16-16.6,32.6-20.3,50.5c-0.4,1.9,2.5,2.7,2.9,0.8c3.8-18.3,11.9-35.1,20.9-51.4c9.2-16.7,18.9-33.1,28.3-49.7
	C430,772.9,427.4,771.3,426.5,773L426.5,773z"/>
<path id="Shape_00000024715729121322163200000011639964116830470575_" class="st0" d="M397,800.8c1.3,5.7,1.9,11.4,1.7,17.2
	c-0.1,1.9,2.9,1.9,3,0c0.2-6.1-0.4-12-1.8-18C399.4,798.1,396.6,798.9,397,800.8z M413.3,781.7c1.1,4.3,1.3,8.5,0.8,12.8
	c-0.2,1.9,2.8,1.9,3,0c0.6-4.6,0.3-9.1-0.9-13.6C415.7,779.1,412.8,779.9,413.3,781.7L413.3,781.7z M414,801.6
	c5.9-3.5,12-6.6,18.3-9.2c1.8-0.7,1-3.6-0.8-2.9c-6.6,2.7-12.9,5.9-19.1,9.5C410.8,800,412.3,802.6,414,801.6z M388.2,851.8
	c3.8-3.2,7.6-6.3,11.5-9.3c4.1-3.2,8.6-7.5,13.6-9.5c1.8-0.7,1-3.6-0.8-2.9c-4.5,1.7-8.2,5-12,8c-4.9,3.8-9.7,7.6-14.4,11.6
	C384.6,850.9,386.7,853,388.2,851.8L388.2,851.8z M272.4,795.7c7,0.7,14,1.4,21,2c1.9,0.2,1.9-2.8,0-3c-7-0.7-14-1.4-21-2
	C270.5,792.5,270.5,795.5,272.4,795.7z M455.9,995.2h481.7c1.9,0,1.9-3,0-3H455.9C453.9,992.2,453.9,995.2,455.9,995.2z
	 M879.7,750.2V794c0,1.9,3,1.9,3,0v-43.8C882.7,748.3,879.7,748.3,879.7,750.2z M810.7,800.7h145.5c1.9,0,1.9-3,0-3H810.7
	C808.8,797.7,808.7,800.7,810.7,800.7z"/>
<path id="Shape_00000147180373084390461570000006369467107310601393_" class="st0" d="M843.3,801.5v37.9c0,1.9,3,1.9,3,0v-37.9
	C846.3,799.5,843.3,799.5,843.3,801.5z M918.3,800.7v33.4c0,1.9,3,1.9,3,0v-33.4C921.3,798.8,918.3,798.8,918.3,800.7z M870.8,842.3
	h111.3c1.9,0,1.9-3,0-3H870.8C868.9,839.3,868.9,842.3,870.8,842.3z M786.9,1024.2h245.7c1.9,0,1.9-3,0-3H786.9
	C785,1021.2,785,1024.2,786.9,1024.2z M1125.6,998.3h309.1c1.9,0,1.9-3,0-3h-309.1C1123.7,995.3,1123.7,998.3,1125.6,998.3z
	 M128.7,1049.5H376c1.9,0,1.9-3,0-3H128.7C126.8,1046.5,126.8,1049.5,128.7,1049.5z M294.9,1079.5h201.9c1.9,0,1.9-3,0-3H294.9
	C292.9,1076.5,292.9,1079.5,294.9,1079.5z M1318,224.5v-83.6c0-1.9-3-1.9-3,0v83.6C1315,226.4,1318,226.4,1318,224.5z"/>
<path id="Path_00000106114764332339992390000010276610553195466920_" class="st0" d="M1317.5,140.3h108.3c1.9,0,1.9-3,0-3h-108.3
	C1315.6,137.3,1315.6,140.3,1317.5,140.3z"/>
<path id="Path_00000157304711879711721450000000986342981502604938_" class="st0" d="M1424.3,139c-0.2,28.3-0.4,56.6-0.7,84.9
	c0,1.9,3,1.9,3,0c0.2-28.3,0.4-56.6,0.7-84.9C1427.3,137.1,1424.3,137.1,1424.3,139z"/>
<path id="Shape_00000044863241288338125400000003230629789951854518_" class="st0" d="M1318,226h106.8c1.9,0,1.9-3,0-3H1318
	C1316.1,223,1316.1,226,1318,226z M1320.9,146.7v70.4c0,1.9,3,1.9,3,0v-70.4C1323.9,144.8,1320.9,144.8,1320.9,146.7z"/>
<path id="Path_00000011741295174048730660000016239531003431003265_" class="st0" d="M1323.1,148.2h94.7c1.9,0,1.9-3,0-3h-94.7
	C1321.1,145.2,1321.1,148.2,1323.1,148.2z"/>
<path id="Path_00000066497226413602998280000001707894473331261858_" class="st0" d="M1416.2,147.4l-0.3,69.1c0,1.9,3,1.9,3,0
	l0.3-69.1C1419.2,145.5,1416.2,145.5,1416.2,147.4z"/>
<path id="Shape_00000060011915042674511480000005711686967530018178_" class="st0" d="M1323.7,219h93.3c1.9,0,1.9-3,0-3h-93.3
	C1321.8,216,1321.8,219,1323.7,219z M1323.1,198.3c11.5-4,23.6-0.4,34.8,2.9c11.4,3.3,22.6,7.3,33.5,11.9c1.8,0.7,2.6-2.2,0.8-2.9
	c-12.1-5.1-24.5-9.4-37.1-12.9c-10.7-2.9-22-5.7-32.8-1.9C1320.5,196,1321.3,198.9,1323.1,198.3z"/>
<path id="Shape_00000098911474149929224920000012613184953922077348_" class="st0" d="M1361.1,201.7c18.9-1.1,36.6-8.7,55.3-10.8
	c1.9-0.2,1.9-3.2,0-3c-18.7,2.1-36.4,9.6-55.3,10.8C1359.1,198.9,1359.1,201.9,1361.1,201.7z M1396.9,165.1
	c-4.2-2.4-0.4-10.3,4.1-8.4c2.4,1,2.9,3.9,1.6,6c-1.4,2.3-4.3,2.7-6.7,2c-1.9-0.5-2.7,2.4-0.8,2.9c4,1.1,8.5-0.1,10.5-4
	c1.8-3.5,0.4-8.1-3.4-9.7c-7.8-3.3-14.2,9.7-6.8,13.8C1397,168.6,1398.6,166,1396.9,165.1L1396.9,165.1z M1366.3,138.3
	c0.1-1.7,0.2-3.4,0.7-5c0.4-1.3,1.4-4.4,2.9-5c2.7-1,3.7,8.5,3.9,10.3c0.2,1.9,3.2,1.9,3,0c-0.3-3.5-1.1-14.5-6.7-13.7
	c-2.4,0.3-4.1,3-5,5c-1.2,2.6-1.6,5.5-1.7,8.3C1363.3,140.2,1366.3,140.2,1366.3,138.3L1366.3,138.3z M1383.1,604.8v36.1
	c0,1.9,3,1.9,3,0v-36.1C1386.1,602.9,1383.1,602.9,1383.1,604.8z"/>
<path id="Path_00000013911637440319291750000002041726914319905450_" class="st0" d="M1346.8,645.3h81.7c1.9,0,1.9-3,0-3h-81.7
	C1344.9,642.3,1344.9,645.3,1346.8,645.3z"/>
<path id="Shape_00000155847478084177726260000012737150542596209536_" class="st0" d="M1358.3,646.2v17c0,1.9,3,1.9,3,0v-17
	C1361.3,644.3,1358.3,644.3,1358.3,646.2z M1402,647.1v20.2c0,1.9,3,1.9,3,0v-20.2C1405,645.1,1402,645.1,1402,647.1z"/>
<path id="Path_00000066513495390766253290000007517508575986329775_" class="st0" d="M1380.8,671.2h56.7c1.9,0,1.9-3,0-3h-56.7
	C1378.9,668.2,1378.9,671.2,1380.8,671.2z"/>
<path id="Path_00000054260003783940701940000011495517048858481564_" class="st1" d="M688.9,963.6c31.5-21.3,47.3-32,51.4-33.3
	c10-3.2,42.4-13.5,70.7,3.8c20.3,12.4,39,39.3,31.2,57.3c-5.6,12.8-22.7,16.8-38.2,20.5c-22.9,5.4-42.5,2.4-53.5-0.2
	c-4.3,4.2-11.2,9.8-20.9,13.5c-16.1,6.2-34.7,5.1-35.6,1.4c-0.4-1.9,3.6-5.6,23-13.2c-2.3-2.5-5.7-5.5-10.5-7.6
	c-14.2-6.5-28.4-0.2-31.1,1.1c13.9,8.1,16.9,12.3,16.2,14.6c-1.8,5.8-30.1,7.7-37.7-5.6c-0.8-1.3-3-5.8-1.2-14.3
	C656.3,986,669.3,976.9,688.9,963.6L688.9,963.6z"/>
<path id="Shape_00000155124306504618994410000016992218522734421950_" class="st1" d="M826.1,985.8c3.2-6.6,17.6-5,23.2-4.4
	c7.2,0.8,13.6,1.5,19.4,6.6c4.4,3.8,10.8,12.1,8.5,18.8c-2.1,6.4-10,5.9-25.3,13.4c-2.6,1.3-27.6,13.6-25.9,21.7
	c0.7,3.3,5.2,3.2,19.5,9.3c12.4,5.2,19.7,8.4,25.8,15.4c3,3.5,9,10.4,7.4,17.4c-3,12.9-29.8,15.1-30.5,13.1
	c-0.6-1.7,18.2-6.4,18.4-15.2c0.2-6.7-10.3-12.1-16.9-15.6c-19.4-10.1-32.5-6.5-37.6-16.2c-2.9-5.5-1.3-11.4-1-12.5
	c1.5-5.4,5.7-10,26.2-20.3c18.7-9.4,27-11.6,26.9-15.8c-0.1-3.9-7.3-7.1-11.7-8.2c-12.4-3.3-21.5,4.5-25.7,0.1
	C825,991.4,825.1,988,826.1,985.8L826.1,985.8z M655.3,937.4l18.9,14.1c9-0.9,17.9-1.7,26.9-2.6c5.6-5.4,11.2-10.9,16.8-16.3
	c0.4,3.4,1.2,11.1,1.5,14.8c3.5,33.3,3.8,36.2,1.7,40c-6.9,12.3-30.2,17.3-43.6,8.7c-6.5-4.2-9-10.5-13.7-22.6
	C658.1,958.9,656.1,946.1,655.3,937.4L655.3,937.4z"/>
<path id="Shape_00000064333145137032456990000004722754722954129570_" class="st2" d="M680.7,972c-1.5,3.1-4.8,5-8.2,4.4
	c-0.9-0.2-1.3,1.3-0.4,1.4c4.1,0.7,8.2-1.3,9.9-5.1C682.4,971.9,681.2,971.1,680.7,972L680.7,972z M694.6,971
	c3.3,3.2,7.7,4.6,12.2,3.9c1-0.1,0.5-1.6-0.4-1.4c-4,0.6-7.9-0.7-10.8-3.5C694.9,969.3,693.9,970.3,694.6,971L694.6,971z
	 M689.3,980.5c-0.3,0-0.5-0.1-0.8-0.1c0.1-0.1,0.1-0.3,0.2-0.4c0.2,0.2,0.5,0.4,0.7,0.6c0-0.2-0.1-0.3-0.1-0.5
	c-0.3-0.9-1.7-0.5-1.4,0.4c0.5,2.2,1.3,5.6-1.4,6.7c-0.9,0.4-0.5,1.8,0.4,1.4c3.6-1.5,3.2-5.4,2.5-8.6c-0.5,0.1-1,0.3-1.4,0.4
	c0,0.2,0.1,0.3,0.1,0.5c0.1,0.3,0.4,0.6,0.7,0.6c2.6-0.2,0.5-3.8-0.7-1.7C687.6,980.5,688.8,981.3,689.3,980.5L689.3,980.5z"/>
<path id="Shape_00000062163520618414561560000011508433144108158866_" class="st2" d="M688.3,981.2c0.5,1.7,0.6,3.6,1.7,5.1
	c0.9,1.2,2.3,1.8,3.8,1.5c0.9-0.2,0.5-1.6-0.4-1.4c-2.8,0.6-3.2-3.8-3.7-5.6C689.5,979.9,688.1,980.3,688.3,981.2z M683.5,982.6
	c-2.9-1.3-5.9-1.9-9.1-1.7c-1,0.1-1,1.6,0,1.5c2.9-0.2,5.7,0.3,8.3,1.5C683.6,984.3,684.4,983,683.5,982.6L683.5,982.6z
	 M680.9,984.6c-2.5,0.2-4.7,1.2-6.4,2.9c-0.7,0.7,0.4,1.7,1.1,1.1c1.5-1.4,3.3-2.3,5.4-2.5C681.8,986,681.8,984.5,680.9,984.6z
	 M695.2,981.9c2.9-1.1,5.8-1.5,8.9-1.2c1,0.1,1-1.4,0-1.5c-3.2-0.3-6.3,0.2-9.3,1.3C693.9,980.8,694.2,982.3,695.2,981.9
	L695.2,981.9z M697.2,984.6c2.2-0.3,4.3-0.1,6.4,0.7c0.9,0.3,1.3-1.1,0.4-1.4c-2.2-0.8-4.5-1-6.8-0.7
	C696.2,983.2,696.2,984.8,697.2,984.6z M673.6,967.6c1.5-0.9,3.3-0.9,4.8,0c0.8,0.5,1.6-0.8,0.8-1.3c-2-1.1-4.3-1.1-6.3,0
	C672,966.8,672.8,968.1,673.6,967.6z M694.6,965.6c1.5-0.8,3.2-1,5-0.8c0.9,0.1,1.4-1.3,0.4-1.4c-2.1-0.3-4.2,0-6.1,1
	C692.9,964.7,693.7,966,694.6,965.6L694.6,965.6z"/>
<path id="Shape_00000167374276549001266070000017332948856907091881_" class="st1" d="M670.7,934.2c3.1-1.3,6.2-2.6,9.2-4
	c-0.6-0.4-1.1-0.8-1.7-1.3c-1.2,3.8-3,7.2-5.4,10.4c-0.6,0.8,0.4,2,1.3,1.7c3.4-1.3,6.8-2.5,10.2-3.8c1.3-0.5,0.8-2.7-0.6-2.2
	c-3.4,1.3-6.8,2.5-10.2,3.8c0.4,0.6,0.8,1.1,1.3,1.7c2.6-3.3,4.4-6.9,5.7-10.9c0.3-1-0.8-1.6-1.7-1.3c-3.1,1.3-6.2,2.6-9.2,4
	C668.2,932.9,669.4,934.8,670.7,934.2L670.7,934.2z M675.7,916c2.1-1.2,4.2-2,6.5-2.5c-0.4-0.6-0.8-1.1-1.3-1.7c-0.9,2-2,4-3.3,5.8
	c-0.5,0.8,0.2,1.6,1,1.7c2.7,0.2,5.2-0.5,7.3-2.1c1.1-0.9,0-2.8-1.1-1.9c-1.8,1.4-3.8,2-6.1,1.8c0.3,0.6,0.6,1.1,1,1.7
	c1.3-1.9,2.4-3.8,3.3-5.8c0.4-0.9-0.3-1.9-1.3-1.7c-2.5,0.5-4.9,1.4-7.1,2.7C673.3,914.8,674.4,916.7,675.7,916z M692.2,940.2
	c-3.3-3.3,2.4-5.2,3-8.1c0.6-3.4-3.4-6.6,1.1-9.2c1.3-0.7,0.1-2.7-1.1-1.9c-1.6,0.9-2.9,2.3-3.3,4.2c-0.6,3.2,2.2,5.1-0.2,8
	c-1.1,1.4-2.4,1.8-2.8,3.7c-0.4,1.9,0.4,3.5,1.7,4.9C691.7,942.8,693.3,941.2,692.2,940.2L692.2,940.2z"/>
<path id="Path_00000004528527087599523480000005977092347652744615_" class="st3" d="M968.3,654.7c-250.7,18.1-501.4,36.1-752,54.2
	c-6.8-181.8-13.6-363.6-20.3-545.4l755.4-10.2C957,320.4,962.6,487.5,968.3,654.7z"/>
<path id="Shape_00000096026364675766843050000017381230597159531432_" class="st1" d="M409,252h145.9c1.9,0,1.9-3,0-3H409
	C407.1,249,407.1,252,409,252z M463.6,264.3h150.3c1.9,0,1.9-3,0-3H463.6C461.6,261.3,461.6,264.3,463.6,264.3z M226.4,557.7
	c1.8,41.8,3.6,83.7,5.4,125.5c0.1,1.9,3.1,1.9,3,0c-1.8-41.8-3.6-83.7-5.4-125.5C229.3,555.8,226.3,555.8,226.4,557.7z M446.7,533.3
	h13c1.9,0,1.9-3,0-3h-13C444.8,530.3,444.8,533.3,446.7,533.3z M471,533.3h33.2c1.9,0,1.9-3,0-3H471
	C469.1,530.3,469.1,533.3,471,533.3z M529.3,531.7H569c1.9,0,1.9-3,0-3h-39.7C527.4,528.7,527.4,531.7,529.3,531.7z M464.6,554.3
	h48.6c1.9,0,1.9-3,0-3h-48.6C462.6,551.3,462.6,554.3,464.6,554.3z M488,543h56.7c1.9,0,1.9-3,0-3H488C486.1,540,486.1,543,488,543z
	 M588.4,649.9h95.5c1.9,0,1.9-3,0-3h-95.5C586.5,646.9,586.5,649.9,588.4,649.9z M666.9,658h50.2c1.9,0,1.9-3,0-3h-50.2
	C665,655,665,658,666.9,658z M710.6,645.8H760c1.9,0,1.9-3,0-3h-49.4C708.7,642.8,708.7,645.8,710.6,645.8z M794.8,374.7h91.5
	c1.9,0,1.9-3,0-3h-91.5C792.9,371.7,792.9,374.7,794.8,374.7z M766.5,379.5h29.1c1.9,0,1.9-3,0-3h-29.1
	C764.5,376.5,764.5,379.5,766.5,379.5z M772.1,387.6H870c1.9,0,1.9-3,0-3h-97.9C770.2,384.6,770.2,387.6,772.1,387.6z M892.8,380.3
	h18.6c1.9,0,1.9-3,0-3h-18.6C890.8,377.3,890.8,380.3,892.8,380.3z M868.5,502.5H896c1.9,0,1.9-3,0-3h-27.5
	C866.5,499.5,866.5,502.5,868.5,502.5z M850.7,510.6h29.9c1.9,0,1.9-3,0-3h-29.9C848.7,507.6,848.7,510.6,850.7,510.6z M865.2,518.7
	h59.1c1.9,0,1.9-3,0-3h-59.1C863.3,515.7,863.3,518.7,865.2,518.7z M902.5,509h17.8c1.9,0,1.9-3,0-3h-17.8
	C900.5,506,900.5,509,902.5,509z M490.6,384.3h41.9c1.9,0,1.9-3,0-3h-41.9C488.7,381.3,488.7,384.3,490.6,384.3z M521.1,392.9H583
	c1.9,0,1.9-3,0-3h-61.9C519.2,389.9,519.1,392.9,521.1,392.9z M575.4,381.4h35.2c1.9,0,1.9-3,0-3h-35.2
	C573.5,378.4,573.5,381.4,575.4,381.4z M217.5,221.8l6.6,227.8c0.6,21.6,1.2,43.1,1.9,64.7c0.1,1.9,3.1,1.9,3,0l-6.6-227.8
	c-0.6-21.6-1.2-43.1-1.9-64.7C220.5,219.9,217.5,219.9,217.5,221.8z M944.4,469.9l4.5,150.5c0.1,1.9,3.1,1.9,3,0l-4.5-150.5
	C947.4,468,944.4,468,944.4,469.9L944.4,469.9z"/>
<path id="Shape_00000119079442530512732940000015815093553505823678_" class="st4" d="M737.3,446.9c0.6,6.1,1.2,12.3,1.7,18.4
	c5.8-1.5,11.5-3.1,17.3-4.6c-0.8-6.1-1.5-12.3-2.3-18.4C748.4,443.8,742.9,445.4,737.3,446.9z M733.8,493.6c6-0.8,11.9-1.5,17.9-2.3
	c0.8,7.3,1.5,14.6,2.3,21.9c-5.4,0.2-10.8,0.4-16.1,0.6C736.5,507,735.2,500.3,733.8,493.6L733.8,493.6z M755.7,537.9
	c1.9,6.3,3.8,12.7,5.8,19c5.4-2.5,10.8-5,16.1-7.5c-1.7-5.6-3.5-11.1-5.2-16.7C766.9,534.5,761.3,536.2,755.7,537.9L755.7,537.9z"/>
<path id="Path_00000178175512734084775270000005822221878930923401_" class="st4" d="M360.4,597.5c1.3,19.4,2.6,38.8,3.9,58.1
	c34-2.2,68-4.3,102-6.5c0.6-17.4,1.3-34.9,1.9-52.3C432.3,597.1,396.3,597.3,360.4,597.5L360.4,597.5z"/>
<ellipse id="Oval" class="st4" cx="783.1" cy="196.9" rx="7.1" ry="5.9"/>
<ellipse id="Oval_00000109021818842706256630000004696879704201346221_" class="st4" cx="300.6" cy="243.1" rx="5.9" ry="3.9"/>
<ellipse id="Oval_00000134928070427147632900000003967065386334816668_" class="st4" cx="394.5" cy="354.7" rx="4.6" ry="5.4"/>
<path id="Path_00000155137513709255573130000016236011411374748085_" class="st5" d="M352.3,225.4c1.8-0.3,5.3,16.4,13.9,46.7
	c11.3,39.9,22.5,72.1,30.6,94.1c-12.3,7.6-39.8,22.1-77.3,22.6c-26.5,0.3-47.4-6.5-59.8-11.7c24.3,2.7,43.9,2,57.6,0.7
	c21.7-2,17.9-4.3,34.3-5.1c6.8-0.3,15.7-0.3,24.8-5.8c3.3-2,5.7-4.2,7.3-5.8c-6.4-13.2-14.6-32.6-21.2-56.9
	C352,264.7,349.7,225.9,352.3,225.4L352.3,225.4z"/>
<path id="Path_00000129908364601391018950000012014532934448172679_" class="st6" d="M446,333.9c1.6,12.7,4.5,26.9,9.3,42.1
	c13.7,43.2,36.8,74,54.2,93c-10.4,7.7-23.3,15.7-38.8,22.4c-47,20.3-90.9,17.3-114.4,13.7l-2.7-15.9c10,0.3,20.6,0.1,31.7-0.5
	c39.6-2.5,73.6-11.4,100.7-21.3c-8.6-14.6-14.8-27.2-19.1-36.7c-10.4-22.7-18.1-39.8-20.8-62.9C444.4,353.7,445.1,341.8,446,333.9
	L446,333.9z"/>
<path id="Path_00000163069884748777823180000004763875779641411995_" class="st7" d="M763.9,400.1c1,22.8,3.4,41.7,5.5,55.3
	c4.9,31.2,8.5,52.8,21.3,77.1c8,15.1,17,26.2,23.5,33.4c-11.3,9.7-26.5,20.7-46,29.5c-49,22.3-95,17.8-116.5,14.2
	c-1.1-4.9-2.2-9.8-3.3-14.8c2.7,0.2,6.9,0.4,12,0.5c17,0.4,52.4,1,93-12.6c11.4-3.8,27.4-10.2,45.4-20.8
	c-7.1-9.5-14.1-20.8-20.2-33.9C754.5,476.3,759.3,426.1,763.9,400.1L763.9,400.1z"/>
<path id="Path_00000175303460104316913160000006129700059723520678_" class="st8" d="M840.5,175.8c2,9.3,4.9,23.5,7.8,41.2
	c5.4,34.2,5,46.6,11.3,66.8c3.3,10.5,9.2,25.4,20.3,42.4c-9.3,7.6-20.9,15.5-35.2,22.1c-46.8,21.7-91.6,15.6-112.2,11.3
	c0.2-4,0.4-8,0.6-11.9c2.6,0.7,6.5,1.6,11.3,2.4c6.3,1,29.6,4.4,73.4-6.6c12.1-3,28.4-7.8,47.1-15.5c-3.6-6.4-8.9-16.4-13.7-29.2
	c-14-37.1-13.9-69.3-13.7-85.9C837.6,203.8,838.2,191.1,840.5,175.8L840.5,175.8z"/>
<g id="Group" transform="translate(111.000000, 89.000000)">
	<path id="Path_00000060008982549965240250000006264763362906126266_" class="st1" d="M131.7,130.7c-9.9,52.4,0.1,105.4,10.1,157
		c0.4,1.9,3.3,1.1,2.9-0.8c-9.9-51-19.8-103.5-10.1-155.4C134.9,129.7,132,128.8,131.7,130.7z"/>
	<path id="Shape_00000057114607261649910170000009267042263758626947_" class="st1" d="M134.5,130.3c14.3,9.6,31.6,11.3,48.5,10.1
		c19.3-1.4,38.4-5.5,57.5-8.7c1.9-0.3,1.1-3.2-0.8-2.9c-18.3,3-36.6,6.9-55.1,8.4c-16.9,1.4-34.2,0.1-48.6-9.6
		C134.4,126.6,132.9,129.2,134.5,130.3L134.5,130.3z M238.5,133.8c2.8,47.8,10,96.6,34.2,138.6c1,1.7,3.6,0.2,2.6-1.5
		c-23.9-41.6-31-89.9-33.8-137.1C241.4,131.9,238.4,131.9,238.5,133.8z"/>
	<path id="Shape_00000059991908672126842510000013619994779862960825_" class="st1" d="M144.3,288.5c22.7,6.6,47.1,2.6,70.2,0.7
		c20.5-1.7,42.5-2.5,60.1-14.5c1.6-1.1,0.1-3.7-1.5-2.6c-17.7,12.1-39.9,12.5-60.5,14.2c-22.2,1.8-45.6,5.5-67.5-0.8
		C143.2,285.1,142.4,288,144.3,288.5L144.3,288.5z M182.7,154.7c-2-0.9,0.2-2.8,1.4-3.1c1.5-0.4,4.4-0.6,5.1,1.1
		c0.5,1.3-0.3,3-1.5,3.5c-1.9,0.9-4-0.2-5.3-1.5c-1.4-1.4-3.5,0.7-2.1,2.1c2.5,2.5,6.6,3.8,9.7,1.5c2.5-1.8,3.4-5.8,1.3-8.2
		c-2.4-2.7-7.5-2.4-10.2-0.4c-2.4,1.8-2.9,6.1,0.2,7.5C183,158.1,184.5,155.5,182.7,154.7L182.7,154.7z"/>
	<path id="Shape_00000096761433170368174830000012947855400002335393_" class="st1" d="M222.8,288.9c-7.2,36.5,0.5,73.4,8.3,109.2
		c0.4,1.9,3.3,1.1,2.9-0.8c-7.7-35.2-15.3-71.6-8.3-107.6C226.1,287.8,223.2,287,222.8,288.9L222.8,288.9z M264.1,250.6
		c23.1-4.4,46.5-6,69.9-5.1l-1.5-1.5c-4.7,48.2,15.9,94.1,40.9,134c1,1.6,3.6,0.1,2.6-1.5c-24.7-39.5-45.2-84.8-40.5-132.5
		c0.1-0.8-0.8-1.5-1.5-1.5c-23.7-0.9-47.4,0.8-70.7,5.2C261.4,248.1,262.2,251,264.1,250.6L264.1,250.6z"/>
	<path id="Shape_00000012431821093852828060000014949366523847032465_" class="st1" d="M232.7,400.2c48.6,5.7,97.9-1.6,142.9-20.8
		c1.8-0.8,0.2-3.3-1.5-2.6c-44.4,19-93.4,26-141.4,20.4C230.8,397,230.8,400,232.7,400.2L232.7,400.2z M282.9,262.9
		c0-0.1,0.3-0.6,0.3-0.8c0.1-0.4,0.4-0.8,0.7-1.1c0.6-0.5,1.3-0.9,2.1-1c1.5-0.2,2.9,0.6,3.3,2.1c0.3,1.2-0.2,2.8-1.6,3
		c-1.3,0.2-2.5-0.7-2.7-2c-0.3-1.9-3.2-1.1-2.9,0.8c0.5,3.5,5,5.2,7.9,3.5c3.2-1.9,3-6.8,0.3-9.1c-3-2.5-8-1.2-9.7,2.2
		c-0.8,1.7-0.8,4,1.1,5c1.5,0.8,3.7,0.1,4.1-1.8C286.1,261.8,283.2,261,282.9,262.9L282.9,262.9z M141.6,185.1
		c26.6,3.7,53-1.8,78.5-9.1c1.9-0.5,1.1-3.4-0.8-2.9c-25,7.1-50.9,12.7-76.9,9.1C140.5,181.9,139.7,184.8,141.6,185.1L141.6,185.1z
		 M146.6,204.7c13.8,1.5,27.6,0.1,40.9-4.1c1.8-0.6,1.1-3.5-0.8-2.9c-13,4.1-26.5,5.4-40.1,4C144.7,201.5,144.7,204.5,146.6,204.7
		L146.6,204.7z M146.6,228.9c26.4,3.1,53,1.2,78.6-5.5c1.9-0.5,1.1-3.4-0.8-2.9c-25.4,6.7-51.7,8.5-77.8,5.4
		C144.7,225.6,144.7,228.6,146.6,228.9z M245.4,382.4c26.5,1.2,53-2,78.4-9.6c1.8-0.5,1.1-3.4-0.8-2.9c-25.2,7.5-51.3,10.7-77.6,9.5
		C243.4,379.3,243.4,382.3,245.4,382.4z M250.5,359.5c11.8-0.4,23.6-1.3,35.4-2.6c1.9-0.2,1.9-3.2,0-3c-11.8,1.3-23.5,2.2-35.4,2.6
		C248.6,356.6,248.6,359.6,250.5,359.5z M260.1,318.3c7.8,1,15.9-1,23.6-2.1c8.5-1.3,16.9-2.5,25.4-3.8c1.9-0.3,1.1-3.2-0.8-2.9
		c-7.8,1.2-15.7,2.4-23.5,3.5c-8.1,1.2-16.5,3.4-24.7,2.3C258.2,315,258.2,318,260.1,318.3z M613.5,94.1
		c-10.9,53.5-12,108.5-3.3,162.4c0.3,1.9,3.2,1.1,2.9-0.8c-8.6-53.3-7.4-107.9,3.3-160.8C616.8,93,613.9,92.2,613.5,94.1z"/>
	<path id="Path_00000016050978593958301570000001035142377268197546_" class="st1" d="M616.9,94.8c36.3-8.3,73.8-10,110.8-5
		c1.9,0.3,2.7-2.6,0.8-2.9c-37.5-5.1-75.5-3.4-112.4,5C614.3,92.4,615.1,95.3,616.9,94.8L616.9,94.8z"/>
	<path id="Path_00000133500296221852228850000001705385011884817281_" class="st1" d="M726.8,87.1c-1.1,51.5-0.4,105.9,25.7,152
		c1,1.7,3.5,0.2,2.6-1.5c-25.8-45.6-26.4-99.5-25.3-150.5C729.9,85.2,726.9,85.2,726.8,87.1L726.8,87.1z"/>
	<path id="Shape_00000005946698273656099730000011428658766565367994_" class="st1" d="M612.5,258.1c11.2,3.4,23.2,3.6,34.8,3.7
		c12.5,0.1,25-0.7,37.5-2.4c23.9-3.2,47.2-9.7,69.5-19.1c1.8-0.7,0.2-3.3-1.5-2.6c-22.3,9.4-45.8,15.8-69.8,18.9
		c-11.2,1.4-22.5,2.2-33.8,2.1c-11.9,0-24.4-0.1-35.8-3.6C611.4,254.7,610.7,257.6,612.5,258.1L612.5,258.1z M673.7,98
		c-3.4,1.2-4.9,5.1-3.7,8.4c1.4,3.7,5.7,4.6,8.9,2.4c3.1-2.2,4.1-6.6,1.1-9.4c-2.6-2.4-7.1-2.5-9.5,0.1c-1.3,1.4,0.8,3.5,2.1,2.1
		c3-3.2,8.9,1.3,4.8,4.5c-1.6,1.2-3.9,1.2-4.6-0.9c-0.5-1.6,0-3.8,1.7-4.4C676.3,100.2,675.5,97.3,673.7,98L673.7,98z M615,140.6
		c27.3,0.7,54.5,0.2,81.7-1.6c1.9-0.1,1.9-3.1,0-3c-27.2,1.8-54.5,2.4-81.7,1.6C613,137.6,613,140.6,615,140.6z M617.7,155.8
		c10.2,0.4,20.4,0.8,30.5,1.2c1.9,0.1,1.9-2.9,0-3c-10.2-0.4-20.4-0.8-30.5-1.2C615.7,152.7,615.7,155.7,617.7,155.8z M614.9,177
		c25.7,1.4,51.7,2.6,77-3c1.9-0.4,1.1-3.3-0.8-2.9c-25.1,5.5-50.8,4.3-76.2,2.9C613,173.9,613,176.9,614.9,177z M242.1,502.1
		c-2.3,20-3.1,40.1-2.4,60.2c0.1,1.9,3.1,1.9,3,0c-0.7-20.1,0.1-40.2,2.4-60.2C245.3,500.2,242.3,500.2,242.1,502.1z"/>
	<path id="Path_00000173839413565463128980000016578989581619650200_" class="st1" d="M243.1,503.3c35.6,0,71.3-0.5,106.9-1.6
		c1.9-0.1,1.9-3.1,0-3c-35.6,1.1-71.3,1.6-106.9,1.6C241.2,500.3,241.2,503.3,243.1,503.3z"/>
	<path id="Path_00000063595946476219567970000017426573225633993643_" class="st1" d="M349.7,500.3l0.9,52.1c0,1.9,3,1.9,3,0
		l-0.9-52.1C352.7,498.4,349.6,498.4,349.7,500.3z"/>
	<path id="Shape_00000133501126727943927410000013750219104585979321_" class="st1" d="M239.4,560.1c0.2,6.5,11.5,3.6,15.2,3.4
		c10.6-0.7,21.2-1.4,31.7-2.2c21.5-1.5,43-2.9,64.5-4.4c1.9-0.1,1.9-3.1,0-3c-18.3,1.2-36.5,2.5-54.8,3.7l-26.1,1.8
		c-2.6,0.2-27.5,2.6-27.6,0.7C242.4,558.2,239.4,558.2,239.4,560.1L239.4,560.1z M251.2,516.8c24-1.1,48-0.2,71.8,2.8
		c1.9,0.2,1.9-2.8,0-3c-23.8-3-47.8-3.9-71.8-2.8C249.2,513.9,249.2,516.9,251.2,516.8z M252.1,532c13.4-1,26.9-2.1,40.3-3.1
		c1.9-0.1,1.9-3.1,0-3c-13.4,1-26.9,2.1-40.3,3.1C250.2,529.1,250.2,532.1,252.1,532z M256.6,547.3c19.3-2.5,40.3-7.6,59.7-4.1
		c1.9,0.3,2.7-2.5,0.8-2.9c-19.8-3.6-40.8,1.4-60.5,4C254.8,544.6,254.7,547.6,256.6,547.3z M516.7,331.9
		c-15.9,56.6-13.9,117.2,5.6,172.7c0.6,1.8,3.5,1,2.9-0.8c-19.3-55-21.3-115-5.6-171.1C520.1,330.8,517.2,330,516.7,331.9
		L516.7,331.9z"/>
	<path id="Path_00000002378039016422125920000017661524123606222245_" class="st1" d="M518.7,332.9c44.5-0.2,88.8-6,131.9-17.3
		c1.9-0.5,1.1-3.4-0.8-2.9c-42.8,11.2-86.8,17-131.1,17.2C516.7,329.9,516.7,332.9,518.7,332.9z"/>
	<path id="Path_00000016789548963237266810000010811814027715114428_" class="st1" d="M649.8,313.8c-1.8,27.8-0.6,55.8,4.4,83.3
		c2.5,13.9,5.5,27.8,11,40.8c5.5,12.9,13.1,24.6,22,35.3c1.2,1.5,3.4-0.6,2.1-2.1c-9.1-10.9-16.8-23-22.2-36.2
		c-5.1-12.6-7.9-26.1-10.2-39.4c-4.8-26.9-5.9-54.4-4.2-81.7C652.9,311.9,649.9,311.9,649.8,313.8L649.8,313.8z"/>
	<path id="Shape_00000055708580720554345020000011727024362910094267_" class="st1" d="M522.7,506.2c56.6,4,115.7-2.4,165.3-31.6
		c1.7-1,0.2-3.6-1.5-2.6c-49.3,29-107.8,35.1-163.8,31.2C520.8,503,520.8,506,522.7,506.2z M582.9,341.9c-1.7-2.9,1.7-6.5,4.6-4.2
		c3.1,2.5-0.2,6.5-3.5,5.2c-1.8-0.7-2.6,2.2-0.8,2.9c2.7,1.1,6-0.1,7.6-2.5c1.8-2.7,1-6.1-1.5-8c-5.4-4.3-12.2,2.4-9,8.1
		C581.3,345.1,583.9,343.6,582.9,341.9L582.9,341.9z M519.7,376.4c29.9-0.5,59.8-2.6,89.6-6.2c1.9-0.2,1.9-3.2,0-3
		c-29.7,3.7-59.6,5.7-89.6,6.2C517.8,373.5,517.8,376.5,519.7,376.4z M620,356.3c0.9,4.6,1.8,9.3,2.7,13.9c0.4,1.9,3.3,1.1,2.9-0.8
		c-0.9-4.6-1.8-9.3-2.7-13.9C622.6,353.6,619.7,354.4,620,356.3z"/>
	<path id="Path_00000075147047410081282010000007783009810054620055_" class="st1" d="M622,355.9c5.5-0.8,11-1.6,16.6-2.5
		c1.9-0.3,1.1-3.2-0.8-2.9c-5.5,0.8-11,1.6-16.6,2.5C619.3,353.3,620.1,356.2,622,355.9z"/>
	<path id="Path_00000072240665564796091050000015561531732129026467_" class="st1" d="M637.7,352.5c0.8,4.3,1.5,8.6,2.3,12.8
		c0.3,1.9,3.2,1.1,2.9-0.8c-0.8-4.3-1.5-8.6-2.3-12.8C640.3,349.9,637.4,350.7,637.7,352.5z"/>
	<path id="Shape_00000003825646506381896230000014409484387481223837_" class="st1" d="M625.2,372.5c5.9-1.2,11.5-2.8,17.1-5
		c1.8-0.7,1-3.6-0.8-2.9c-5.6,2.1-11.3,3.8-17.1,5C622.5,370,623.3,372.9,625.2,372.5z M625.7,359.3c1.1,2.5,2.6,4.5,4.8,6.2
		c0.8,0.6,2.3,0.6,2.5-0.7c0.8-5.4,2.7-10.2,5.9-14.7c1.1-1.6-1.5-3.1-2.6-1.5c-3.3,4.6-5.4,9.8-6.2,15.4c0.8-0.2,1.7-0.4,2.5-0.7
		c-1.9-1.5-3.3-3.3-4.3-5.6C627.5,356,624.9,357.5,625.7,359.3L625.7,359.3z M626.8,402.2c-1.6,7.2-0.9,14.2,2,20.9
		c0.8,1.8,3.3,0.2,2.6-1.5c-2.6-5.9-3.1-12.3-1.7-18.6C630.1,401.1,627.2,400.3,626.8,402.2z"/>
	<path id="Path_00000153682820817620908440000012219326508619768704_" class="st1" d="M628.8,403.2c6-1,12-1.9,18-2.9l-1.8-1.8
		c-1,6.4-0.3,12.5,2.2,18.5c0.7,1.8,3.6,1,2.9-0.8c-2.3-5.4-3.1-11.1-2.2-16.9c0.2-1.2-0.6-2-1.8-1.8c-6,0.9-12,1.9-18,2.9
		C626.1,400.6,626.9,403.5,628.8,403.2L628.8,403.2z"/>
	<path id="Shape_00000063615430402851483650000016630346172515485336_" class="st1" d="M630.1,423.2c6.6-0.2,12.9-1.5,19.1-3.7
		c1.8-0.7,1-3.6-0.8-2.9c-5.9,2.2-12,3.4-18.3,3.6C628.2,420.2,628.2,423.2,630.1,423.2L630.1,423.2z M631,409.3
		c0.9,2.6,2.4,4.4,4.8,5.8c1.1,0.6,2.1-0.2,2.3-1.3c0.6-5.3,2-10.4,4.2-15.3c0.8-1.7-1.8-3.3-2.6-1.5c-2.4,5.4-3.9,11-4.6,16.8
		c0.8-0.4,1.5-0.9,2.3-1.3c-1.7-1-2.7-2.2-3.4-4.1C633.3,406.7,630.4,407.5,631,409.3L631,409.3z M633,448.6c0.7,6.7,2.5,13,5.5,19
		c0.8,1.7,3.4,0.2,2.6-1.5c-2.7-5.5-4.4-11.4-5-17.5C635.8,446.7,632.8,446.7,633,448.6z"/>
	<path id="Path_00000098931346107833315940000000054371246361165715_" class="st1" d="M634.4,448.3c7.7,0.7,14.9-0.7,21.8-4.1
		c-0.7-0.3-1.5-0.6-2.2-0.9c1.3,6.1,4,11.4,8.2,16.1c1.3,1.4,3.4-0.7,2.1-2.1c-3.8-4.3-6.2-9.1-7.4-14.7c-0.2-1-1.4-1.3-2.2-0.9
		c-6.4,3.1-13.2,4.3-20.3,3.7C632.5,445.2,632.5,448.2,634.4,448.3z"/>
	<path id="Shape_00000056390506815957279890000012872825730909140105_" class="st1" d="M641.2,468.7c7.8-2.9,15.5-6,23-9.4
		c1.8-0.8,0.2-3.4-1.5-2.6c-7.3,3.3-14.8,6.3-22.3,9.1C638.6,466.5,639.4,469.4,641.2,468.7z M639.6,453.6c2.4,2.1,7.9,9.3,10.7,4
		c1.3-2.4,1-5.7,1.8-8.4c1.2-3.8,3.2-7.3,5.8-10.3c1.2-1.5-0.9-3.6-2.1-2.1c-2.8,3.3-5,6.9-6.3,11.1c-0.6,1.9-1.1,3.9-1.4,5.9
		c-0.4,2.5-1.1,1.9-3,0.7c-1.2-0.8-2.3-2-3.4-3C640.3,450.2,638.2,452.3,639.6,453.6L639.6,453.6z M522.4,425.3
		c28-0.3,55.9-2.6,83.5-7c1.9-0.3,1.1-3.2-0.8-2.9c-27.4,4.3-55,6.6-82.7,6.8C520.5,422.3,520.5,425.3,522.4,425.3z M519.2,384.7
		c18.1,0.5,36.1-0.1,54.1-1.6c1.9-0.2,1.9-3.2,0-3c-18,1.5-36.1,2-54.1,1.6C517.3,381.6,517.3,384.6,519.2,384.7z M523.5,431.2
		c19,0.9,38,0.2,56.8-2.2c1.9-0.2,1.9-3.2,0-3c-18.9,2.3-37.9,3.1-56.8,2.2C521.6,428.1,521.6,431.1,523.5,431.2z M586.7,427.6
		c5.4,0.1,10.7-0.6,15.9-2.3c1.8-0.6,1-3.5-0.8-2.9c-4.9,1.6-9.9,2.3-15.1,2.2C584.8,424.6,584.8,427.6,586.7,427.6L586.7,427.6z
		 M533.7,468.8c22.8-1.4,45.5-3.5,68.1-6.6c1.9-0.3,1.9-3.3,0-3c-22.6,3-45.3,5.2-68.1,6.6C531.7,465.9,531.7,468.9,533.7,468.8z
		 M536.3,475.8h22.5c1.9,0,1.9-3,0-3h-22.5C534.4,472.8,534.4,475.8,536.3,475.8z M542.8,482.5c11.7-0.7,23.4-1.8,35.1-3.2
		c9.4-1.2,19.5-1.7,27.6-7.2c1.6-1.1,0.1-3.7-1.5-2.6c-8.5,5.8-19.9,6.1-29.8,7.2c-10.4,1.2-20.9,2.1-31.3,2.8
		C540.9,479.6,540.8,482.6,542.8,482.5L542.8,482.5z M657,401.7c18.2-0.9,36.3-3.3,54.2-7.1c-0.6-0.3-1.2-0.7-1.8-1
		c8.4,25,20.8,48.3,36.7,69.4c1.1,1.5,3.8,0,2.6-1.5c-15.7-20.8-28-43.9-36.4-68.6c-0.3-0.8-1-1.2-1.8-1c-17.6,3.8-35.4,6.1-53.4,7
		C655,398.8,655,401.8,657,401.7L657,401.7z"/>
	<path id="Shape_00000082365716791355444320000010587757308031220879_" class="st1" d="M660.1,486.1c2.7,3.8,4.9,7.8,6.8,12.1
		c0.2,0.6,1.1,0.9,1.7,0.7c14.7-4.9,29.2-10.3,43.4-16.4c7.2-3.1,14.3-6.3,21.4-9.7c3.4-1.6,6.8-3.3,10.1-5c2-1,4.3-1.6,5-3.8
		c0.2-0.6-0.1-1.4-0.7-1.7c-0.9-0.5-1.4-0.5-2.3,0c-0.6,0.3-0.9,1.1-0.7,1.7c0,0.1,0.1,0.2,0.1,0.3c0.5,1.9,3.4,1.1,2.9-0.8
		c0-0.1-0.1-0.2-0.1-0.3c-0.2,0.6-0.5,1.1-0.7,1.7h-0.7c-0.2-0.6-0.5-1.1-0.7-1.7c-0.6,1.8-6.9,3.7-8.6,4.6
		c-2.8,1.4-5.6,2.7-8.5,4.1c-6.7,3.2-13.5,6.2-20.4,9.1c-13.2,5.6-26.7,10.6-40.3,15.1c0.6,0.2,1.1,0.5,1.7,0.7
		c-1.8-4.3-4.1-8.3-6.8-12.1C661.6,483,659,484.5,660.1,486.1L660.1,486.1z M677.5,409.5c-0.2-1.3,2.2-2.5,3.1-1.6
		c1.2,1.2-0.8,3.4-2.2,2.9c-1.8-0.7-2.6,2.2-0.8,2.9c4.3,1.6,8.5-4.6,5.2-7.9c-1.5-1.5-3.8-1.4-5.6-0.5c-1.9,1-2.9,2.9-2.5,5
		C674.9,412.2,677.8,411.3,677.5,409.5z M234.4,329.5c11.1,0.2,22.3-0.3,33.3-1.8c11.5-1.6,22.9-4.9,34.6-4.4c1.9,0.1,1.9-2.9,0-3
		c-10.7-0.4-21.1,2.3-31.6,3.9c-12,1.9-24.2,2.6-36.4,2.3C232.5,326.5,232.5,329.5,234.4,329.5L234.4,329.5z M236,296.4
		c17,1.3,34-0.2,50.5-4.5c1.9-0.5,1.1-3.4-0.8-2.9c-16.3,4.2-32.9,5.7-49.7,4.4C234.1,293.3,234.1,296.3,236,296.4z M620.8,212.2
		c-1.7,11-3.1,22.9,3.8,32.5c1.1,1.6,3.7,0.1,2.6-1.5c-6.4-8.9-5-20-3.5-30.2C624,211.1,621.1,210.3,620.8,212.2z"/>
	<path id="Path_00000098939907964121622410000016036468297003038888_" class="st1" d="M621.7,212.1c23.8,0.9,47.6-1.4,70.8-6.9
		c-0.6-0.3-1.2-0.7-1.8-1c2.1,10.3,6.1,19.9,11.7,28.7c1,1.6,3.6,0.1,2.6-1.5c-5.5-8.6-9.3-18-11.4-28c-0.2-0.8-1.1-1.2-1.8-1
		c-22.9,5.4-46.4,7.7-70,6.8C619.8,209,619.8,212,621.7,212.1L621.7,212.1z"/>
	<path id="Shape_00000021808388873626569770000012468945755027833263_" class="st1" d="M627.1,244.6c25.8-0.8,51.3-4.6,76.1-11.4
		c1.9-0.5,1.1-3.4-0.8-2.9c-24.6,6.8-49.8,10.6-75.3,11.3C625.1,241.7,625.1,244.7,627.1,244.6L627.1,244.6z M979.7,943.1v33.8
		c-80,31.7-96.3,43-95.1,47.1c0.3,1,2.4,4,44.4-0.9c41.6-4.9,75.3-12,98.7-17.8c-4.1-23.1-8.3-46.2-12.4-69.3
		C1003.4,938.4,991.5,940.8,979.7,943.1L979.7,943.1z"/>
</g>
<path id="Path_00000106835310766649686710000008536954330314627730_" class="st9" d="M1126.6,553.8c-2.3,4.3-3.1,7.8-3.3,8.6
	c-14.3,60.8-33,96.7-45.2,167.2c-23.3,135.8-3.2,290.1-1.3,304.6c6.4,2.8,18.7,7,34.4,6.4c13.8-0.6,24.5-4.7,30.6-7.6
	c-2.3-44.3,0-99,15.3-159.3c18.7-73.9,42.4-98.4,63.7-184.8c15.8-64,34.1-138.5,2.5-160.6C1199.1,511.1,1142.4,523.7,1126.6,553.8
	L1126.6,553.8z"/>
<path id="Path_00000011024192822772834020000001160637869669004428_" class="st10" d="M1181.9,585.7c-16,73-30.9,150.8-43.5,233.1
	c-11.9,77.4-20.8,151.5-27.4,221.9c10.1-2.1,20.1-4.2,30.2-6.3c-1.3-31.1,0.1-57.6,2.1-77.9c2.4-25.2,8.5-83.9,33-142.5
	c3.2-7.5,7.3-16.6,14-33.7c11.3-28.3,19.5-52.5,23.2-63.9c17.4-54.4,26.1-117.5,28.8-138.3C1222.1,580.5,1202,583.1,1181.9,585.7
	L1181.9,585.7z"/>
<path id="Path_00000003799684352376785510000009676844424144289465_" class="st11" d="M1214.9,712.8
	c-39.2,51.1-57.5,97.4-66.7,128.5c-8.4,28.3-12.1,53.3-16.9,85.7c-6.8,46-9.4,84.8-10.5,112.4c6.6-1.6,13.1-3.3,19.7-4.9
	c-1.1-38.7,1.6-71.8,4.9-97.6c4-30.6,8.6-66.1,24.6-108.8c5.8-15.5,8.6-19.9,21.8-53.4C1202,748.5,1209.8,727,1214.9,712.8
	L1214.9,712.8z"/>
<path id="Path_00000110463726937952655690000006010423761422184321_" class="st1" d="M1306.7,1020.6c5.6,13.9,11.3,27.8,16.9,41.8
	c-47,29.9-69.2,47.3-66.7,52.4c3.1,6.3,43.7-6.2,121.8-37.3c-8.3-27-16.6-53.9-24.9-80.9L1306.7,1020.6z"/>
<path id="Path_00000048466172482246112110000008267198276722598805_" class="st9" d="M1268.1,555c24.5,22.4,23.7,53.8,26.8,105.8
	c0,0,7.6,127.9,33.1,230.7c6.4,25.7,18,65.6,39.5,113.4c-3.6,4.6-13.4,15.8-30.6,21.7c-17.6,6-32.6,2.8-38.2,1.3
	c-30.6-52.2-52.3-96.7-66.3-127.5c-64.9-142.2-70.1-217.1-70.1-256.2c0-40.2,0.7-88.4,30.6-104.5
	C1215.4,527.6,1248.4,537,1268.1,555z"/>
<path id="Path_00000101807788897359633440000007201197012879906477_" class="st12" d="M1198.7,570.3c11.1,42.7,23.1,86.1,35.9,130.1
	c33.4,114.2,69.7,222.1,107.8,323.3c3.7-1.9,8.2-4.5,12.8-8c4.7-3.6,8.4-7.2,11.2-10.4c-5.2-12.1-12.4-29.6-20-51.1
	c-11.5-32.9-30.2-93.4-39.9-174c-9.3-77.4-14-116.1-13.6-140.5c0.3-20.1,2.1-61-23.9-83c-5.4-4.5-10.7-7.2-14.4-8.8
	C1235.9,555.4,1217.3,562.9,1198.7,570.3L1198.7,570.3z"/>
<path id="Path_00000009571132406126919170000015308738169925200016_" class="st13" d="M1294.1,665.7c-4.6,46.5-6.1,108.8,5.1,180.8
	c11.3,72.4,31.8,131.5,50.3,174.5c5.7-4.7,11.4-9.4,17.1-14.2c-6.8-16.1-15.7-38.5-24.6-65.9c-17.1-52.7-24.5-93.8-30.9-130.7
	C1304.6,772.4,1297.8,723.5,1294.1,665.7L1294.1,665.7z"/>
<path id="Path_00000135655503886981754080000009939403565227828153_" class="st14" d="M825.9,189.7c-4,2-9.5,5.5-13.8,11.5
	c-2.3,3.1-5.1,7.2-5.5,13c-0.1,2.3-0.4,7.3,2.8,10.6c0.9,1,3.3,2.9,15.1,2.5c10.5-0.4,15.8-0.6,18.5-3.4c5.2-5.4,3.3-15.6,0-21.7
	C837.8,192.5,827.6,190.1,825.9,189.7z"/>
<path id="Path_00000049904228083387812460000006162741156934750882_" class="st14" d="M886.3,214.8c14.1,16.1,36.7,25.7,78.2,42.8
	c52.3,21.6,78.5,32.4,109.5,36.2c33.5,4.1,51.4-0.2,57.6,10.7c8.1,14.1-10.9,40.5-30.5,62.6c-14.6-3.2-29.7-7.2-45.3-12.4
	c-85.5-28.3-147.3-78.1-187.9-119.5c-5.1,1.1-13.8,2.2-23.7-0.8c-8.5-2.5-20.5-8.9-19.8-14c0.9-6.2,22.6-7.3,23.9-7.4
	c-6.6-2.7-16.1-7.3-26.4-14.8c-3-2.2-20.2-14.9-18.1-18.9c1.8-3.5,17.4,1.3,32.1,5.8c13.4,4.1,22.7,7,32.9,14
	C878.6,205.7,884.3,212.5,886.3,214.8z"/>
<path id="Path_00000026138189168256949030000008018560289118971534_" class="st2" d="M817.1,190.8c2.4,2.7,2.9,6.3,5,9.1
	c1.8,2.5,4.4,4.3,7.1,5.8c8.1,4.5,16.7,8.2,25,12.3c1.4,0.7,3.2-1.2,1.8-2.4c-4.3-3.7-8.9-7-13.7-10c-1.6-1-3.2,1.6-1.5,2.6
	c4.6,2.9,9,6,13.1,9.5l1.8-2.4c-7.9-3.8-15.8-7.5-23.6-11.6c-3.7-1.9-7-4.1-8.9-7.9c-1.3-2.6-2-5.1-4-7.3
	C817.9,187.3,815.8,189.4,817.1,190.8L817.1,190.8z"/>
<path id="Path_00000095319503094061180180000000026611813646132400_" class="st2" d="M824.9,201.3c4.6,2,9,4.6,13,7.7
	c1.5,1.2,3.6-0.9,2.1-2.1c-4.2-3.3-8.7-6-13.6-8.2C824.6,197.9,823.1,200.5,824.9,201.3z"/>
<path id="Path_00000069371726094279223880000018412930625585023367_" class="st2" d="M813.1,189c3.8,6.1,8.8,11.1,14.7,15.1
	c1.6,1.1,3.1-1.5,1.5-2.6c-5.5-3.7-10.1-8.4-13.6-14.1C814.7,185.9,812.1,187.4,813.1,189z"/>
<path id="Path_00000072269819885596884130000008739090030560116901_" class="st1" d="M817.6,197.2c2,2.7,4.2,5.2,6.7,7.4
	c1.8,1.6,9.7,7.3,5.6,10.2c-0.8,0.5,0,1.8,0.8,1.3c2.8-1.9,1.7-5.3,0-7.6c-1.3-1.7-3.1-3-4.8-4.5c-2.6-2.3-4.9-4.8-7-7.5
	C818.3,195.6,817,196.4,817.6,197.2L817.6,197.2z"/>
<path id="Shape_00000161622861388475783300000005547575711066509198_" class="st1" d="M815.5,207.6c3,4.1,8.7,9.9,14.3,8.2
	c0.9-0.3,0.5-1.7-0.4-1.4c-4.8,1.5-10.1-4-12.6-7.5C816.2,206.1,814.9,206.8,815.5,207.6L815.5,207.6z M811.1,214.6
	c3.3,4.5,8.1,7.1,13.7,7.4c1,0.1,1-1.4,0-1.5c-5-0.3-9.4-2.7-12.4-6.7C811.8,213,810.5,213.8,811.1,214.6L811.1,214.6z M807.9,223.6
	c4.7,4.9,12.5,5,17.2,0c0.7-0.7-0.4-1.8-1.1-1.1c-4.1,4.4-10.9,4.3-15,0C808.3,221.8,807.2,222.9,807.9,223.6z M808.9,188.8
	c11.1,7.3,19.1,19.6,33,22c0.9,0.2,1.4-1.3,0.4-1.4c-13.7-2.3-21.7-14.6-32.6-21.8C808.8,186.9,808.1,188.2,808.9,188.8L808.9,188.8
	z"/>
<path id="Path_00000012436053406411257380000007768144442452987545_" class="st10" d="M807.7,221.5c-3.6-4.9-0.6-15.4,8.1-25.3
	c9.8,5.7,19.5,11.5,29.3,17.2c-1.8,0-17.6,0.2-18.7,5.1c-0.2,0.8,0,2,1.5,3.7c5,2.4,13.4,5.6,24.2,5.9c5.6,0.1,10.5-0.6,14.3-1.5
	c20.4,20.6,56.3,51.7,109.1,74.3c46.4,19.8,88,25.5,115.5,27.1c-0.9,11.8-1.8,23.5-2.7,35.3c-45.3-12-106.7-34.8-167.7-80.6
	c-20.8-15.6-38.6-31.7-53.8-47.2c-14,2.3-22.7-0.1-28.2-2.9c-4.7-2.4-7.7-5.4-13.9-5.9c-4.1-0.3-7.6,0.7-12.1-1.5
	C812.1,225,809.2,223.5,807.7,221.5L807.7,221.5z"/>
<path id="Path_00000067211787966902763530000013859688085209843365_" class="st7" d="M936.5,292.1c14,7.5,30.2,15.1,48.7,21.6
	c40.3,14.3,76.8,18.8,104.7,19.8c-0.4,10.2-0.7,20.5-1.1,30.7c-29-6.8-65.4-18.7-104-40.3C966.3,313.6,950.3,302.7,936.5,292.1
	L936.5,292.1z"/>
<path id="Path_00000032642218700811988430000006622939218874499241_" class="st14" d="M1094.6,320.6c-5.7,12.9-6,23.6-6.5,42.8
	c-0.4,14.5,0.6,30.1,8.4,71.1c9.5,49.6,14,57.6,15.5,83.9c1.2,20.6-0.4,37.5-1.9,48.7c12.6,6.9,33.7,16.3,61.3,18.4
	c48.8,3.7,84.9-17.8,97.3-26c1.5-31.4,3-62.9,4.6-94.3c-5.5-26.8-12-47.8-16.7-61.6c-14.8-43.5-28.6-64.1-19.8-85.9
	c4.9-12.1,14.6-19.5,21.3-23.6c-4.7-3.6-54-40.1-107.8-21.2C1144.7,274.8,1109.3,287.3,1094.6,320.6L1094.6,320.6z"/>
<path id="Path_00000159435380255915410990000003250609418886897342_" class="st11" d="M1150.1,272.8c15,24,23.4,45.2,28.2,60
	c0,0,23.5,71.4,6.3,167.2c-3.7,20.4-10.3,49.4-23.3,82.6c5,1.1,11,2,17.8,2.3c0,0,10.5,0.5,22.3-1c14.4-1.9,39.1-9.6,68.2-24.4
	l1.5-100.4c-7.4-28.3-14.9-51-20.5-66.9c-13.5-37.9-23-55.7-15.2-74.5c5.1-12.3,15.5-19.9,23.6-24.3c-10.6-7-30.2-17.9-57-22.1
	C1179.9,267.9,1161.7,270.3,1150.1,272.8L1150.1,272.8z"/>
<path id="Path_00000108998477955992417470000011896683971469424818_" class="st15" d="M1163.8,270.5c16.1,19.8,34.9,48.7,46.5,86.8
	c32.9,108.8-21.2,204.2-33.7,225.1c10.5-0.1,22.8-1,36.2-3.6c23.9-4.6,43-12.8,56.7-20.1c0.5-31.2,1-62.4,1.5-93.5
	c-8.5-28.9-16.5-56.3-27.4-93.5c-7.4-25.5-13.2-46.4-2.3-63.1c5.3-8.1,12.7-12.6,18.3-15.2C1227.7,285.7,1195.7,278.1,1163.8,270.5z
	"/>
<path id="Path_00000062161189501922494900000016349592377907396012_" class="st14" d="M1156.4,474.8c-0.3-21.4-0.5-42.7-0.8-64.1
	c51.3-2.6,102.6-5.2,154-7.8c1.8,19.8,3.6,39.6,5.5,59.4C1262.2,466.5,1209.3,470.6,1156.4,474.8z"/>
<path id="Path_00000063635471425000756490000002628719647637814439_" class="st14" d="M1140.8,467.8v-23.4
	c65.9-4.9,131.8-9.9,197.7-14.8c0.5,9.6,1,19.3,1.6,28.9C1273.7,461.5,1207.2,464.7,1140.8,467.8z"/>
<path id="Path_00000140705522082302839860000017285581864215817138_" class="st14" d="M1146.3,432.6c0.8,11.5,1.6,22.9,2.3,34.4
	c61-4.9,121.9-9.9,182.9-14.8c0.5-10.4,1-20.8,1.6-31.3C1270.8,424.8,1208.5,428.7,1146.3,432.6L1146.3,432.6z"/>
<path id="Path_00000021080458404763238680000002124915528214219162_" class="st14" d="M1131.4,458.4c1.8,45.6,3.6,91.2,5.5,136.8
	c68-7.6,136-15.1,204-22.7l6.3-134.4C1275.2,444.9,1203.3,451.6,1131.4,458.4L1131.4,458.4z"/>
<path id="Shape_00000155826641964739654320000014125622979949525687_" class="st1" d="M1143,476.2c30.9-4.1,61.8-7,92.9-8.8
	c1.4-0.1,1.4-2.3,0-2.3c-31.1,1.8-62.1,4.7-92.9,8.8C1141.6,474.1,1141.6,476.4,1143,476.2z M1177.5,482.3c23.7-3,47.4-6.1,71.2-9.1
	c1.4-0.2,1.4-2.4,0-2.3c-23.7,3-47.4,6.1-71.2,9.1C1176.1,480.3,1176.1,482.5,1177.5,482.3z M1291.4,546.3c-0.4,6.3-0.4,12.7,0.2,19
	c0.1,1.4,2.4,1.4,2.3,0c-0.6-6.3-0.7-12.7-0.2-19C1293.8,544.9,1291.5,544.9,1291.4,546.3z"/>
<path id="Path_00000105385830864626881870000008644873348728138128_" class="st1" d="M1292.4,546.5c12.4,0.3,24.7-0.4,37-2l-1.1-1.1
	c-0.2,5.8,0,11.5,0.4,17.2c0.1,1.4,2.4,1.4,2.3,0c-0.5-5.7-0.6-11.5-0.4-17.2c0-0.6-0.5-1.2-1.1-1.1c-12.3,1.6-24.6,2.2-37,2
	C1290.9,544.2,1290.9,546.4,1292.4,546.5L1292.4,546.5z"/>
<path id="Shape_00000176041191854352708970000010897296481192832676_" class="st1" d="M1293.3,567.1c12.3,0.2,24.4-1.1,36.4-3.8
	c1.4-0.3,0.8-2.5-0.6-2.2c-11.8,2.6-23.7,3.9-35.8,3.7C1291.9,564.8,1291.9,567,1293.3,567.1L1293.3,567.1z M1298,553.5
	c7.6,0.5,15.1,0.1,22.7-1.1c1.4-0.2,0.8-2.4-0.6-2.2c-7.3,1.2-14.7,1.5-22.1,1C1296.6,551.1,1296.6,553.4,1298,553.5L1298,553.5z
	 M1302.8,559.8c7.9-0.2,15.5-1.7,23-4.4c1.3-0.5,0.8-2.7-0.6-2.2c-7.2,2.7-14.7,4.1-22.4,4.4
	C1301.4,557.5,1301.3,559.8,1302.8,559.8z"/>
<path id="Path_00000076577678957137681160000013577983422752971689_" class="st10" d="M1163.7,590c1.8-42.2,3.6-84.4,5.3-126.7
	c58.4-4.7,116.9-9.3,175.3-14c-1.3,40-2.7,80-4,120C1281.4,576.2,1222.6,583.1,1163.7,590z"/>
<path id="Path_00000044155470698003546160000004432302599584838322_" class="st10" d="M1322.3,422c0.3,11.6-0.3,25.4-3.3,40.7
	c-7.4,37.6-25.2,64.7-37.3,80c8.2,10.9,16.4,21.8,24.7,32.7l-75.3,8.7c4-45.8,8-91.6,12-137.3c-1.3-6-2.7-12-4-18
	C1266.8,426.4,1294.6,424.2,1322.3,422L1322.3,422z"/>
<path id="Path_00000103263031175375333270000004237628411360503485_" class="st14" d="M1252.7,291.4c20.9-2.8,45.8,45.2,55.7,79.7
	c11.4,39.7,6.4,74,2.3,92.1c-8,35.5-24.6,60.5-35,74c1.6,5.3,5.3,19.7-0.8,35.5c-9,23.1-33.4,34.2-35.3,32.1
	c-0.6-0.7,0.6-3.6,10.1-14.5c-2,2.1-16.4,16.4-32.6,13c-2.8-0.6-6.3-1.3-8.3-4.1c-4.7-6.8,3.1-22.2,19.7-39.3
	c-18.1,4.5-22.9,3.3-23.8,1.3c-2.3-4.8,16.2-18.4,22.9-23.4c9.9-7.3,18.8-12.3,24.9-15.4c17.1-35.5,16.2-63.2,14.7-76.2
	c-2.2-19.2-9.4-40.1-10.8-44.1c-4-11.5-5.9-14.1-13.9-34.8c-12.9-33.2-12.9-38.9-12.4-43.3C1231.9,310.8,1240.8,293,1252.7,291.4
	L1252.7,291.4z"/>
<path id="Shape_00000165936681228456195580000007901623222739375267_" class="st1" d="M1209.2,596.4c11.1-6.3,20.8-14.4,28.9-24.2
	c1.2-1.5-0.9-3.6-2.1-2.1c-7.9,9.6-17.4,17.6-28.3,23.8C1206,594.7,1207.5,597.3,1209.2,596.4L1209.2,596.4z M1219,603.1
	c11-5.7,20.4-13.6,28-23.4c1.2-1.5-1.4-3-2.6-1.5c-7.2,9.4-16.4,16.9-26.9,22.3C1215.8,601.4,1217.3,604,1219,603.1z"/>
<path id="Path_00000083069507112708958590000003422558832344894643_" class="st16" d="M1244.3,296.2
	c-19.9,17.3,61.3,93.2,47.4,179.4c-9.5,59.1-48.9,97.7-48.9,97.7c-11,11-31.7,24.5-29.2,29.2c1.8,3.4,14.3,0.3,18.8-1.1
	c8.5-2.6,14.4-7,17.7-9.9c-5,5.6-10.7,12.5-9.5,13.9c1.7,1.8,15.9-5.6,24.8-16c15.4-18,13.2-43,11.7-53.2
	c3.6-4.7,8.3-11.3,13.1-19.7c4.4-7.5,17.1-30.9,22.6-62.7c9.7-56.3-10.2-100.7-18.2-118.1c-7.2-15.5-19.4-41.2-37.9-42.3
	C1254.3,293.1,1248.2,292.8,1244.3,296.2L1244.3,296.2z"/>
<path id="Path_00000016048931500918875580000010098337591415086479_" class="st13" d="M1311.7,452.2c-5.4,15.7-11.8,32.2-19.4,49.5
	c-5.4,12.3-10.9,23.8-16.5,34.7c-2.8,9-8.1,22.5-18.6,36.4c-11,14.6-23.1,23.5-31.2,28.6c2.3,0.1,5.1-0.1,8.2-0.9
	c7.8-1.8,13-6.1,15.6-8.7c-3,3.8-6.1,7.5-9.1,11.3c2.4-0.4,6.2-1.1,10.4-3c22-9.9,26.6-36.8,26.9-38.6c0.8-4.9,1.3-13.3-1.7-23.7
	c7.2-8.5,16.3-21.2,23.6-38.3C1308,480.7,1310.7,463.8,1311.7,452.2z"/>
<path id="Path_00000062883275350220238410000006462255211631408280_" class="st4" d="M1070.4,225.6c-16.1,18.4-5,44.1-3.5,47.6
	c5.6,13,20.1,31.5,38.5,30c13.4-1.2,21.9-12.5,24-15.5c14.8-21.3,9.9-62-15.1-72.5C1100.5,209.4,1081.5,212.8,1070.4,225.6z"/>
<path id="Path_00000090269402163383654310000005632194249073826179_" class="st14" d="M1112.2,242c0.7,7.9,9,9.6,14.6,22.6
	c4,9.4,4,18.6,3.3,25.2c6.5,0.6,18.5,0.9,32.1-4.3c10.7-4.1,18.2-10,22.7-14.1c-2.1-4.7-5.2-11.6-8.9-19.8
	c-16-34.9-18.6-37.9-22.5-39.4C1137.9,206.3,1110.9,227.3,1112.2,242L1112.2,242z"/>
<path id="Path_00000151529567819272605620000010573068936889518473_" class="st14" d="M1054.6,138.7c-3.4,4.8-5.5,10.7-5.8,36
	c-0.2,21.6,1,41.3,3,58.8l13.5-7.8c2,4.9,5.4,11.6,11.2,18.1c11.5,12.9,25.5,17.3,31.7,18.9c6.5-1.6,22.7-6.6,35-21.9
	c8.1-10.2,10.7-20.3,11.3-22.6c3.7-15.1,0.1-27.6-1.8-32.8c2.4-1.1,6.1-3.2,8.9-7c5.9-8,7.5-22.3,0.2-27.1c-5.4-3.6-15-1.5-22.2,5.9
	c-1.6-3.7-4.1-8.8-8.1-14.1c-1-1.3-8.5-11.1-17.7-16.2C1096.1,116.7,1066.8,121.5,1054.6,138.7L1054.6,138.7z"/>
<path id="Path_00000165200547200754947020000016741730295909127578_" class="st4" d="M1047.3,170.1c-4-0.7-11.4-2.8-14.9-8.9
	c-6-10.3,2.8-26,5-29.9c1.8-3.3,6.6-11.2,27-25.5c15.5-10.9,23.3-16.3,31.7-18.9c29.8-8.9,57.1,6.5,62.2,9.4
	c10.7,6.1,17.5,12.7,22.9,17.9c8.3,8,17.6,17.2,28,27.8c26.7,34.6,36.1,66.2,39.9,85.1c4.3,21.4,8.7,43.2-4.1,56
	c-12.8,12.8-36.2,10.2-50.5,4.1c-19.9-8.5-28.4-26.5-35-40.4c-11.2-23.8-11.9-46.6-10.8-61.4c10-2.9,15.1-12.3,12.8-19.4
	c-1.8-5.6-8.5-11.2-15.4-9.2c-5.3,1.5-9.1,7-8.8,13.4c-4.8-0.1-17.6-1.2-29.8-10.4c-8.9-6.7-13.4-14.7-15.5-19.1
	c-5.5,0.7-16.5,2.7-27.6,10.7C1055.1,157.8,1049.9,165.5,1047.3,170.1L1047.3,170.1z"/>
<path id="Path_00000181062795434836393680000013323105426426523836_" class="st17" d="M1113.5,189.2c12,14.5,15.8,29.8,15.8,29.8
	c3.9,17.2-1.7,31.8-4.2,37.7c6.3-4.8,12.7-9.6,19-14.4c4.4,14.6,8.7,29.1,13.1,43.7c3.3-0.3,10.1-1.5,16.9-6.3
	c5.2-3.7,8.3-8,10-10.7c-8.1-7.5-23.6-24.1-30.7-50.2c-3.4-12.6-3.9-23.8-3.5-32.2c9.1-3.7,13.8-12.6,11.9-20
	c-1.4-5.4-6.9-11.9-14-10.9c-5.9,0.9-10.8,6.7-10.7,13.8c-4.5,0-15.1-0.5-26.2-7.2c-11.5-6.9-17-16.5-19.1-20.6
	c0.5,19.2,6.4,30.3,11.7,36.9C1107,183.1,1108.6,183.3,1113.5,189.2L1113.5,189.2z"/>
<path id="Shape_00000109722524711287336240000004408034147519827387_" class="st1" d="M1067,185c-1.1,4-1,8.1,0.5,12
	c0.5,1.4,2.4,1.5,2.9,0c1.2-3.6,1.2-7.4,0.1-11c-0.6-1.8-3.5-1.1-2.9,0.8c1,3.2,0.9,6.3-0.1,9.5h2.9c-1.3-3.4-1.5-6.9-0.5-10.4
	C1070.4,183.9,1067.6,183.1,1067,185z M1063.4,178.8c2.6-1.6,5.8-1.3,8,0.8c1.4,1.3,3.5-0.8,2.1-2.1c-3.1-3-7.9-3.6-11.6-1.3
	C1060.3,177.2,1061.8,179.8,1063.4,178.8z M1074.2,204.2c1.9,0,1.9-3,0-3C1072.2,201.2,1072.2,204.2,1074.2,204.2z M1080.8,195.5
	v0.3c0,0.8,0.7,1.5,1.5,1.5c0.8,0,1.5-0.7,1.5-1.5v-0.3c0-0.8-0.7-1.5-1.5-1.5C1081.5,194,1080.8,194.6,1080.8,195.5z M1081.1,203
	c1.9,0,1.9-3,0-3S1079.2,203,1081.1,203z M1039.9,189.6c-1.2,4-1.1,8.1,0.3,12c0.5,1.4,2.4,1.4,2.9,0c1.2-3.6,1.3-7.4,0.3-11
	c-0.5-1.9-3.4-1.1-2.9,0.8c0.9,3.2,0.8,6.3-0.3,9.4h2.9c-1.2-3.4-1.4-6.9-0.3-10.4C1043.3,188.5,1040.4,187.7,1039.9,189.6z
	 M1038.2,182.1c2.1-1.1,5-0.6,6.4,1.4c1.1,1.5,3.7,0,2.6-1.5c-2.5-3.3-6.8-4.4-10.5-2.5C1035,180.4,1036.5,183,1038.2,182.1z
	 M1071.9,236.5c7.7-1.4,14.4-5.5,19.4-11.6c0.9-1.1-0.7-2.7-1.6-1.6c-4.7,5.8-11,9.6-18.4,11
	C1069.9,234.6,1070.5,236.8,1071.9,236.5z"/>
<path id="Path_00000156582218729192655940000016068428748779947927_" class="st1" d="M1087.5,223.5c1.8,0.6,3.3,1.5,4.6,2.8
	c1,1,2.6-0.6,1.6-1.6c-1.6-1.6-3.5-2.7-5.6-3.4C1086.7,220.9,1086.1,223.1,1087.5,223.5z"/>
<path id="Path_00000160189372607047483680000007720707201244452258_" class="st18" d="M1125.7,262.8c0.8,2.3,2.6,8.8,0,16
	c-3.9,10.7-14.7,14.3-16.4,14.8c-12.3,4-27.8-2.3-38.2-16c1.4,3.6,4.5,10,10.9,15.6c3.2,2.8,11.9,10.3,24.2,9.4
	c2.1-0.2,15.6-1.2,21.8-12.9C1132.5,281.4,1131.5,271,1125.7,262.8L1125.7,262.8z"/>
<path id="Path_00000163758514260382910470000012803746547799331247_" class="st18" d="M1149.8,92.7c12.7,17.6,29,42.5,44.5,74.3
	c16.4,33.6,28.4,58.9,19.1,68.9c-12.3,13.3-54.8-7.8-61.6-11.3c1.4,9.1,4.9,23.6,15.2,38.1c5.2,7.3,14.3,20.2,31.1,26.2
	c10.1,3.6,19.1,3.4,22.6,3.1c4.7-0.3,10.1-0.7,16-3.9c0,0,7.7-4.1,12.9-12.5c7.9-12.8,3.7-30.1-1.9-51.8
	c-6.7-26-15.7-43.3-24.5-60.4c-2.2-4.2-4.8-9.1-9-14.8c-4.2-5.8-7.3-8.9-20.3-21.4c-19.3-18.7-22.3-21.4-28.1-25.3
	C1159.4,97.5,1153.7,94.6,1149.8,92.7z"/>
</svg>
