<?xml version="1.0" encoding="utf-8"?>
<!-- Generator: Adobe Illustrator 25.4.1, SVG Export Plug-In . SVG Version: 6.00 Build 0)  -->
<svg version="1.1" id="图层_1" xmlns="http://www.w3.org/2000/svg" xmlns:xlink="http://www.w3.org/1999/xlink" x="0px" y="0px"
	 viewBox="0 0 1545 1052" style="enable-background:new 0 0 1545 1052;" xml:space="preserve">
<style type="text/css">
	.st0{fill:#E8E8E8;}
	.st1{fill:#7E4CFE;}
	.st2{fill:#161616;}
	.st3{fill:#FFFFFF;}
	.st4{opacity:0.12;fill:#6D6C6C;enable-background:new    ;}
	.st5{opacity:0.13;fill:#6D6C6C;enable-background:new    ;}
	.st6{opacity:0.1;fill:#6D6C6C;enable-background:new    ;}
	.st7{opacity:0.11;fill:#6D6C6C;enable-background:new    ;}
	.st8{fill:#D6D6D6;}
	.st9{fill:#FFFFFF;stroke:#161616;stroke-width:2;}
	.st10{fill:#161616;stroke:#161616;stroke-width:2;}
	.st11{opacity:0.22;fill:#6D6C6C;enable-background:new    ;}
	.st12{fill:#5C38CE;}
	.st13{opacity:5.000000e-02;fill:#6D6C6C;enable-background:new    ;}
	.st14{opacity:0.14;fill:#6D6C6C;enable-background:new    ;}
</style>
<g id="Group">
	<path id="Path" class="st0" d="M127.4,774.1c68-33.7,146.2-20.3,217.7-7.6c38.1,6.8,76.1,13.1,114.7,16.3
		c41.3,3.5,82.8,4.2,124.2,2.2c80.1-4,158.8-19.8,237.8-32.9c79-13,159.6-23.2,239.6-13.7c77.9,9.3,153.9,42.2,233.3,35.6
		c8.9-0.7,17.7-2,26.5-3.8c1.9-0.4,1.1-3.3-0.8-2.9c-79.9,16.2-158.4-15.8-236.3-28.7c-78-12.9-157.3-5.8-234.9,6.1
		c-80.6,12.3-160.5,29.7-241.9,35.8c-82.1,6.1-163.8,0.3-244.8-14c-69.3-12.3-144.1-28.5-212.9-5c-8.1,2.8-16,6.1-23.7,9.9
		C124.2,772.4,125.7,775,127.4,774.1z"/>
	<path id="Path_00000102520222027071646860000001000688744605654711_" class="st0" d="M1068.1,905.8c-3.7-7.8-24.9-58.2-5.6-57
		c1.1,0.1,1.6-1,1.4-1.9c-2.5-15.6-2.2-31.6,1-47.2c1.5-7.2,3.6-14.2,6.3-21c2.4-6.1,8.1-23.4,17.3-15.3c5.6,5,5,15.8,5.6,22.6
		c0.6,8,0.9,16,0.9,24.1c-0.1,16.2-1.5,32.4-4.2,48.4c-1.5,8.5-3.3,17-5.5,25.3c-1.2,4.5-2.5,8.9-3.8,13.3c-1.3,4-2.3,10.1-6.9,11.6
		c-1.8,0.6-1,3.5,0.8,2.9c6.4-2.2,7.8-9.8,9.5-15.5c2.9-9.4,5.3-19,7.3-28.7c3.8-19.2,5.8-38.8,5.8-58.4c0-10.2-0.5-20.4-1.5-30.5
		c-0.7-6.4-1.2-14.2-7-18.3c-13.9-9.8-21.3,17.1-24,25.8c-6.3,19.9-7.7,40.9-4.4,61.5c0.5-0.6,1-1.3,1.4-1.9
		c-12-0.7-11.7,13.6-10.2,21.6c2.6,13.8,7.1,27.2,13.2,39.9C1066.4,909.1,1068.9,907.5,1068.1,905.8L1068.1,905.8z"/>
	<path id="Path_00000036242100262864142330000009827244599879843476_" class="st0" d="M1098.3,823.5c-0.3-6.8,0.4-13.6,2.3-20.1
		c0.9-3.2,2.1-6.3,3.5-9.4c0.7-1.4,1.4-2.8,2.2-4.1c0.5-0.7,1.1-1.3,1.6-2c3-3,5.5-2.5,7.4,1.6c-0.3,1.9,2.3,2.7,2.9,0.8
		c2-6.6,5.9-14.8,13.9-15.2c8.5-0.4,10.8,8.2,11.1,15c0.7,13.1-1.6,26.5-5,39.1c-7,25.7-19.9,49.4-32.7,72.7
		c-0.9,1.7,1.7,3.2,2.6,1.5c15.9-29,32.3-59.1,36.9-92.2c1-7.4,1.7-15,1.1-22.5c-0.4-5.2-1.8-11-6.2-14.3c-4.2-3.1-9.9-2.8-14.3-0.4
		c-5.7,3.2-8.6,9.4-10.4,15.4c1,0.3,1.9,0.5,2.9,0.8c0.5-3.4-1.4-6.3-4.9-7.1c-3.8-0.9-7.1,1.6-9.2,4.6c-7.1,9.9-9.3,23.9-8.8,35.7
		C1095.3,825.4,1098.3,825.4,1098.3,823.5L1098.3,823.5z"/>
	<path id="Path_00000080204602120945679270000011020932198805328545_" class="st0" d="M1027.7,954.3c43-23.5,94-22,141.1-15.2
		c51.3,7.4,102.9,21,155,14.5c28.9-3.6,58.2-13.5,87.4-6.6c1.9,0.4,2.7-2.4,0.8-2.9c-25.3-6-50.7,0.3-75.7,4.6
		c-27.1,4.6-54.3,4.2-81.6,0.9c-51.2-6.1-101.7-20.3-153.7-17.6c-26,1.3-51.8,7.1-74.8,19.6C1024.5,952.6,1026,955.2,1027.7,954.3z"
		/>
	<path id="Path_00000173873375188072667610000014726871630292031617_" class="st0" d="M1159.4,885.4c38.3,3.5,75.5-7.7,112.5-16.1
		c19.5-4.4,39.3-8.2,59.3-8.4c20.9-0.3,41.4,3.9,61.9,7.4c21.8,3.8,43.8,6.6,65.8,2.5c1.9-0.4,1.1-3.2-0.8-2.9
		c-40.9,7.6-80.9-9.4-121.6-10.1c-38.1-0.6-74.8,11.6-111.7,19.3c-21.5,4.5-43.3,7.3-65.3,5.3
		C1157.5,882.3,1157.5,885.3,1159.4,885.4L1159.4,885.4z"/>
	<path id="Path_00000080911886504401979560000009784024129713388162_" class="st0" d="M270.4,752.5c-3.5-3.8-6.6-8.1-8.9-12.8
		c-1.1-2.3-2.1-4.6-2.8-7.1c-0.6-1.9-1.2-3.9-0.8-5.8c0.4-2.2,2.8-7.1,6.3-3.9c1.1,1,2.9,0,2.5-1.5c-5.5-19.8-6.8-39.9-8.2-60.3
		c-1.4-20.3-2.9-41.1,1.1-61.2c1-4.8,1.7-11.8,7.1-13.5c6.7-2.2,11.4,4.9,13.3,10.2c3.4,9.2,5.5,19.2,7.7,28.8
		c4.7,20.4,7.9,41.1,9.8,61.9c2,22.9,2.3,45.9,1,68.8c-0.1,1.9,2.9,1.9,3,0c2.7-46.6-1.5-93.6-12.7-138.9
		c-1.4-5.6-2.8-11.1-4.4-16.6c-1.3-4.4-2.7-8.9-5.6-12.4c-3.9-4.6-11.3-7.1-16.4-2.9c-3,2.5-4,6.7-4.8,10.3
		c-1.2,5.3-2.1,10.6-2.6,16c-1.2,11.5-1,23.1-0.4,34.7c1.4,25.5,2.5,51.4,9.3,76.1c0.8-0.5,1.7-1,2.5-1.5
		c-5.5-5.1-11.8,1.4-11.5,7.4c0.4,9.7,7.2,19.6,13.5,26.4C269.6,756.1,271.7,754,270.4,752.5L270.4,752.5z"/>
	<path id="Path_00000054239379436177452800000000270182405533525944_" class="st0" d="M299.7,666.1c-4.1-9.5-1.8-19.7,0.7-29.3
		c2.2-8.7,4.4-17.2,4.4-26.2c0.1-10.2-0.6-20.1,2-30.1c1.2-4.6,2.9-9,5-13.3c0.9-1.8,2-4.7,3.5-6c4.5-4,6.8,3.4,7.8,6.2
		c6.8,18.7,8,38.9,8.3,58.6c0.4,20.7-0.2,41.4-1.7,62c-1.7,23.7-4.7,47.3-8.8,70.8c-0.3,1.9,2.6,2.7,2.9,0.8
		c8.3-47,12.1-95,10.3-142.6c-0.4-11-1.3-22.1-3.5-32.9c-1-5.3-2.4-10.6-4.1-15.7c-1.2-3.5-2.4-8.3-5.6-10.6
		c-7-5.1-11.7,7.4-13.6,11.9c-3.9,9.1-5.8,18.8-5.8,28.7c0,6.6,0.5,13.2-0.2,19.8c-0.7,6.4-2.6,12.5-4.1,18.7
		c-2.6,10.3-4.5,20.7-0.2,30.8C297.9,669.3,300.5,667.8,299.7,666.1L299.7,666.1z"/>
	<path id="Path_00000163782430404966190310000003186830042805423018_" class="st0" d="M164.1,532.8c57-42.5,115.2-85.3,181.3-112.9
		c32.6-13.6,67.1-23.1,102.4-25.9c39-3.1,78.2,2.1,116,11.9c77.2,20.2,147.3,59.2,220.3,90.2c70.7,30.1,144.8,49.8,220.4,62.7
		c75.7,12.9,152.3,19.6,228.8,25.5c9.5,0.7,19,1.5,28.5,2.2c1.9,0.1,1.9-2.9,0-3c-78.3-5.9-156.7-11.9-234.3-24
		c-76.7-11.9-152.8-29.8-224.9-58.9c-73.2-29.5-142.4-68.8-218.1-91.9c-36.8-11.2-75-18.6-113.6-18.6c-35.5,0-70.6,6.8-104,18.4
		c-67.1,23.4-126.5,64.3-183.3,106.1c-7,5.2-14,10.4-21,15.6C161,531.4,162.5,534,164.1,532.8L164.1,532.8z"/>
	<path id="Path_00000058578214042292112830000013167320195254010525_" class="st0" d="M1026.9,557c61.3,1.3,120.5-16.5,179.3-31.5
		c30.2-7.7,60.6-14.8,91.6-18.1c30.9-3.4,62.1-2.6,92.7,3.2c34.6,6.5,67.9,19.1,98.2,36.9c1.7,1,3.2-1.6,1.5-2.6
		c-52.9-31-114.5-45.8-175.7-41.9c-62.4,3.9-121.9,24.4-182.5,38.2c-34.5,7.9-69.7,13.6-105.2,12.9C1025,554,1025,557,1026.9,557
		L1026.9,557z"/>
	<path id="Path_00000010270428722593711220000008972647252851473560_" class="st0" d="M1345.1,764.8c42.8-6.5,86.5-6.7,129.4-0.4
		c1.9,0.3,2.7-2.6,0.8-2.9c-43.5-6.3-87.5-6.1-131,0.4C1342.4,762.2,1343.2,765,1345.1,764.8z"/>
	<path id="Path_00000145059566577920564980000014369407650685748611_" class="st0" d="M28.3,673.1c32.3-39.2,67.3-76.2,104.7-110.5
		c1.4-1.3-0.7-3.4-2.1-2.1C93.4,594.8,58.4,631.7,26.2,671C25,672.5,27.1,674.6,28.3,673.1z"/>
	<path id="Path_00000039820774439037615210000002142817766120862137_" class="st0" d="M1190.3,128.1c-13.5,4.7-24.1-6.6-30.7-16.9
		c-6.5-10-11.2-20.9-11.2-33.1c0.1-22.9,15.4-43,36.6-51c19.6-7.3,43.5-3.4,58.7,11.4c15.7,15.3,19.7,39.1,9.8,58.5
		c-2.8,5.5-6.4,10.7-10,15.7c-2.1,2.9-4.1,6.1-7,8.4c-3.4,2.6-7.2,3.1-11.3,3.6c-14,1.7-28.1,3.2-42.2,4.8c-1.9,0.2-1.9,3.2,0,3
		c15.2-1.7,30.7-2.8,45.8-5.2c12.3-2,18.9-14.4,24.7-24.3c11.8-20.1,10.9-44.6-4.3-62.8c-15.1-18.1-41.7-24-63.7-16.5
		c-22.1,7.6-38.6,27.5-40.1,51.1c-0.9,14.9,5,28.6,13.3,40.6c7.2,10.4,18.7,20.2,32.2,15.5C1192.9,130.4,1192.1,127.5,1190.3,128.1
		L1190.3,128.1z"/>
	<path id="Path_00000128445998977843565730000005269874264971694215_" class="st0" d="M276.8,165.7c-4.2-10.3,6.8-18.7,16.1-19.4
		c9.9-0.7,19.4,3.5,29,5.3c18.1,3.5,36.7,2.1,54.2-3.7c16.8-5.6,33.2-14.8,51.3-15.2c18.6-0.3,35.2,10.7,54,8.4
		c9.1-1.1,17.9-4,27.1-4.7c8.5-0.7,21.3,0.9,24.3,10.6s-10.6,17.8-17.8,21.3c-8,3.9-16.9,6-25.7,6.1c-9.4,0-17.8-2.8-26.6-5.7
		c-8.1-2.7-16.1-4.3-24.6-4.1c-16.2,0.3-31.8,5.5-47.3,9.8c-9.6,2.7-19.4,5.2-29.4,6c-10.3,0.8-19.7-1-29.6-3.4
		c-9.8-2.4-18.4-1.5-28.3-0.1c-5.9,0.8-12.1,1.3-17.6-1.6c-4.9-2.6-8.9-7.2-7.7-13.1c0.4-1.9-2.5-2.7-2.9-0.8
		c-1.5,6.9,2.5,12.7,8.5,16.1c8.1,4.6,17.1,2.7,25.9,1.4c6.1-0.9,11.8-1.1,17.9,0.1c5.4,1.1,10.7,2.9,16.2,3.8
		c8.6,1.4,17.3,0.9,25.9-0.4c19.6-3.2,38.1-11.1,57.7-13.9c10.5-1.5,20.9-1.1,31.1,2c9.5,2.9,18.5,6.6,28.5,6.9
		c16.1,0.6,37.2-5.8,46.6-19.8c4.2-6.3,2.9-13.6-2.8-18.4c-6.3-5.5-15.1-6.4-23.1-5.6c-10.3,1-20.2,4.5-30.5,5
		c-11.5,0.6-22.1-3.8-33.1-6.6c-20.5-5.2-38.5,1.5-57.5,8.9c-11.6,4.5-23.2,8.2-35.7,9.3c-13.6,1.2-26.6-0.8-39.8-4.2
		c-9.4-2.4-20.2-4.9-29,0.6c-6.7,4.2-11.3,12.1-8.2,19.9C274.6,168.2,277.5,167.5,276.8,165.7L276.8,165.7z"/>
	<path id="Path_00000034771967771381586480000006973612563428590771_" class="st0" d="M1112.9,330.8c14.4-14,35.3-13.8,54.1-12
		c22,2.1,43.3,4.9,65.5,2.5c11.4-1.3,22.5-3.7,33.6-6.6c11.6-3,23.5-6.2,35.7-5.8c12.3,0.4,23.8,5.3,35.9,7c11,1.5,22.1,0.2,33-1.9
		c9.8-1.8,19.5-4.8,29.6-4.3c8.9,0.4,19.8,4.9,19,15.7c-0.8,10.1-12.2,17.1-21.3,18.6c-11.6,1.8-23.4-2.4-34.9-3.3
		c-21.6-1.7-37.9,12.8-58.4,16.5c-21.6,3.9-41.9-8-62.4-12.4c-25.2-5.3-49.1,5.7-73.7,9.7c-12.3,2-26.6,4.7-39,2.2
		c-6.1-1.3-11.9-4.3-14.9-10c-2.7-5.3-2.8-11.7,1.7-16c1.4-1.3-0.7-3.5-2.1-2.1c-5.8,5.5-5.5,14.2-1.5,20.8
		c4.8,7.9,14,10.6,22.7,11.1c25.6,1.5,50.6-7.2,75.2-12.4c13.7-2.9,26.3-1.9,39.7,1.9c11.2,3.2,22,7.6,33.5,9.7
		c10.9,2,21.4,1.4,31.8-2.4c10.9-3.9,21.1-10,32.5-12.6c21.6-4.9,45.9,11,65.3-4.2c6.5-5.1,11-13.3,7.9-21.5
		c-2.7-7.1-9.6-10.6-16.7-11.6c-9.2-1.4-18.1,0.6-27.1,2.5c-14.3,3-28.9,5.4-43.5,2.6c-12.6-2.4-24.5-6.9-37.6-6.3
		c-12.4,0.6-24.4,4.2-36.4,7.2c-15.2,3.8-30.7,6-46.4,6.3c-13.6,0.2-27-1.5-40.5-3c-21.3-2.4-45.6-3.9-62.2,12.2
		C1109.4,330,1111.5,332.1,1112.9,330.8L1112.9,330.8z"/>
	<path id="Path_00000033371484085563636000000002928415893236333477_" class="st0" d="M461.6,1010.7c-4.5-4.1-8.4-8.7-11.6-13.9
		c-1.5-2.4-2.9-5-4-7.6c-0.6-1.5-1.6-3.7-1.4-5.4c0.3-2.9,3.1-7.3,6.5-4.6c1.3,1.1,3.2-0.2,2.4-1.8c-3.8-7.4-6.1-15.9-5.7-24.3
		c0.1-1.6,0.3-3.1,0.9-4.6c0.5-1.3,1.2-2.5,2.1-3.6c1.8-1.8,3.4-1.8,4.8,0.2c3.7,2.7,5.2,7.9,6.9,12c6.1,14.6,10.6,29.8,13.7,45.3
		c1-0.3,1.9-0.5,2.9-0.8c-2.7-7.5-4.8-15.2-6.1-23.1c-0.9-5.6-2.5-24.2,9-18c7.4,4,8.8,15.9,8.8,23.4c0.1,8.3-1.5,16.4-3.1,24.5
		c-0.4,1.9,2.5,2.7,2.9,0.8c2-10.3,4.1-21,2.8-31.6c-1-7.7-4.4-20-13.7-21.2c-7.4-0.9-10.4,6.6-10.6,12.7
		c-0.4,11.1,3.4,23.1,7.1,33.4c0.7,1.8,3.3,1.1,2.9-0.8c-2.3-11.6-5.5-23.1-9.5-34.2c-1.8-5-3.7-9.9-5.9-14.8
		c-1.6-3.7-3.2-9-7.1-11.1c-6.2-3.4-10.6,3.5-11.6,8.7c-1.8,9.5,1.5,20.4,5.7,28.8l2.4-1.8c-6.1-5.1-12.3,2.2-11.4,8.6
		c1.5,10.2,10.5,20.3,17.7,27.1C460.9,1014.1,463,1012,461.6,1010.7L461.6,1010.7z"/>
	<path id="Path_00000043457135776332252780000000831502077019114678_" class="st0" d="M341.2,258c22.2-4.5,44.8-9,67.6-7
		c21.9,1.9,42.6,9.7,63.8,15.1c41.4,10.4,84.3,14.1,126.9,14c24.4-0.1,48.7-1.3,73-3.3c1.9-0.2,1.9-3.2,0-3
		c-43.4,3.4-87.2,4.8-130.7,0.8c-22.1-2-44.1-5.5-65.7-10.7c-20.6-5-40.6-12.5-61.7-15.2c-24.9-3.2-49.7,1.6-74,6.5
		C338.5,255.5,339.3,258.4,341.2,258L341.2,258z"/>
	<path id="Path_00000096051895997369324190000006445646476867686022_" class="st0" d="M575.2,258.2c73.4-3.8,144.7-28.8,218.7-24.2
		c1.9,0.1,1.9-2.9,0-3c-73.9-4.6-145.3,20.5-218.7,24.2C573.2,255.3,573.2,258.3,575.2,258.2z"/>
	<path id="Path_00000045593916659309311530000002550893490801660840_" class="st0" d="M1179.1,757.4c-2.9-7.3-4.4-15-4.3-22.9
		c0-4,0.5-8,1.4-11.9c0.8-3.6,4.8-12.9,9.4-7c0.8,1,2.7,0.2,2.6-1.1c-1-8.6-0.8-17.2,0.8-25.7c0.7-3.7,1.7-7.4,3-11
		c0.8-2.2,1.6-4.6,2.7-6.7c1.6-3,3.4-3.8,6.4-5.3c5.4-2.5,5.5-9,6.8-14.2c1.8-7.1,3.9-14.3,8-20.4c2.4-3.6,6.9-9.4,11.8-8.1
		c3.9,1,5.3,5.2,6,8.8c1.6,7.9,0.5,16.7,0.1,24.7c-0.9,17.7-3.2,35.4-6.8,52.7c-4,19-9.7,37.6-16.8,55.7c-0.7,1.8,2.2,2.6,2.9,0.8
		c14.8-37.4,23.1-77.3,24.1-117.6c0.2-7.8,1.2-33.8-14.2-27.8c-6.5,2.6-10.9,10.5-13.5,16.6c-1.5,3.5-2.6,7.1-3.6,10.7
		c-1.5,5.5-1.5,12.3-6.8,15.5c-3.1,1.9-5.1,2.7-6.9,6.3c-2.1,4.1-3.6,8.8-4.8,13.3c-2.7,10.3-3.4,21-2.1,31.6
		c0.9-0.4,1.7-0.7,2.6-1.1c-2-2.5-5.3-3.1-8.2-1.8c-3.9,1.8-5.3,6.3-6.2,10.1c-2.8,12.1-1.6,24.8,2.9,36.4
		C1176.9,760,1179.8,759.2,1179.1,757.4L1179.1,757.4z"/>
	<path id="Path_00000035509565380671415430000014514027287916244147_" class="st0" d="M1150.7,752.2c-4.3-6.7-8.5-13.7-10.7-21.5
		c-1-3.6-1.6-7.3-1.4-11c0.3-4.1,2-7.3,3.4-11.1c2.2-6.1-1.3-11.9-2.7-17.8c-0.7-2.8-4.8-27.7,4-24.3c1.1,0.4,2.1-0.8,1.8-1.8
		c-2.9-12.9-5.9-26.6-1.8-39.5c1.8-5.7,9.1-20.5,16.6-13.7c4.6,4.2,7.2,12,9.3,17.6c9.2,25.3,13.2,53.4,15,80.2c0.1,1.9,3.1,1.9,3,0
		c-1.2-17.5-3.6-34.9-7.3-52c-3.2-15-6.7-31.7-15.4-44.7c-2.7-4-6.6-7.4-11.7-5.3c-5.4,2.2-9.1,8.8-11.2,13.8
		c-5.9,14.3-2.6,29.9,0.6,44.5c0.6-0.6,1.2-1.2,1.8-1.8c-5.3-2.1-8.5,3.9-9.3,8.4c-1.6,10,2.1,19.3,4.4,28.8
		c1.4,5.8-2.1,9.9-3.1,15.3c-0.8,3.8-0.6,7.6,0.1,11.4c1.7,9.5,6.9,18.2,12,26.3C1149.1,755.3,1151.7,753.8,1150.7,752.2
		L1150.7,752.2z"/>
	<path id="Path_00000124879324900132012500000016250692061816398213_" class="st0" d="M1231,701.9c2.7-9.3,5.5-18.6,11.2-26.5
		c5.5-7.6,11.9-14.8,18-21.9c3.2-3.6,6.4-7.2,9.9-10.5c1.8-1.7,3.6-3.5,5.9-4.7c4.5-2.4,7.5,0.7,8.7,4.8c2.7,9.4,0.5,19.6-1.9,28.9
		c-9.2,35.2-25.2,68.5-46.6,98c-1.1,1.6,1.5,3.1,2.6,1.5c19.7-27.1,34.7-57.4,44.3-89.5c2.3-7.7,4.6-15.6,5.4-23.6
		c0.7-6.5,0.9-15.5-3-21.1c-8.2-11.6-25.2,11.5-29.7,16.8c-5.8,6.8-12,13.6-17.1,21c-5.3,7.8-8,16.9-10.6,25.9
		C1227.5,702.9,1230.4,703.7,1231,701.9L1231,701.9z"/>
	<path id="Path_00000148660365320613448210000011079654195373743294_" class="st0" d="M1225.2,624.3c-3.8,46.6-13.8,92.4-29.7,136.3
		c-0.7,1.8,2.2,2.6,2.9,0.8c16-44.2,26-90.3,29.8-137.1C1228.3,622.4,1225.3,622.4,1225.2,624.3L1225.2,624.3z"/>
	<path id="Path_00000151510839469581753750000009652181792481395350_" class="st0" d="M1198,664.6c5.4,20.3,8.2,41,8.4,62
		c0,1.9,3,1.9,3,0c-0.2-21.2-3-42.3-8.5-62.8C1200.4,661.9,1197.5,662.7,1198,664.6z"/>
	<path id="Path_00000096059958483566508100000017355974074045159315_" class="st0" d="M1211.6,641.9c3.5,13.8,5.2,27.9,5.3,42.1
		c0,1.9,3,1.9,3,0c-0.1-14.5-1.9-28.9-5.4-42.9C1214,639.2,1211.1,640,1211.6,641.9L1211.6,641.9z"/>
	<path id="Path_00000175318201647705911380000014445221503477481145_" class="st0" d="M1203.1,749.8c7.7-6,14.6-12.9,20.6-20.5
		c1.2-1.5-0.9-3.6-2.1-2.1c-6.1,7.7-12.9,14.5-20.6,20.5C1199.5,748.9,1201.6,751,1203.1,749.8z"/>
	<path id="Path_00000073708621367096969530000014632866418137268129_" class="st0" d="M1151,609.9c8.7,36.3,15.5,73,20.2,110
		c0.2,1.9,3.2,1.9,3,0c-4.8-37.3-11.6-74.3-20.3-110.8C1153.5,607.2,1150.6,608,1151,609.9z"/>
	<path id="Path_00000049944348066586271320000000988592271893012657_" class="st0" d="M1139.1,644.3c8.8,5.3,16.3,12.1,22.3,20.5
		c1.1,1.6,3.7,0.1,2.6-1.5c-6.3-8.8-14.1-16-23.3-21.5C1138.9,640.7,1137.4,643.3,1139.1,644.3z"/>
	<path id="Path_00000036238528458065219970000015582490028179989913_" class="st0" d="M1177.4,665.2c-3.6,9-6.5,18.2-8.7,27.7
		c-0.4,1.9,2.4,2.7,2.9,0.8c2.2-9.4,5.1-18.7,8.7-27.7C1181,664.2,1178.1,663.4,1177.4,665.2z"/>
	<path id="Path_00000170988215330967800950000011009792050257664447_" class="st0" d="M1138.9,710.6c11,3.1,21.7,6.7,32.3,10.9
		c1.8,0.7,2.6-2.2,0.8-2.9c-10.6-4.2-21.4-7.8-32.3-10.9C1137.8,707.2,1137,710.1,1138.9,710.6z"/>
	<path id="Path_00000067221051927724504580000013895140850205626787_" class="st0" d="M1279.8,639.2
		c-13.3,46.3-50.1,81.8-61.9,128.7c-0.5,1.9,2.4,2.7,2.9,0.8c11.8-46.9,48.6-82.4,61.9-128.7
		C1283.3,638.1,1280.4,637.3,1279.8,639.2z"/>
	<path id="Path_00000021836072103954074150000007097457022415426985_" class="st0" d="M1253,658.7c-2.5,16.2-5.1,32.4-7.6,48.6
		c-0.3,1.9,2.6,2.7,2.9,0.8c2.5-16.2,5.1-32.4,7.6-48.6C1256.2,657.6,1253.3,656.8,1253,658.7z"/>
	<path id="Path_00000132045832350462979450000003984191442294896554_" class="st0" d="M1256,694.3c8.9-6.4,18.2-12.2,27.9-17.5
		c1.7-0.9,0.2-3.5-1.5-2.6c-9.7,5.2-19,11-27.9,17.5C1252.9,692.9,1254.4,695.5,1256,694.3z"/>
	<path id="Path_00000034057874756951504390000015502844137151541436_" class="st0" d="M1227.3,752.3c9.1-10.7,22.1-16.1,34.9-21.2
		c1.8-0.7,1-3.6-0.8-2.9c-13.2,5.3-26.7,10.9-36.2,22C1223.9,751.7,1226,753.8,1227.3,752.3z"/>
	<path id="Path_00000165222302204415236110000006067302638661505963_" class="st0" d="M1082,761.8c3.7,23.4,0.6,46.9-2.9,70.2
		c-3.4,22.9-6.8,45.9-10.2,68.8c-0.3,1.9,2.6,2.7,2.9,0.8c3.6-24.2,7.3-48.4,10.8-72.6c3.3-22.5,5.9-45.3,2.3-67.9
		C1084.5,759.1,1081.7,759.9,1082,761.8L1082,761.8z"/>
	<path id="Path_00000098190232144228238070000013964218549229728392_" class="st0" d="M1062.5,804.5c3.4,14,8,27.6,13.8,40.8
		c0.8,1.8,3.4,0.2,2.6-1.5c-5.6-13-10.1-26.3-13.5-40.1C1064.9,801.9,1062,802.7,1062.5,804.5L1062.5,804.5z"/>
	<path id="Path_00000044178923170014175070000010607902623770064318_" class="st0" d="M1092.6,776.1c-1.4,9.1-4.7,17.4-9.9,24.9
		c-1.1,1.6,1.5,3.1,2.6,1.5c5.3-7.7,8.8-16.4,10.2-25.7C1095.7,775,1092.8,774.2,1092.6,776.1L1092.6,776.1z"/>
	<path id="Path_00000128462767498874766240000003197583390691836839_" class="st0" d="M1133.9,777.6c-12.3,42.7-28,84.3-46.8,124.6
		c-0.8,1.7,1.8,3.3,2.6,1.5c18.9-40.5,34.7-82.4,47.1-125.3C1137.3,776.6,1134.4,775.8,1133.9,777.6L1133.9,777.6z"/>
	<path id="Path_00000106125851726760917100000013353046522518460039_" class="st0" d="M1126,775.8c-0.4,9.7-0.7,19.3-1.1,29
		c-0.1,1.9,2.9,1.9,3,0c0.4-9.7,0.7-19.3,1.1-29C1129.1,773.9,1126.1,773.9,1126,775.8z"/>
	<path id="Path_00000002386276808377193050000009562381223273706399_" class="st0" d="M1103.8,788.8c-5.4,22.6,0,46.2,3.2,68.8
		c0.3,1.9,3.2,1.1,2.9-0.8c-3.1-22-8.4-45.1-3.2-67.2C1107.2,787.7,1104.3,786.9,1103.8,788.8z"/>
	<path id="Path_00000116206023787718634410000014668265009317433734_" class="st0" d="M1099.4,880.9c9.7-2.4,18.7-6.5,26.8-12.3
		c1.6-1.1,0.1-3.7-1.5-2.6c-7.9,5.6-16.6,9.6-26.1,12C1096.7,878.4,1097.5,881.3,1099.4,880.9z"/>
	<path id="Path_00000092424467932119461080000005027078627097726619_" class="st0" d="M265.9,587.7c10.1,54.6,16.4,109.9,18.7,165.3
		c0.1,1.9,3.1,1.9,3,0c-2.3-55.8-8.6-111.3-18.8-166.1C268.4,585,265.5,585.8,265.9,587.7L265.9,587.7z"/>
	<path id="Path_00000031930175738263727150000016664804665743968159_" class="st0" d="M255,651.1c10.6,13.3,19.1,28,25.3,43.8
		c0.7,1.8,3.6,1,2.9-0.8c-6.4-16.3-15.1-31.4-26-45.1C256,647.5,253.8,649.6,255,651.1z"/>
	<path id="Path_00000160889939314517688060000008252395319754967207_" class="st0" d="M285,614.4c-3.6,14.9-6.3,30-8.2,45.2
		c-0.2,1.9,2.8,1.9,3,0c1.8-14.9,4.5-29.7,8.1-44.4C288.3,613.3,285.4,612.5,285,614.4L285,614.4z"/>
	<path id="Path_00000098211641987967066100000013899329337785340574_" class="st0" d="M316.4,560.7c1.8,65.3-1.4,130.6-9.6,195.4
		c-0.2,1.9,2.8,1.9,3,0c8.2-64.8,11.4-130.1,9.6-195.4C319.3,558.8,316.3,558.8,316.4,560.7z"/>
	<path id="Path_00000083796370334022661540000009773945234718667195_" class="st0" d="M299.6,629.4c7.2,17.1,12.2,35,14.9,53.4
		c0.3,1.9,3.2,1.1,2.9-0.8c-2.7-18.4-7.7-36.3-14.9-53.4C301.7,626.9,298.8,627.6,299.6,629.4z"/>
	<path id="Path_00000146497745111228306780000012800506505561068221_" class="st0" d="M311.1,742.5c4.3-8.4,10-15.7,17-22
		c1.4-1.3-0.7-3.4-2.1-2.1c-7.2,6.4-13.1,14-17.5,22.6C307.6,742.7,310.2,744.2,311.1,742.5z"/>
	<path id="Path_00000178202313820901616400000014509980925491668097_" class="st0" d="M306.8,571.8c2.6,8.3,5.5,16.4,8.7,24.5
		c0.7,1.8,3.6,1,2.9-0.8c-3.3-8-6.2-16.2-8.7-24.5C309.1,569.1,306.2,569.9,306.8,571.8z"/>
	<path id="Path_00000118357515935328802840000013377533843485319059_" class="st0" d="M92,965.8c65.6-6.4,132-4.4,197,6.2
		c18.3,3,36.6,6.7,54.7,11c1.9,0.4,2.7-2.4,0.8-2.9c-64.1-15.3-130-22.3-195.9-20.8c-18.9,0.5-37.8,1.6-56.6,3.5
		C90.1,962.9,90,965.9,92,965.8z"/>
	<path id="Path_00000009561320196894253680000010097774269818774677_" class="st0" d="M680,994.5c0.1-4.3,10.8-5.1,13.4-4.8
		c4.4,0.4,8.6,2.7,11,6.4c7.9,12.2-8.1,17.1-17.3,14.1c-1.8-0.6-2.6,2.3-0.8,2.9c6.4,2.2,14.9,1.9,20.1-3.2
		c4.4-4.3,3.5-11.2,0.2-15.9c-3.7-5.2-9.8-7.8-16.1-7.4c-4.4,0.3-13.4,2.3-13.5,7.9C677,996.4,680,996.4,680,994.5L680,994.5z"/>
	<path id="Path_00000052794302751253286190000002363945559774856381_" class="st0" d="M679.5,992.9c6.4-9,19.8-13.1,29.8-16.3
		c11.1-3.5,22.6-5.6,34.3-6.2c1.9-0.1,1.9-3.1,0-3c-13.1,0.7-26.1,3.1-38.5,7.4c-10,3.5-21.8,7.6-28.2,16.6
		C675.8,993,678.4,994.5,679.5,992.9L679.5,992.9z"/>
	<path id="Path_00000038399357319439820260000011363797983480627860_" class="st0" d="M745.1,970.8c7.7,0.9,13.9,6.9,15.4,14.4
		c0.4,1.9,3.3,1.1,2.9-0.8c-1.8-9-9.3-15.5-18.3-16.6C743.1,967.6,743.2,970.6,745.1,970.8L745.1,970.8z"/>
	<path id="Path_00000160174037260130548330000000829604600909612695_" class="st0" d="M748.8,967.7c11.2-7,22.1,2,24.4,13.3
		c0.4,1.9,3.3,1.1,2.9-0.8c-2.8-13.3-16-23.1-28.8-15.1C745.7,966.2,747.2,968.8,748.8,967.7z"/>
	<path id="Path_00000028298197189610988530000006796054986227566990_" class="st0" d="M761.2,987.3c6.2,2,12.8-1.5,15-7.5
		c0.7-1.8-2.2-2.6-2.9-0.8c-1.6,4.5-6.8,6.9-11.3,5.4C760.1,983.8,759.3,986.7,761.2,987.3L761.2,987.3z"/>
	<path id="Path_00000148638356135807194750000011430144282290390666_" class="st0" d="M679.1,991.4c-5.2,3-4.9,10.1-2.9,15
		c2.2,5.6,7.6,9.3,13.7,7.8c1.9-0.5,1.1-3.3-0.8-2.9c-4.7,1.1-8.5-1.9-10.1-6.1c-1.3-3.4-2.2-9,1.7-11.2
		C682.3,993,680.8,990.4,679.1,991.4L679.1,991.4z"/>
	<path id="Path_00000098914523925609843080000001172905338379018151_" class="st0" d="M680.5,1002.8c-3-8.1,11.6-13,16.7-8.4
		c3.2,2.9,2.4,7.5-1,9.9c-1.5,1.1-3.4,1.9-5.3,1.5c-6.7-1.3-1.2-9,2.1-4.6c1.2,1.5,3.8,0,2.6-1.5c-3.9-5.1-12.5-2.5-10.9,4.4
		c1.7,7.6,12.5,4.9,15.8,0.2c4.6-6.6-0.4-14.6-8-14.7c-7.2-0.1-18.1,5.1-14.8,13.9C678.3,1005.4,681.2,1004.6,680.5,1002.8
		L680.5,1002.8z"/>
	<path id="Path_00000171709192695866935990000002188432766497933731_" class="st0" d="M704.4,1010.6c21-4.5,41-12.2,59.6-22.9
		c1.7-1,0.2-3.6-1.5-2.6c-18.4,10.6-38.2,18.1-58.9,22.6C701.7,1008.1,702.5,1011,704.4,1010.6z"/>
	<path id="Path_00000126317400583945412060000016623834778860701093_" class="st0" d="M760.8,963c17-14.3,34-31.3,55.8-37.8
		c1.8-0.6,1.1-3.4-0.8-2.9c-22.3,6.7-39.7,24-57.1,38.6C757.2,962.1,759.4,964.2,760.8,963L760.8,963z"/>
	<path id="Path_00000109713227884260501110000003911096332089466755_" class="st0" d="M816.4,926.3c11.2,3.8,19.3,13.8,20.5,25.6
		c0.2,1.9,3.2,1.9,3,0c-1.3-13.2-10.1-24.3-22.7-28.5C815.4,922.8,814.6,925.7,816.4,926.3z"/>
	<path id="Path_00000016039453865382008020000012321147780089145244_" class="st0" d="M775.9,982.7c20.5-9.1,40.9-18.6,61.1-28.5
		c1.7-0.8,0.2-3.4-1.5-2.6c-20.2,9.9-40.6,19.3-61.1,28.5C772.6,980.9,774.2,983.5,775.9,982.7z"/>
	<path id="Path_00000003091885138315303900000007024193673731702679_" class="st0" d="M747.9,969.1c0.7-0.5,1.4-0.9,2-1.4
		c0.7-0.5,1-1.3,0.5-2.1c-0.4-0.7-1.4-1-2.1-0.5s-1.4,0.9-2,1.4c-0.7,0.5-1,1.3-0.5,2.1C746.2,969.2,747.2,969.6,747.9,969.1z"/>
	<path id="Path_00000020363675160722060250000001013017200258144668_" class="st0" d="M451.2,944.3c1.9,22.4,6.9,44.3,15,65.2
		c0.7,1.8,3.6,1,2.9-0.8c-8-20.7-13.1-42.3-14.9-64.4C454.1,942.4,451.1,942.4,451.2,944.3L451.2,944.3z"/>
	<path id="Path_00000116930968618688033080000008782363379817586064_" class="st0" d="M446,989.2c6.2,3.2,11.7,7.4,16.6,12.5
		c1.3,1.4,3.4-0.7,2.1-2.1c-5-5.3-10.7-9.6-17.2-12.9C445.8,985.7,444.3,988.3,446,989.2L446,989.2z"/>
	<path id="Path_00000106852395926303308450000006129464341291168188_" class="st0" d="M467.9,974.2c-4.3,6.2-6.2,13.4-5.5,20.9
		c0.2,1.9,3.2,1.9,3,0c-0.6-7,1.1-13.5,5.1-19.4C471.5,974.2,468.9,972.7,467.9,974.2z"/>
	<path id="Path_00000044159355657827638270000008413584852566721702_" class="st0" d="M476.8,965.9c2.9,12.4,3.8,25,2.5,37.7
		c-0.2,1.9,2.8,1.9,3,0c1.2-12.9,0.3-25.8-2.7-38.5C479.3,963.3,476.4,964.1,476.8,965.9z"/>
	<path id="Path_00000167361601419251708270000003333439041868784304_" class="st0" d="M472.4,970.3c2.4,4.6,4.8,9.3,7.2,13.9
		c0.9,1.7,3.5,0.2,2.6-1.5c-2.4-4.6-4.8-9.3-7.2-13.9C474.1,967.1,471.5,968.6,472.4,970.3z"/>
</g>
<circle id="Oval" class="st1" cx="531.6" cy="326.8" r="16.9"/>
<circle id="Oval_00000010268333928506070880000004962475522464064944_" class="st1" cx="1076.2" cy="691.6" r="12.2"/>
<circle id="Oval_00000164510922901634685410000012051014524690579873_" class="st1" cx="1094" cy="675.2" r="5"/>
<circle id="Oval_00000121239250172553973040000015768603960702662279_" class="st1" cx="285.3" cy="368" r="8.6"/>
<circle id="Oval_00000057834676625980316340000004982975350662782339_" class="st1" cx="317.7" cy="385.8" r="9.4"/>
<circle id="Oval_00000090982293079649145610000001575487041009430193_" class="st1" cx="614" cy="599.1" r="5.2"/>
<circle id="Oval_00000008113498462343987480000001388442037523596675_" class="st1" cx="1019.5" cy="104.8" r="9"/>
<circle id="Oval_00000048473378988126081190000007408203005339983265_" class="st1" cx="1059.5" cy="138" r="6.8"/>
<circle id="Oval_00000039854183064524065490000002258182989094657715_" class="st1" cx="1052.5" cy="646.6" r="7"/>
<circle id="Oval_00000132079658579131032910000005663395407753759413_" class="st1" cx="584" cy="109.3" r="4.5"/>
<path id="Path_00000048497789558837650970000003856288789475545494_" class="st1" d="M473.1,489.4c-1.2-1.6,0-4.4,1.5-5.3
	c1.9-1.2,4.5-0.6,6.5-0.1c2.1,0.5,4,1.5,6,2c2.6,0.7,5.5,1,8.1,0c2.8-1.1,4.2-3.3,4.8-6.1c0.6-2.4,0.4-5.4,2.4-7.3
	c1.9-1.9,4.9-2.1,7.4-2.1c6.4,0.1,12.7,3.7,16.2-3.7c1.8-4,2.1-8.4,6.5-10.7c5.3-2.8,11.7-0.4,16.9,1.4c1.8,0.6,2.6-2.2,0.8-2.9
	c-7.9-2.8-19.3-5.4-24.2,3.9c-0.8,1.6-1.3,3.4-1.9,5c-0.6,1.5-1.3,4.1-2.9,4.8c-1.8,0.8-5.1-0.1-7-0.4c-3.7-0.5-7.6-0.9-11.2,0.7
	c-3.6,1.7-4.8,4.6-5.5,8.4c-1.8,10.1-9.8,5.4-16.4,3.8c-3.6-0.9-7.5-0.6-10,2.4c-1.9,2.3-2.4,5.2-0.6,7.6
	C471.6,492.5,474.2,491,473.1,489.4L473.1,489.4z"/>
<path id="Path_00000056421537859753805330000013213580246479356050_" class="st1" d="M496.3,505.6c1-5.8,5.5-9,11.3-8.7
	c3.2,0.1,6.7,1.2,9.9,0.2c2.2-0.7,3.9-2.2,4.8-4.3c2.1-4.6,2.1-8.5,6.6-11.9c3.8-2.9,8.3-3.8,12.9-2.7c2.9,0.7,6,2,9,0.9
	c3.2-1.2,4.7-4.9,7.6-6.8c3.7-2.4,8.2-3.2,12.4-3.9c1.9-0.3,1.1-3.2-0.8-2.9c-3.9,0.7-7.8,1.5-11.3,3.2c-1.6,0.8-3,1.7-4.3,2.9
	c-2.6,2.4-3.7,4.8-8,4.6c-3.7-0.1-6.6-1.9-10.5-1.4c-3.5,0.5-6.8,2-9.5,4.2c-2.5,2.1-4.5,4.8-5.5,8c-1.1,3.3-1.8,7.3-6.3,7.4
	c-2.1,0.1-4.2-0.4-6.3-0.5c-7.3-0.6-13.6,3.4-14.9,10.8C493.1,506.7,495.9,507.5,496.3,505.6L496.3,505.6z"/>
<path id="Path_00000153668501394757169810000005561578188630470052_" class="st1" d="M1023.4,477c6.5,1.2,9.9,9.7,17.3,6.9
	c4.3-1.6,6.9-5.6,11.9-5.7c5.5-0.1,8,4.5,12.7,6c7.8,2.5,14-6.1,21.5-4.7c6.8,1.3,11,9.5,18.6,7.3c1.9-0.5,1.1-3.4-0.8-2.9
	c-6.7,1.9-11.9-7.4-18.8-7.6c-3.1-0.1-6.1,1.2-8.8,2.4c-5.7,2.6-9.3,4.2-14.8,0.1c-5.5-4.2-11.8-4.8-17.7-0.9
	c-1.8,1.2-3.2,2.5-5.3,3.1c-3.1,0.9-5.1-0.7-7.4-2.6c-2.4-1.9-4.6-3.8-7.7-4.4C1022.3,473.7,1021.5,476.6,1023.4,477L1023.4,477z"/>
<path id="Path_00000008140206023964578160000014463395807236114620_" class="st1" d="M1044,467.1c5.1,4.1,11-1.6,16.4,1.8
	c5.1,3.2,8,4.2,13.8,2.2c3.2-1.1,6.4-2.7,9.9-2.2c2.8,0.5,5,2.6,7.9,2.9c2.7,0.3,5-1.2,7.4-2.3c4.8-2.1,9.5-1.9,14,1
	c1.6,1.1,3.1-1.5,1.5-2.6c-4.7-3-10.1-3.8-15.4-1.8c-1.6,0.6-3.5,2.1-5.2,2.4c-2.5,0.4-4.5-0.7-6.7-1.7c-2-0.9-3.9-1.2-6.1-1
	c-2.8,0.3-5.4,1.5-8.1,2.3c-4.3,1.4-7.1,1.2-10.9-1.5c-2.1-1.5-4-2.3-6.6-2.2c-3,0.1-7.1,2.6-9.8,0.5
	C1044.6,463.8,1042.5,465.9,1044,467.1L1044,467.1z"/>
<path id="Path_00000065047223360842394460000013047291163809638799_" class="st0" d="M714.1,556.8c0.4-5.3,6.5-5.1,9.7-3.3
	c1.6,0.9,2.9,2.2,4.2,3.5c2.3,2.2,4.5,4.7,7.4,6.1c5.4,2.4,8.7-0.5,13.2-3.1c14.2-8,24.7,18,39,8.9c0.8-0.5,0.1-1.8-0.8-1.3
	c-9.5,6.1-18.4-5.7-26.3-9.2c-2.6-1.2-5.4-1.9-8.2-1.4c-4.1,0.7-6.8,4.3-10.7,5.3c-9.2,2.5-12.7-10.5-21-11.4c-4-0.5-7.8,1.9-8.1,6
	C712.5,557.8,714,557.8,714.1,556.8L714.1,556.8z"/>
<path id="Path_00000180334538695723719060000016693032757479494317_" class="st0" d="M967.9,614.1c1.8-7.1,7.9-10.8,15-10.2
	c3.6,0.3,6.5,0.2,8.9-2.9c2.8-3.7,2.9-8.7,6.3-12.2c4-4,10.1-5.2,15.5-6.2c0.9-0.2,0.5-1.6-0.4-1.4c-5,0.9-10.4,2-14.5,5.1
	c-3.9,3-4.9,7.1-6.8,11.4c-2.5,5.5-6.3,4.5-11.4,4.6c-2,0-3.9,0.5-5.7,1.3c-4.3,2-7.2,5.7-8.4,10.2
	C966.2,614.7,967.6,615.1,967.9,614.1L967.9,614.1z"/>
<path id="Path_00000014630499312569077300000015330569746018271152_" class="st0" d="M1002.1,608.5c0-5.1,3.1-10,8-11.6
	c3.5-1.2,7.2,0.2,10.7-1c5.6-2,8.4-9,14.7-9.3c1-0.1,1-1.6,0-1.5c-3.1,0.2-5.4,1.6-7.7,3.6c-1.8,1.6-3.4,3.5-5.5,4.7
	c-3.3,2.1-6.3,1.2-9.8,1.5c-7,0.6-12,6.8-12,13.6C1000.6,609.5,1002.1,609.5,1002.1,608.5L1002.1,608.5z"/>
<path id="Path_00000042009984236363285440000010276649041771541667_" class="st2" d="M634,174.9c1.6,4.8,5.1,11.1,11.1,8.1
	c3.6-1.8,5.3-5.7,9.6-6.5c4.8-0.9,9.8,1.5,12.1,5.8c0.6,1.2,2.3,0.8,2.7-0.4c3-8.7,14-9.4,18.4-1.5c0.9,1.7,3.5,0.2,2.6-1.5
	c-5.7-10.4-20-8.9-23.8,2.2c0.9-0.1,1.8-0.2,2.7-0.4c-2.6-4.9-7.8-7.7-13.3-7.4c-2.5,0.1-4.9,0.8-6.9,2.3c-1.3,0.9-2.3,2.6-3.7,3.4
	s-5.8,0.2-7-1c-0.9-0.9-1.3-2.8-1.6-3.9C636.3,172.3,633.4,173.1,634,174.9L634,174.9z"/>
<path id="Path_00000130619887257774351440000000537492775083571102_" class="st2" d="M677.8,161.7c1.9,1.5,3.7,1.5,6,0.8
	c3.1-0.9,5.1-2.8,7.8,0.7c0.9,1.2,1.2,2.8,2.4,3.9c2.2,2.2,5.4,2.5,8.4,2.2c3.5-0.3,13.5-2.7,13,3.8c-0.1,1.9,2.9,1.9,3,0
	c0.7-9.2-11.4-6.9-16.7-6.7c-3.9,0.1-5.7-1.5-7.5-4.7c-0.8-1.4-1.6-2.6-3.1-3.3c-3.4-1.5-8.6,3.1-11.2,1.1
	C678.4,158.4,676.2,160.5,677.8,161.7L677.8,161.7z"/>
<path id="Path_00000120521634663734677370000004420422878277027253_" class="st2" d="M364.4,706.1c-1.1-3.5-0.9-7.1,1-10.2
	c2-3.2,5.1-4.2,8-6.1c3.7-2.5,5.1-5.9,5.7-10.2c0.3-2.3,0.3-4.6,0.9-6.9c1.1-4,3.6-5.8,7.3-7.4c3.4-1.4,6.5-2.6,8.7-5.7
	c1.1-1.6-1.5-3.1-2.6-1.5c-3.2,4.4-9.5,4.3-13.3,8c-3.8,3.8-3.2,9.2-4.1,14c-1.3,7.3-7.9,7.7-12,12.6c-3.3,4-4.1,9.4-2.5,14.2
	C362.1,708.7,365,707.9,364.4,706.1L364.4,706.1z"/>
<path id="Path_00000095333578831809857120000014428367746422429101_" class="st2" d="M365.8,672.9c7.4-4.4,1.2-15.2,8.7-19.4
	c4-2.3,7.6-3.3,10.8-6.9c3.1-3.5,5.1-7.7,7.1-11.9c0.8-1.7-1.8-3.3-2.6-1.5c-2,4.2-4,8.4-7.2,11.8c-3.4,3.7-8,4.1-11.7,7.1
	c-5.5,4.5-1.1,14.8-6.7,18.2C362.6,671.3,364.1,673.8,365.8,672.9L365.8,672.9z"/>
<path id="Path_00000073684540333188134630000011583460391389170108_" class="st2" d="M772.3,547.2c-6.1,0.7-11-4.7-10-10.8
	c1-5.8,6.5-10.3,12.3-10.7c4.7-0.3,10,1.6,12.2,6.1c2.4,4.9,0.2,11.6-4.9,13.5c-1.8,0.7-1,3.6,0.8,2.9c6.1-2.4,9.3-9,7.7-15.4
	c-1.9-7.4-10-11-17.2-10c-7,1-13.4,6.8-14.1,14c-0.7,7.4,5.6,14.1,13.1,13.3C774.2,550,774.2,547,772.3,547.2z"/>
<path id="Path_00000029752480196392487000000014423559390795825813_" class="st3" d="M317.3,877.4c6.3-6.8,15.9-16.3,28.8-26
	c11.1-8.4,20.1-13.5,31.5-19.9c16.3-9.1,36.6-20.2,60.3-32.9c36.4-3.4,67-5.8,89.8-7.5c42.4-3.2,110.5-8.3,188.5-10.3
	c16.1-0.4,31.5-0.7,31.5-0.7c43.6-0.8,54.6-0.1,100.1-0.7c33.4-0.4,33.2-0.8,51.4-0.7c27.4,0.2,49.9,1.2,65.1,2.1
	c9.1,0.7,27.6,2.1,45.9,4.1c3.6,0.4,8.9,1,15.8,2.7c8.3,2.1,14.9,4.8,19.2,6.9c-5.4,8.2-10.9,16.4-16.4,24.7
	c-18.1,26.8-36.5,52.3-54.8,76.8c-2.9,1.8-8.2,4.6-15.1,6.9c-14.7,4.8-27.2,3.7-31.5,3.4c-18-1.3-61.7-0.5-125.4,1.4
	c-28.3-0.7-56.7-1.4-85-2.1c-8.2,12.6-16.4,25.1-24.7,37.7c-54.8-3-109.6-5.9-164.5-8.9c11-12.1,21.9-24.2,32.9-36.3
	C479.5,891.1,398.4,884.2,317.3,877.4L317.3,877.4z"/>
<path id="Path_00000091013250353841464670000017811040682608925347_" class="st2" d="M374.8,859.8c49.4,3.3,98.7,7.1,148,11.5
	c1.9,0.2,1.9-2.8,0-3c-49.3-4.4-98.6-8.2-148-11.5C372.9,856.7,372.9,859.7,374.8,859.8L374.8,859.8z"/>
<path id="Path_00000027583302265918015080000001866099253402509443_" class="st2" d="M755.2,884.7c51.6-0.4,103.3,0.7,154.9,3.3
	c1.9,0.1,1.9-2.9,0-3c-51.6-2.6-103.2-3.7-154.9-3.3C753.3,881.7,753.3,884.7,755.2,884.7z"/>
<path id="Path_00000088101977942619851460000017540994235104500613_" class="st2" d="M464.2,829.5c25,4.4,50.4,3.8,75.7,3.6
	c26.8-0.2,53.6,0.4,80.4,1.3c52.9,1.9,105.8,5.4,158.7,7.6c30.4,1.3,60.9,2.1,91.3,2.1c1.9,0,1.9-3,0-3
	c-106,0.3-211.6-10.9-317.5-11c-29.3,0-58.8,1.7-87.8-3.4C463.2,826.3,462.3,829.2,464.2,829.5z"/>
<path id="Path_00000080903555268564390130000008913693872081384841_" class="st2" d="M705.2,808.1c75.2,0.1,150.4,2.3,225.5,6.6
	c1.9,0.1,1.9-2.9,0-3c-75.1-4.3-150.3-6.5-225.5-6.6C703.3,805.1,703.3,808.1,705.2,808.1z"/>
<path id="Path_00000168833900648893456020000014341254612369074854_" class="st2" d="M1044.2,793.6c-22.2,33.9-45.4,67-69.7,99.3
	c-1.2,1.5,1.4,3,2.6,1.5c24.3-32.3,47.6-65.5,69.7-99.3C1047.9,793.5,1045.3,792,1044.2,793.6z"/>
<path id="Path_00000077301343532070195750000003165945903590104481_" class="st2" d="M343,856.5c30.8-21.3,62-42.7,96.8-57
	c1.8-0.7,1-3.6-0.8-2.9c-35.1,14.4-66.5,35.9-97.6,57.3C339.9,855,341.4,857.6,343,856.5z"/>
<path id="Path_00000173858250031838446850000016546989222512196792_" class="st2" d="M436.9,799.9c79.4-7.3,158.9-12.6,238.5-15.7
	c79.6-3.1,159.3-4.3,239-3.1c22.3,0.3,44.6,0.9,66.8,2.9c21.4,1.9,43.8,4.1,63.8,12.4c1.8,0.7,2.6-2.2,0.8-2.9
	c-17-7.1-35.7-9.4-53.9-11.4c-19.9-2.2-39.9-3.2-59.9-3.7c-39.9-1-79.9-0.9-119.8-0.5c-80,0.7-160,3.6-239.9,8.6
	c-45.2,2.8-90.4,6.3-135.5,10.5C434.9,797.1,434.9,800.1,436.9,799.9L436.9,799.9z"/>
<path id="Path_00000078030842734885028410000016098095772331558805_" class="st2" d="M719,907.2c74.5,2.5,149,2.6,223.4-0.2
	c12.8-0.5,27.1-2,35-13.4c1.1-1.6-1.5-3.1-2.6-1.5c-7.9,11.3-23.2,11.6-35.6,12c-17.1,0.5-34.2,1.2-51.4,1.5c-36,0.7-72,0.7-108,0.1
	c-20.3-0.3-40.6-0.9-60.9-1.5C717.1,904.1,717.1,907.1,719,907.2L719,907.2z"/>
<path id="Path_00000124839857779328384820000001561452658674855560_" class="st2" d="M341.5,853.8c-8.8,7.7-17.6,15.4-26.4,23.1
	c-1.1,0.9-0.1,2.5,1.1,2.6c80.9,7,161.8,14,242.7,19.4c1.9,0.1,1.9-2.9,0-3c-81-5.5-161.9-12.4-242.7-19.4c0.4,0.9,0.7,1.7,1.1,2.6
	c8.8-7.7,17.6-15.4,26.4-23.1C345,854.6,342.9,852.5,341.5,853.8L341.5,853.8z"/>
<path id="Path_00000115511601145711648510000007758468529204056735_" class="st2" d="M592.9,866.8c-23.3,20.5-45.2,42.4-65.6,65.7
	c-1.3,1.4,0.8,3.6,2.1,2.1c20.4-23.3,42.4-45.3,65.6-65.7C596.5,867.6,594.4,865.5,592.9,866.8L592.9,866.8z"/>
<path id="Path_00000083795642895973089030000004438770797425108873_" class="st2" d="M594,868.9c48.7-4.7,97.7-3.5,146.1,3.7
	c1.9,0.3,2.7-2.6,0.8-2.9c-48.6-7.3-97.9-8.6-146.9-3.8C592.1,866.1,592.1,869.1,594,868.9L594,868.9z"/>
<path id="Path_00000154412378062494920450000002685162446009423009_" class="st2" d="M738.6,871.6c-16.4,23.5-32.9,47-49.3,70.5
	c-1.1,1.6,1.5,3.1,2.6,1.5c16.4-23.5,32.9-47,49.3-70.5C742.3,871.5,739.7,870,738.6,871.6L738.6,871.6z"/>
<path id="Path_00000119088367766911771930000009479601967208172179_" class="st2" d="M527.7,936c54,2.7,108.1,5.3,162.1,8
	c1.9,0.1,1.9-2.9,0-3c-54-2.7-108.1-5.3-162.1-8C525.8,932.9,525.8,935.9,527.7,936z"/>
<path id="Path_00000158708674058059177750000004006288275975996568_" class="st2" d="M569.6,917.2c8.4,1.5,16.7,2.9,25.1,4.4
	c1.9,0.3,2.7-2.6,0.8-2.9c-8.4-1.5-16.7-2.9-25.1-4.4C568.5,914,567.7,916.9,569.6,917.2z"/>
<path id="Path_00000070826729904066127040000011346500763718985119_" class="st2" d="M589.1,908c-5.1,5.3-9.9,10.9-14.4,16.8
	c-1.2,1.5,1.4,3,2.6,1.5c4.4-5.6,9-11,14-16.2C592.5,908.8,590.4,906.6,589.1,908L589.1,908z"/>
<path id="Path_00000165227282116376116220000008975627898485161612_" class="st2" d="M603.2,909.5c0.1-5.2,4-8.6,9.1-8.5
	c2.5,0,4.8,0.8,7.3,0.4c4.6-0.7,8.6-3.6,10.7-7.6c1.5-2.7,1.9-5.8,4.2-8c2.5-2.4,6-3.5,9.4-3.8c3.1-0.3,6.5-0.1,9.5,1
	c2.5,1,5.1,2.9,5.2,5.9c0.1,2.3-1.3,4.7-3.9,4.8c0.1,1,0.3,2,0.4,2.9c2.7-0.4,5.7,2.5,6.5,4.8c0.4,1.1,0.5,2.5,0.4,3.6
	c-0.1,2.6-1.4,5.3-3.1,7.3c-1.7,2-3.9,3.6-6.4,4.3c-2.2,0.6-2.6,0.7-4.2-1.1c-1.8-2.1-1-2.5,0.9-4.1c8.6-7.2,15.7,2.2,24.5,2.5
	c6,0.2,11.7-3.5,12.9-9.6c0.6-3-0.3-5.7-1.8-8.4c-1.7-3-2.7-3.6-2-7.3c-0.5-2.2,0.2-3.3,2.1-3.3c1.1-0.5,2.1-0.5,3.1,0.2
	c2.4,0.7,3.8,2.3,5.3,4.3c1.1,1.5,3.7,0.1,2.6-1.5c-3.1-4.3-8.5-8.4-13.9-5.2c-5.1,3-3.3,8.3-0.8,12.4c2.6,4.4,4.4,9-0.2,13
	c-5.2,4.5-11.1,1.5-16.2-1c-5.2-2.5-11-2.8-16,0.5c-3,1.9-7.4,6.9-4.1,10.5c3.6,3.8,11.1,0.6,14.3-2c4.1-3.3,6.8-8.8,6-14.2
	c-0.9-5.4-5.1-9.6-10.6-8.7c-1.7,0.3-1.3,3,0.4,2.9c6.1-0.1,8.7-7.5,5.5-12.2c-4.4-6.5-15.4-6.6-22-4.2c-3.3,1.2-6.2,3.3-8,6.4
	c-1.3,2.2-1.7,4.9-3.1,7c-2.2,3.2-6.1,5.1-10,5.1c-4.6-0.1-8.2-1.4-12.2,1.6c-3.1,2.3-4.6,5.7-4.6,9.4
	C600.2,911.5,603.2,911.5,603.2,909.5L603.2,909.5z"/>
<path id="Path_00000131366390573142219660000012790900159336029832_" class="st1" d="M763,346.6c-0.2,23.9-0.5,47.7-0.7,71.6
	c56.2-1.6,112.4-3.3,168.5-4.9c11.5,8.9,22.9,17.8,34.4,26.7c-3-17.6-6.1-35.1-9.1-52.7c-0.9-14.5-1.9-29-2.8-43.5
	C889.9,344.7,826.4,345.7,763,346.6L763,346.6z"/>
<path id="Path_00000170263687461876500760000014088679517474789290_" class="st1" d="M756.9,169.2c-1.9,34.6-3.8,69.1-5.6,103.7
	c-9.9,12.3-19.8,24.7-29.7,37c11.8-3.2,23.6-6.4,35.4-9.6c70.2-2.4,140.4-4.8,210.6-7.2c-1.9-41.5-3.8-83.1-5.6-124.6
	C893.5,168.7,825.2,168.9,756.9,169.2L756.9,169.2z"/>
<path id="Path_00000073694624144741509000000016072203509379730340_" class="st3" d="M874.8,215.2c1.4,24.9,19.3,45.4,43.8,50
	c1.9,0.3,2.7-2.5,0.8-2.9c-23.2-4.3-40.3-23.5-41.6-47.1C877.6,213.2,874.6,213.2,874.8,215.2L874.8,215.2z"/>
<path id="Path_00000155851327297083070190000001311343539404323220_" class="st3" d="M919.3,265.1c9.6,0.7,18.2-13.4,21.7-20.8
	c4.6-10,6-21,3.9-31.7c-0.4-1.9-3.3-1.1-2.9,0.8c1.8,9.3,0.8,18.8-2.8,27.6c-1.8,4.3-4.1,8.4-7.1,12c-2.9,3.6-7.7,9.5-12.8,9.1
	C917.4,261.9,917.4,264.9,919.3,265.1L919.3,265.1z"/>
<path id="Path_00000081633711969702628050000009208384505903317414_" class="st3" d="M927.7,262c4,4.9,9.4,8.3,15.5,10
	c1.9,0.5,2.7-2.4,0.8-2.9c-5.7-1.6-10.5-4.7-14.2-9.2C928.6,258.4,926.5,260.6,927.7,262L927.7,262z"/>
<path id="Path_00000021088088617841717880000007936941074981724851_" class="st3" d="M940.3,242.7c1.2,1.9,2.5,3.7,4,5.4
	c1.4,1.5,3.9,2.8,5.1,4.4c3.5,4.7-3.2,13.8-6.1,17.4c-1.2,1.5,1.4,3,2.6,1.5c3.3-4.3,7.9-11.5,7.7-17.3c-0.1-1.6-0.7-2.5-1.8-3.6
	c-3.2-3.4-6.4-5.3-9-9.4C941.8,239.5,939.2,241,940.3,242.7L940.3,242.7z"/>
<path id="Path_00000157271906976131769410000011425576986048549534_" class="st3" d="M938.4,245.7c-0.5,4.8-1.7,9.4-3.8,13.8
	c-0.3,0.7-1,1.6-1.2,2.3c-0.5,1.8,0.8-1.1,1.1-1.5c1.2-2.1,2.2-4.3,3.2-6.4c-0.9-0.4-1.8-0.8-2.7-1.2c-0.9,2.9-2.4,5.1-4.8,7.1
	c0.8,0.6,1.6,1.2,2.4,1.8c2.1-3.5,4.1-7,6.2-10.6c1-1.7-1.5-3-2.6-1.5c-2.2,3-4.4,6-6.6,8.9c-1,1.4,1.2,3.1,2.4,1.8
	c2.4-2.8,4.2-5.8,5.4-9.2c0.7-1.8-2.2-2.6-2.9-0.8c-1.1,3-2.6,5.5-4.7,7.9c0.8,0.6,1.6,1.2,2.4,1.8c2.2-3,4.4-6,6.6-8.9
	c-0.9-0.5-1.7-1-2.6-1.5c-2.1,3.5-4.1,7-6.2,10.6c-0.9,1.6,1.1,2.8,2.4,1.8c2.8-2.2,4.6-5,5.6-8.4c0.5-1.6-2-2.7-2.7-1.2
	c-1.1,2.1-2.2,4.3-3.2,6.4c-0.6,1.2-1.6,2.7-1.4,4.1c0.1,1.7,1.8,3.2,3.6,2.6c2.4-0.8,3.6-5.2,4.4-7.3c1.6-4,2.5-8.2,3-12.5
	C941.6,243.8,938.6,243.8,938.4,245.7L938.4,245.7z"/>
<path id="Path_00000180358710825581551250000006916559002716849596_" class="st3" d="M910.6,260.6c-8.3-1.3-15.3,4.1-20.9,9.7
	c-6.2,6.2-10.8,13.7-12.4,22.3c-0.4,1.9,2.5,2.7,2.9,0.8c1.3-7.1,4.7-13.3,9.5-18.7c4.8-5.5,12.2-12.5,20.1-11.2
	C911.7,263.8,912.5,260.9,910.6,260.6L910.6,260.6z"/>
<path id="Path_00000129908658047669863690000005252367556511641739_" class="st3" d="M900.6,218.7c3.1,8.1,6.6,16.1,10.3,23.9
	c0.6,1.2,2.4,0.8,2.7-0.4c0.9-3.6,1.3-7.1,1.1-10.8c-0.1-1.9-3.1-1.9-3,0c0.2,3.4-0.1,6.7-1,10c0.9-0.1,1.8-0.2,2.7-0.4
	c-3.6-7.6-7-15.3-10-23.2C902.8,216.1,899.9,216.9,900.6,218.7L900.6,218.7z"/>
<path id="Path_00000107588952478097027900000010487579077616257724_" class="st3" d="M886.7,229.6c-0.7-1.3,0.6-2.7,1.8-3.1
	c1.8-0.6,3.7,0.1,5.5,0.6c1.8,0.6,2.6-2.3,0.8-2.9c-2.9-0.9-6.4-1.6-9,0.4c-2,1.6-2.9,4.2-1.6,6.5
	C885,232.8,887.6,231.3,886.7,229.6L886.7,229.6z"/>
<path id="Path_00000098923491128153249130000013894436352747708052_" class="st3" d="M918.1,222.8c1-4.4,5.9-6.3,9.4-3.1
	c1.4,1.3,3.6-0.8,2.1-2.1c-5-4.6-12.9-2.3-14.4,4.4C914.8,223.9,917.7,224.7,918.1,222.8L918.1,222.8z"/>
<path id="Path_00000170246515144400221880000014128093944753362575_" class="st3" d="M924.5,226.1c-0.1,0.1-0.3,0.3-0.4,0.4
	c-0.6,0.6-0.6,1.5,0,2.1c0.6,0.6,1.5,0.6,2.1,0c0.1-0.1,0.3-0.3,0.4-0.4c0.6-0.6,0.6-1.5,0-2.1C926,225.5,925.1,225.5,924.5,226.1z"
	/>
<path id="Path_00000115472356090558646220000003470860973611627908_" class="st3" d="M931.2,223.3c0.1,0.3,0.3,0.5,0.4,0.8
	c0.4,0.7,1.4,0.9,2.1,0.5c0.7-0.4,0.9-1.3,0.5-2.1c-0.1-0.3-0.3-0.5-0.4-0.8c-0.4-0.7-1.4-0.9-2.1-0.5
	C931,221.6,930.8,222.5,931.2,223.3z"/>
<path id="Path_00000120557806045599908470000012721587427948724104_" class="st3" d="M930.3,230.1c0.1,0.1,0.3,0.3,0.4,0.4
	c0.6,0.6,1.5,0.6,2.1,0c0.6-0.6,0.6-1.5,0-2.1c-0.1-0.1-0.3-0.3-0.4-0.4c-0.6-0.6-1.5-0.6-2.1,0
	C929.7,228.6,929.7,229.5,930.3,230.1z"/>
<path id="Path_00000026156396839160558950000002504789287196462471_" class="st3" d="M889,236.8v0.4c0,0.8,0.7,1.5,1.5,1.5
	s1.5-0.7,1.5-1.5c0-0.1,0-0.3,0-0.4c0-0.8-0.7-1.5-1.5-1.5C889.6,235.3,889,235.9,889,236.8z"/>
<path id="Path_00000104677497138305298580000012205663641049834635_" class="st3" d="M895.8,234c-0.5,0-0.9,0-1.4,0
	c0.6,0.5,1.5,0.6,2.1,0s0.6-1.6,0-2.1c-0.9-0.8-2-0.8-2.9,0c-0.6,0.5-0.5,1.6,0,2.1C894.3,234.6,895.2,234.5,895.8,234L895.8,234z"
	/>
<path id="Path_00000128474348241337976020000000031040885741102234_" class="st3" d="M897.4,239.1c0-0.1,0-0.3,0-0.4
	c0-0.8-0.7-1.5-1.5-1.5c-0.8,0-1.5,0.7-1.5,1.5v0.4c0,0.8,0.7,1.5,1.5,1.5C896.7,240.5,897.4,239.9,897.4,239.1z"/>
<path id="Path_00000181778475757190030640000016329860785353989260_" class="st3" d="M890.1,212.2c-2.5-1.6-5.7-0.8-7.5,1.5
	c-0.5,0.6-0.1,1.7,0.5,2.1c0.8,0.5,1.6,0.1,2.1-0.5c0.8-1,2.3-1.1,3.3-0.4C890.3,215.8,891.8,213.2,890.1,212.2L890.1,212.2z"/>
<path id="Path_00000120520892474939902010000011974289956956954520_" class="st3" d="M914,208.8c1.2-0.5,2.5-0.8,3.9-0.9
	c1.9-0.1,1.9-3.1,0-3c-1.9,0.1-3.7,0.5-5.4,1.3c-0.7,0.3-0.9,1.4-0.5,2.1S913.2,209.1,914,208.8L914,208.8z"/>
<path id="Path_00000169541729479229739630000011245107232634435456_" class="st3" d="M914.7,250.8c4.4,0.4,8.5-2.5,9.9-6.7
	c0.6-1.8-2.3-2.6-2.9-0.8c-1,3-3.9,4.8-7,4.5C912.8,247.6,912.8,250.6,914.7,250.8z"/>
<path id="Path_00000012447310243619517660000010496070061861562530_" class="st3" d="M953.3,254.4c3.3-0.2,6.4,0.5,9.3,2.1
	c1.7,0.9,3.2-1.7,1.5-2.6c-3.4-1.8-7-2.7-10.8-2.5C951.4,251.5,951.4,254.5,953.3,254.4z"/>
<path id="Path_00000010273812468173986160000011279480527587566228_" class="st3" d="M879.3,182.4c-8.4,3.8-14.9,11.2-17.2,20.2
	c-1.4,5.5-0.4,10.9-0.6,16.5c-0.3,6.3-3.2,11.9-5.1,17.8c-5.5,17.1,3.9,35.9,21.3,41.1c1.9,0.5,2.6-2.3,0.8-2.9
	c-8.3-2.5-15-8.6-18.5-16.5c-3.8-8.7-2.3-16.9,0.9-25.5c1.4-3.7,2.8-7.4,3.3-11.4c0.6-4.8-0.4-9.6,0.1-14.4
	c0.9-9.9,7.6-18.3,16.5-22.3C882.5,184.2,881,181.7,879.3,182.4L879.3,182.4z"/>
<path id="Path_00000072978739666348251730000009445588299137801139_" class="st3" d="M877,215c10.7-5,18.7-13.7,22.9-24.7
	c0.7-1.8-2.2-2.6-2.9-0.8c-3.9,10.2-11.6,18.3-21.5,22.9C873.7,213.2,875.3,215.8,877,215z"/>
<path id="Path_00000032649837208676923250000007235473095668620963_" class="st3" d="M901.2,189.7c3.3,5.8,10.2,8.4,16.3,10.4
	c7.7,2.6,15.8,3.7,23.9,3.6c1.9,0,1.9-3,0-3c-6.7,0.1-13.3-0.7-19.7-2.5c-6.2-1.7-14.5-4.1-17.9-10.1
	C902.9,186.5,900.3,188,901.2,189.7L901.2,189.7z"/>
<path id="Path_00000085952088238377341320000010380886490345298589_" class="st3" d="M942.1,205.4c2.3-4.1,8.2-3.6,9.6,1.1
	c1.4,4.6-2.4,8.4-6.8,8.9c-1.9,0.2-1.9,3.2,0,3c6.7-0.8,12.3-7.1,9.2-13.9c-2.9-6.2-11.3-6.3-14.6-0.5
	C938.6,205.5,941.1,207,942.1,205.4L942.1,205.4z"/>
<path id="Path_00000164485670781367304740000008525005844634196927_" class="st3" d="M944,216.5c-2.2,12.8-0.9,30.1,10.1,38.8
	c1.5,1.2,3.6-0.9,2.1-2.1c-10-7.9-11.4-24-9.3-35.8C947.3,215.4,944.4,214.6,944,216.5L944,216.5z"/>
<path id="Path_00000048494629597934079910000003336742261833006266_" class="st3" d="M878.8,185.8c6.6-3.4,13.6-7.1,21.2-7
	c6.5,0.1,11.9,3.1,18.5,1.9c6.9-1.2,13.2-4.4,20.4-4.8c7.4-0.4,15.4,0.8,20.6,6.5c1.3,1.4,3.4-0.7,2.1-2.1
	c-10.1-11-26.3-7.3-38.8-3.7c-5,1.5-9.4,1.9-14.5,0.6c-3.6-0.9-6.9-1.6-10.7-1.3c-7.2,0.7-13.9,4-20.2,7.3
	C875.6,184.1,877.1,186.7,878.8,185.8z"/>
<path id="Path_00000000212495588239878450000016970983573511920269_" class="st3" d="M877.7,275.4c-0.3,0.1-0.7,0.2-1,0.2
	c-1.6,0.4-1.3,2.4,0,2.9c2.4,1,4.9,1.3,7.5,1c1.9-0.2,1.9-3.2,0-3c-2.3,0.3-4.5,0-6.7-0.9v2.9c0.3-0.1,0.7-0.2,1-0.2
	C880.3,277.9,879.5,275,877.7,275.4z"/>
<path id="Path_00000042710738914907759610000018326625060723979414_" class="st3" d="M774.9,205.7c1.5,2.3,5.1,1.8,5.6-1
	c0.2-0.9-1.2-1.3-1.4-0.4c-0.3,1.4-2,1.9-2.9,0.7C775.7,204.2,774.4,204.9,774.9,205.7L774.9,205.7z"/>
<path id="Path_00000161610270757215620090000003606689126443430318_" class="st3" d="M786.4,204.6c0.6,1,1.3,2.1,2.6,2.3
	c1.1,0.2,2.1-0.3,2.5-1.4c0.3-0.9-1.1-1.3-1.4-0.4c-0.2,0.4-0.8,0.3-1.1,0.1c-0.5-0.3-0.8-0.9-1.1-1.5
	C787.2,203,785.9,203.7,786.4,204.6L786.4,204.6z"/>
<path id="Path_00000132799665713587562110000000559729967313334456_" class="st3" d="M783.2,207.3c0.1,0.2,0.2,0.4,0.3,0.6v-0.1
	c-0.1,0.2-0.1,0.4-0.2,0.5c0,0,0-0.1,0.1-0.1c-0.2,0.1-0.4,0.1-0.5,0.2h0.1c-0.2-0.1-0.4-0.2-0.6-0.4c-0.2-0.3-0.3,0.3-0.3,0.5
	c0,0.4,0.1,0.9,0.1,1.3c0,0.4,0,0.8-0.2,1.1c-0.1,0.2-0.5,0.5-0.7,0.3c-0.7-0.6-1.8,0.4-1.1,1.1c0.7,0.6,1.5,0.6,2.3,0.1
	s1.1-1.4,1.1-2.4c0-0.7-0.1-1.2,0.1-1.8c0.1-0.4,0.1-0.7-0.1-1c-0.6-0.8-1.5-0.2-1.6,0.6c0,0.2,0.2,0.5,0.4,0.6h0.1
	C783.3,209.1,784.1,207.8,783.2,207.3L783.2,207.3z"/>
<path id="Path_00000155132470441955578790000018222304049369885630_" class="st3" d="M782.5,207.9c0.3,1.4-0.1,2.9,1,4.1
	c0.8,0.9,2,1.1,3,0.3c0.7-0.6-0.3-1.7-1.1-1.1c-0.6,0.5-1.2-1-1.2-1.3c-0.1-0.8-0.1-1.6-0.2-2.4C783.7,206.6,782.3,207,782.5,207.9
	L782.5,207.9z"/>
<path id="Path_00000007409672789061057600000002885924150066134914_" class="st3" d="M776.7,200.8h2.2c1,0,1-1.5,0-1.5
	c-0.7,0-1.5,0-2.2,0C775.7,199.3,775.7,200.8,776.7,200.8z"/>
<path id="Path_00000160177446899034880120000001741461332246348928_" class="st3" d="M787.6,201.1c0.7,0,1.3,0.1,1.9,0.5
	c0.8,0.5,1.6-0.8,0.8-1.3s-1.7-0.7-2.6-0.7C786.6,199.6,786.6,201.1,787.6,201.1L787.6,201.1z"/>
<path id="Path_00000071559987209507381520000012389158996694700963_" class="st3" d="M782.6,217.9c-9.8,0.6-8.9-9.8-11.2-16.2
	c-0.6-1.9-1.7-3.5-2.4-5.4c-2.6-7.4,3.1-2.2,5,0.5c0.6,0.8,1.9,0,1.3-0.8c-1.1-1.6-5.1-7.5-7.5-6.8c-2.5,0.7-0.9,6-0.3,7.5
	c1.1,3,2.6,5.4,3.2,8.6c0.5,2.9,0.6,5.9,2.1,8.5c2,3.6,5.6,5.8,9.7,5.5C783.5,219.4,783.5,217.9,782.6,217.9L782.6,217.9z"/>
<path id="Path_00000049938321010171083790000004358192904440103326_" class="st3" d="M775.7,197.3c4.8-2.6,9.8-2.8,14.7-0.5
	c0.4,0.2,0.8,0.1,1-0.3c1.3-2.4,2.9-4.2,5.1-5.8c-0.4-0.2-0.9-0.4-1.3-0.5c0.2,5.5,0.4,11.3-0.5,16.7c-1.3,7.6-6.3,10.4-13.5,11.3
	c-0.9,0.1-1,1.6,0,1.5c5.9-0.8,11.3-2.2,13.8-8.1c2.7-6.4,2-14.6,1.7-21.4c0-0.7-0.8-0.9-1.3-0.5c-1.4,1.1-3,4-4.5,4.8
	c-1.7,0.9-3.7-0.4-5.6-0.6c-3.7-0.4-7.2,0.5-10.5,2.2C774.1,196.5,774.8,197.8,775.7,197.3L775.7,197.3z"/>
<path id="Path_00000058571954385779855780000018250411289884533409_" class="st3" d="M774.9,215.5c-2.7,4.4-1.7,9.7-0.9,14.6
	c1.2,7.5,3.4,14.8,5.6,22c0.3,0.9,1.7,0.5,1.4-0.4c-1.6-5.4-3.3-10.9-4.5-16.4c-1.3-5.7-3.6-13.7-0.3-19
	C776.7,215.5,775.4,214.7,774.9,215.5L774.9,215.5z"/>
<path id="Path_00000091717331458750117950000007485123616079217586_" class="st3" d="M779.5,251.5c-1.9,0.3-8,2.3-6.1,5.3
	c0.7,1.1,2.2,1.3,3.4,1.4c2.3,0.2,4.6-0.2,6.8-0.9c0.9-0.3,0.5-1.7-0.4-1.4c-2,0.6-5.2,1.6-7.3,0.8c-0.4-0.2-1.2-0.9-1-1.4
	c0.1-0.3,1-0.7,1.4-0.9c1.2-0.6,2.4-1.1,3.7-1.3C780.9,252.7,780.5,251.3,779.5,251.5L779.5,251.5z"/>
<path id="Path_00000156582344191754773390000017290336205830643126_" class="st3" d="M783.9,228.3c0.7,8.2,1.6,16.3,2.8,24.5
	c0.1,1,1.6,0.5,1.4-0.4c-1.2-8-2.1-16-2.8-24.1C785.4,227.3,783.9,227.3,783.9,228.3z"/>
<path id="Path_00000017515973764192290780000013831081964588387207_" class="st3" d="M787.3,252.2c-2.2,0.3-6.1,2.2-4.1,5.1
	c2.2,3.1,8.4,0.5,11-0.5c0.9-0.3,0.5-1.8-0.4-1.4c-1.7,0.7-3.4,1.3-5.2,1.6c-0.8,0.1-2.3,0.4-3.1,0c-1.3-1.5-1.2-2.5,0.3-2.9
	c0.5-0.2,1-0.3,1.5-0.3C788.2,253.6,788.2,252.1,787.3,252.2L787.3,252.2z"/>
<path id="Path_00000118375820950352440790000017223280199560218248_" class="st3" d="M794.5,211.6c4,2.4,4.9,6.5,6.7,10.5
	c1.3,2.9,2.9,4.9,5.3,7c3.5,3,6.7,5.3,8,10.1c1.3,5,0.2,10.2-1.2,15c-0.3,0.9,1.2,1.3,1.4,0.4c2.4-8.3,3.3-17.4-3.7-23.8
	c-1.6-1.5-3.5-2.7-5-4.2c-2.2-2.3-3.3-4.9-4.4-7.8c-1.4-3.5-2.9-6.5-6.2-8.5C794.4,209.8,793.7,211.1,794.5,211.6L794.5,211.6z"/>
<path id="Path_00000062907377306954402490000004644435148376258464_" class="st3" d="M806.5,236.7c-3.3-0.5-6,2.3-7,5.4
	c-1.4,4.2,2.2,8.4,4.6,11.4c0.2-0.4,0.4-0.9,0.5-1.3c-3.2,0.3-5.8,1.3-8.4,3.2c-0.3,0.2-0.5,0.7-0.3,1c2.5,3.2,8.2,1.8,11.7,1.8
	c3.7-0.1,7.4-0.4,7.3-5.1c0-1-1.5-1-1.5,0c0.1,4.8-9.4,3.7-12,3.7c-0.6,0-1.1,0-1.7,0c-1.9-0.3-2.3-0.7-1.2-1.2
	c0.5-1.3,5-1.8,6.1-1.9c0.7-0.1,0.9-0.8,0.5-1.3c-1.3-1.7-3.1-3.7-3.8-5.8c-1-2.7,0.2-9.2,4.8-8.5
	C807.1,238.3,807.5,236.9,806.5,236.7L806.5,236.7z"/>
<path id="Path_00000096746069015714129740000002236741735042408365_" class="st3" d="M793.1,243.6c0.4,4,0.6,8,0.7,12
	c0,1,1.5,1,1.5,0c-0.1-4-0.3-8-0.7-12C794.5,242.7,793,242.7,793.1,243.6z"/>
<path id="Path_00000026852991159618182300000010717813499370958237_" class="st3" d="M794.7,252.8c3.1,1.5,6.4,1.8,9.6,0.8
	c0.9-0.3,0.5-1.7-0.4-1.4c-2.9,0.8-5.8,0.6-8.5-0.7C794.6,251.1,793.8,252.4,794.7,252.8L794.7,252.8z"/>
<path id="Path_00000175312207812304649590000003866541636083741095_" class="st3" d="M815.8,247.9c2.8-1.9,4.8-4.4,5.5-7.8
	c1.1-5.4-2.3-10.4,0.1-15.7c1.9-4.1,5.1-7.2,6-11.7c1-5.1-1-10.3,0.2-15.4c0.3-1.2,0.7-2.8,1.6-3.8c0.9-2,2.3-1.5,4,1.6
	c-0.2,0.5-0.4,1-0.6,1.5c-0.3,2.5-2.2,5.1-2.7,7.7c-0.4,2.3-0.2,4.6-0.5,6.9c-0.4,3.3-2,5.9-3.5,8.9c-2.1,4.3-1.7,8.1-1.5,12.8
	c0.3,7.1-2.5,13-8.9,16.4c-0.9,0.5-0.1,1.8,0.8,1.3c4.2-2.3,7.5-5.8,8.9-10.4c2.2-7-0.8-13.7,2.7-20.6c1.3-2.7,2.6-5,3-8
	c0.5-3.5,0.2-6.5,1.3-10c0.8-2.5,5.3-9.3,1.9-11.7c-2.2-1.5-5.1,1.1-6.2,2.7c-3,4.2-2.1,9.6-1.9,14.5c0.2,4.5-0.6,8-3,11.8
	c-1.3,2-2.7,4-3.5,6.3c-2.7,7.8,4.3,15.5-4.4,21.5C814.3,247.2,815,248.5,815.8,247.9z"/>
<path id="Path_00000087387112101217257960000010771660719078108546_" class="st3" d="M849.7,274c-3.5-0.7-6.6,0.4-9.4,2.6
	c-2,1.5-4.6,3.7-4.2,6.5c1.2,7.3,12.7,3,16.3,0.6c1.6-1.1,0.1-3.7-1.5-2.6c-1.5,1-3,1.8-4.7,2.3c-1.1,0.3-2.2,0.6-3.3,0.6
	c-1.5,0.1-2.1,0.2-2.9-1.3s-0.4-1.5,0.7-2.6c0.7-0.7,1.4-1.2,2.2-1.8c1.8-1.2,3.8-1.9,6-1.5C850.8,277.3,851.6,274.4,849.7,274z"/>
<path id="Path_00000010282457240974868600000007991833933141816253_" class="st3" d="M846.7,273.1c-0.6-4.5-1.9-8.8-4.2-12.8
	c-1.5-2.6-4.8-8.3-8.3-8.7c-7.6-0.9,0.6,19,1.9,21.7c0.9,1.7,3.4,0.2,2.6-1.5c-1.5-3.1-2.7-6.2-3.5-9.5c-0.4-1.7-1.2-4.2-1-5.8
	c0-0.5-0.1-0.9-0.1-1.4c0.8,0.4,1.5,1,2.1,1.7c4.2,4.3,6.7,10.4,7.5,16.3C844,274.9,847,275,846.7,273.1z"/>
<path id="Path_00000031901006079212956910000007784430873086364807_" class="st3" d="M838.8,271.7c-2.2-4.2-11.3-18.4-17.5-12.9
	c-6.2,5.5,4.9,17.4,8.8,21c1.4,1.3,3.5-0.8,2.1-2.1c-2.1-2-4.1-4.1-5.7-6.4c-0.9-1.3-5.3-7.8-3.8-9.2l3.6-0.6c0.9,0.6,1.7,1.3,2.5,2
	c0.9,0.8,1.8,1.8,2.7,2.7c1.9,2.1,3.4,4.5,4.7,7C837.1,275,839.7,273.5,838.8,271.7L838.8,271.7z"/>
<path id="Path_00000009553008960596582090000013777373243980303781_" class="st3" d="M829.9,278.6c-3.4-2.8-8.4,0-8.1,4.3
	c0.4,5.8,6.9,7,11.4,5.7c1.9-0.5,1.1-3.4-0.8-2.9c-2.4,0.7-5.7,0.9-7.2-1.7c-0.6-1-0.7-2.2,0.2-3c0.6-0.6,1.7-0.9,2.4-0.3
	C829.2,282,831.3,279.9,829.9,278.6z"/>
<path id="Path_00000031896208949493933030000001903134817101425068_" class="st3" d="M823.4,282.9c-4.2,1.3-4.2,6.3-1.8,9.3
	c2.4,3,7,5,10.4,2.4c1.5-1.2-0.6-3.3-2.1-2.1c-1.6,1.2-4.2-0.4-5.3-1.5c-1.2-1.2-2.8-4.4-0.3-5.2
	C826.1,285.2,825.3,282.3,823.4,282.9L823.4,282.9z"/>
<path id="Path_00000170265994289247278250000004064517875077712020_" class="st3" d="M848,274.2c7.3,0,9.5,13.7,8.1,18.8
	c-0.5,1.9,2.4,2.7,2.9,0.8c2-7.2-1.4-22.6-11-22.6C846,271.2,846,274.2,848,274.2z"/>
<path id="Path_00000089555873958699026920000001359579404634852484_" class="st0" d="M776.6,378.4h103.5c1.9,0,1.9-3,0-3
	c-34.5,0-69,0-103.5,0C774.7,375.4,774.7,378.4,776.6,378.4z"/>
<path id="Path_00000131353635378227458160000017518138822323276969_" class="st0" d="M803.1,391.8h95.3c1.9,0,1.9-3,0-3
	c-31.8,0-63.6,0-95.3,0C801.2,388.8,801.2,391.8,803.1,391.8z"/>
<path id="Path_00000173158897132546556450000017357299807676972457_" class="st0" d="M892.6,377.9h12c1.9,0,1.9-3,0-3c-4,0-8,0-12,0
	C890.7,374.9,890.7,377.9,892.6,377.9z"/>
<path id="Path_00000132082499026296558710000001381303427014298298_" class="st0" d="M926.7,386.9c-3.7-1.7-6.5-4.7-7.5-8.7
	c-0.5-1.9-0.9-4.7,0.4-6.4c2.5-3.5,5.5,1.3,6.3,3.8c0.4,1.3,2.6,1.5,2.9,0c0.1-0.7,0.3-1.4,0.5-2.1c0.8-3,2.7-2.7,5.8,0.7
	c0.5,1.8-0.7,4.8-1.5,6.3c-1.7,3.4-4.5,5.8-7.9,7.5c-1.7,0.8-0.2,3.4,1.5,2.6c6.4-3,13.4-11.8,10.2-19.3c-1-2.3-3.4-4.1-6-3.7
	c-3.5,0.5-5,4.2-5.6,7.2h2.9c-1.7-5.5-8.9-11.9-12.2-3.8c-2.9,7.1,2.3,15.5,8.7,18.5C926.9,390.3,928.4,387.7,926.7,386.9
	L926.7,386.9z"/>
<path id="Path_00000051369637589350765320000013679218064217770686_" class="st2" d="M506.7,754.3c-2.3,15.6-4.6,31.3-6.9,46.9
	c-42.3,12.9-63,21.3-62.2,25c1,4.6,33.6,2.4,98-6.6c0.9-22.4,1.9-44.7,2.8-67.1C527.8,753.1,517.3,753.7,506.7,754.3L506.7,754.3z"
	/>
<path id="Path_00000150799458652449425050000014389439582460832141_" class="st3" d="M527.2,611.2c-2.1,1.6-3.3,3.4-7.8,12.1
	c-3.6,6.9-5.3,10.4-6.5,13c-8.1,18.4-16,47.3-16,47.3c-6.3,22.9-9.5,34.3-11.7,46.4c-3.2,17.1-4.5,31.6-5.2,42.1
	c5.9,2.7,13,5.4,21.3,7.4c19.6,4.7,36.5,3.3,47.7,1.3c2-14.1,4.8-29.4,8.7-45.5c3.4-14.4,7.3-27.7,11.3-39.9
	c4.3,2.7,10.6,6.9,18.2,12.1c24.9,17.3,32.7,25.7,47.3,35.1c9.6,6.2,23.8,14,43.4,20c4.5-0.6,16.8-2.8,27.3-13
	c15.8-15.5,14.2-36.5,13.9-39.5c-6.6-7-15.9-16.4-27.8-26.5c-21-17.8-39.1-28.7-52-36.4c-10.4-6.2-22-11.9-45.1-23.4
	c0,0-27.1-13.4-52-15.6C537.8,607.8,531.9,607.6,527.2,611.2L527.2,611.2z"/>
<path id="Path_00000096058539216867163710000005127772797192188818_" class="st2" d="M481.2,770.8c2.6-26.2,7.4-52.1,14.3-77.4
	c3.4-12.4,7.3-24.7,11.7-36.9c4.4-12.1,8.8-24.8,15-36.2c3.7-6.8,8.7-9.1,16.2-9.4c6.8-0.3,13.6,0.6,20.2,2.2
	c12.1,2.8,23.8,7.5,35.2,12.4c21.6,9.2,42.4,20.5,61.9,33.7c22.2,15,42.7,32.3,61.2,51.7c1.3,1.4,3.5-0.7,2.1-2.1
	c-35-36.5-77.2-65.9-123.7-85.8c-11.4-4.9-23-9.5-35.1-12.5c-10-2.4-25.5-5.7-34.6,0.8c-3.9,2.8-6.1,7.3-8.1,11.6
	c-2.6,5.7-5,11.5-7.4,17.3c-5.3,13.1-10,26.4-14.1,40c-8.9,29.5-14.9,59.9-17.9,90.6C478,772.7,481,772.7,481.2,770.8L481.2,770.8z"
	/>
<path id="Path_00000015343230860961011230000015364273866232042137_" class="st2" d="M480.6,772.2c20.6,11.6,44.8,14.9,67.8,9.2
	c1.9-0.5,1.1-3.4-0.8-2.9c-22.2,5.5-45.6,2.4-65.5-8.9C480.4,768.7,478.9,771.2,480.6,772.2L480.6,772.2z"/>
<path id="Path_00000121969826284009396940000004139410325737738407_" class="st2" d="M551.4,779.2c3.5-28.5,9.9-56.6,18.9-83.9
	c0.6-1.8-2.3-2.6-2.9-0.8c-9.1,27.6-15.4,55.9-19,84.7C548.2,781.1,551.2,781.1,551.4,779.2L551.4,779.2z"/>
<path id="Path_00000016075004879995858470000015980213673296569020_" class="st2" d="M561,692.4c40.1,20.4,70,59.6,115.1,70.1
	c1.9,0.4,2.7-2.5,0.8-2.9c-44.8-10.5-74.6-49.5-114.4-69.8C560.8,688.9,559.3,691.5,561,692.4L561,692.4z"/>
<path id="Path_00000015335286348992248860000007438314976121132433_" class="st4" d="M515.2,782.4c10.2-32.4,21.4-65.4,33.7-99
	c2.9-8,5.9-15.9,8.9-23.8c20.9,11,41.9,22,62.8,33c29.2,15.4,58.4,30.9,87.6,46.5c-0.8,3.7-3.7,13.8-12.8,19.2
	c-6.8,4-14.3,3.7-22.3,2.1c-24.8-5-40.4-20-71.6-43.3c-7.1-5.3-18-13.3-31.9-22.7c-2.7,7.6-5.3,15.5-7.8,23.8
	c-6.7,22.4-11,43.5-13.8,62.8c-5.8,1.5-13.5,2.8-22.3,2.5C521.8,783.3,518.3,782.9,515.2,782.4L515.2,782.4z"/>
<path id="Path_00000163755331355814969060000010891100385493908895_" class="st4" d="M567,693.3c-2.5-1-12.6,17.8-15.6,23.4
	c-7.7,14.3-17.7,35.4-27,63.5c1.9,0.8,4.3,1.7,7.1,2.1c7.4,1.3,13.4-0.5,16.7-1.8c5.3-27.8,10.7-49.9,14.9-65.6
	C565.7,705.1,568.8,694.1,567,693.3z"/>
<path id="Path_00000154385996629650908580000010874192584801037247_" class="st2" d="M410.5,766.4c-6.8,17.8-13.7,35.7-20.5,53.5
	c-39.9,13.3-59.3,22.1-58.4,26.4c1.1,5,29.7,4,85.8-3.1c6.7-21.7,13.4-43.3,20.2-65C428.5,774.3,419.5,770.4,410.5,766.4z"/>
<path id="Path_00000178885428018390793840000000394659814594731959_" class="st3" d="M467.8,592.5c-7.7,5.4-12.1,11.8-14.3,15.2
	c-9.6,14.5-14.5,21.8-17.8,28.2c-9.4,18.1-15.4,33.3-18.2,40.8c-9.5,25.1-14.3,45.5-18.7,63.8c-3.2,13.7-5.5,25.1-6.9,33
	c4,4.8,9.7,10.5,17.3,15.6c16,10.7,32.1,13.2,40.8,13.9c7.3-21.1,14.2-38.9,20-52.9c6.1-15,10.6-25,18.7-36.4
	c5.8-8.3,11.5-14.5,15.6-18.7c4.5,6.3,11,14.8,19.5,24.3c10.5,11.7,29.7,32.8,60.7,51.2c25.1,14.9,44.8,20.2,64.6,25.6
	c20.6,5.6,26.9,5,31.7,2.2c19.7-11.6,9.7-57.9,9.1-60.7c-19.3-14.8-33.6-27.9-43.4-37.3c-8.8-8.5-18.7-18.8-36-34.3
	c-4.6-4.1-9.4-8.4-16-13.9c-3.1-2.6-14.6-12-34.3-25.6c0,0-25-17.3-49.4-29.9c0,0-6.2-3.2-16.9-6.5c-8.9-2.7-12.6-2.9-16-2.2
	C476.7,588,473.2,588.8,467.8,592.5L467.8,592.5z"/>
<path id="Path_00000075155554844315171900000002759754187554232743_" class="st2" d="M464.9,592.8c-44.1,49-62.7,114.2-74.9,177.5
	c-0.4,1.9,2.5,2.7,2.9,0.8c12.1-62.8,30.4-127.6,74.1-176.2C468.4,593.5,466.2,591.3,464.9,592.8L464.9,592.8z"/>
<path id="Path_00000179621803914189434370000010682756216789808311_" class="st2" d="M391,773.8c14.6,16.9,34.7,28.2,56.7,31.8
	c1.9,0.3,2.7-2.6,0.8-2.9c-21.6-3.5-41.1-14.5-55.4-31C391.9,770.2,389.8,772.3,391,773.8z"/>
<path id="Path_00000119080627874879446480000005041299074350164882_" class="st2" d="M450.6,804.2c6.4-19.9,14-39.3,23-58.2
	c8.2-17.1,16.6-36.8,31.3-49.4c1.5-1.3-0.7-3.4-2.1-2.1c-14.9,12.8-23.5,32.7-31.7,50c-9.1,19.1-16.8,38.8-23.3,58.9
	C447.1,805.2,450,806,450.6,804.2L450.6,804.2z"/>
<path id="Path_00000168817401570771222620000016527559248480207257_" class="st2" d="M494.3,683.8c41.1,56.6,97.1,107.4,169.1,117
	c1.9,0.3,1.9-2.7,0-3c-70.8-9.4-126-59.8-166.5-115.5C495.7,680.8,493.1,682.3,494.3,683.8z"/>
<path id="Path_00000084493269261126420230000008025981949107901579_" class="st2" d="M467.4,594.8c16.5-12.1,37.5,1.3,52.7,9.5
	c15.7,8.4,30.8,17.7,45.5,27.8c29.6,20.5,56.9,44.3,81.3,70.8c1.3,1.4,3.4-0.7,2.1-2.1c-40.2-43.7-88.5-80.4-141.9-106.5
	c-12.8-6.3-28.5-11.3-41.2-2C464.4,593.3,465.9,595.9,467.4,594.8L467.4,594.8z"/>
<path id="Path_00000080913650519037777140000008448768211049474720_" class="st5" d="M414.6,789.2c6.6-13.6,18.2-37.6,32.5-67.9
	c27.5-57.9,32.1-69.1,44.7-73.4c21.8-7.3,42.5,14.6,90.4,48.8C609,715.9,645.9,740,693,764.3c0.9,5.2,2.8,19.4-5.5,28.4
	c-3.7,3.9-12.1,9.9-38.1,5.5c-10-1.7-56.8-10.6-113.6-67.2c-14.3-14.2-24.9-27.2-31.9-36.4c-2.9,3.4-7.3,8.9-12.1,15.9
	c-8.4,12.4-14,23.7-27,55c-4.2,10-9.4,22.8-15.2,37.7c-3.8,0.2-11,0.2-19-3.1C422.4,797,417.2,792,414.6,789.2z"/>
<path id="Path_00000054954694978669613560000003081440802420213436_" class="st4" d="M496,681.2c3.9,2,9.6,5,16.3,9
	c42.3,25.2,43.3,40.5,74.8,59.2c24.5,14.5,33.7,11.1,58.9,30.1c9.8,7.4,17.1,14.5,21.8,19.4c-9.7-0.8-23.1-2.8-38.4-7.6
	c-20-6.3-33.8-14.6-44-20.8c-5.1-3.1-26.3-16.2-49.5-39.5C524.3,719.5,509.8,703.1,496,681.2L496,681.2z"/>
<path id="Path_00000091695809632604663080000006159758967987108796_" class="st4" d="M500.5,695c-1.4-1.8-11.9,2.7-21.1,9.7
	c-16.6,12.5-21.3,27-36.7,55.4c-4.5,8.3-11.3,20.4-20.4,34.6c8.9,3.6,17.8,7.2,26.7,10.7c2-5.4,17.3-46.3,28.7-71
	c3.7-7.9,5.7-12.3,9.3-18.3C495,702.9,501.8,696.7,500.5,695L500.5,695z"/>
<path id="Path_00000123431373770358169710000007995398837789888692_" class="st3" d="M915.5,523.3c2.6,1.4,2.5,2.9,5.8,5.7
	c2.7,2.3,3.7,2,4.8,3.9c1.2,2.1,1.4,4.5,1.4,6.1c1.1,0,3.1,0.3,5.2,1.8c0.6,0.4,4.7,3.3,5.8,9.6c0.8,4.3-0.2,7.9-0.7,9.2
	c1.1,1,2.8,2.8,3.4,5.7c0.8,3.6-0.3,6.9-1.7,10.5c-4.1,10.1-7.8,14.3-12,22.8c-1.3,2.5-3,6.4-4.8,11.4c-0.1,3.8-0.1,10,0.7,17.5
	c1.2,11.2,3.4,19.3,4.1,21.9c3.5,13,9.7,43.4,10.3,71.3c0.3,14.3,0.6,37.2-9.3,60.6c-3.7,8.8-9.2,21.2-20.3,26.3
	c-1.8,0.8-14.7,6.7-23.7-2.6c-3.3-3.4-5-7.6-5.8-10.5c-0.2-1.5-0.4-3.8-0.3-6.6c0.3-12.1,5.9-20.8,7.9-24.1
	c6.8-11.5,8.9-24.3,12.4-46c2.2-13.4,1.7-25,0.7-47.8c-0.7-15.6-2.2-36.7-5.5-61.8c-1.7-0.5-3.9-1.5-5.5-3.9
	c-2.4-3.7-1-7.1-2.8-13.6c-1.4-4.9-2.5-4-4.8-10.5c-1.7-4.7-3.3-9-2.4-14c0.2-1,1.1-6.9,4.5-8.3c4.3-1.9,9.1,4.9,10.3,6.6
	c2.4,3.4,3.6,7,4.1,9.2c2.4-4,4.9-8.8,7.2-14.5c1.1-2.6,2-5.1,2.8-7.5c-0.4-2.2-0.9-5.4-1.3-9.3c-0.5-5.2-0.7-7.9-0.1-11.3
	c0.4-2.3,1.4-7.4,4.5-8.8C912.3,521.6,914.4,522.7,915.5,523.3L915.5,523.3z"/>
<path id="Path_00000016053155642328955270000007046118937432298647_" class="st2" d="M925.3,606.6c4.9-8.8,10.7-17.6,14.7-26.9
	c2.9-6.8,4.1-15-0.4-21.4c-1.1-1.6-3.7-0.1-2.6,1.5c5.2,7.3,1.7,16.4-2.1,23.5c-4,7.3-8.1,14.5-12.2,21.8
	C921.7,606.8,924.3,608.3,925.3,606.6z"/>
<path id="Path_00000117639768184028606370000010492827655370436772_" class="st2" d="M932.4,574.9c7.3-9.7,13.2-33.1-3.8-36.9
	c-1.9-0.4-2.7,2.5-0.8,2.9c14.8,3.3,8.1,24.3,2,32.5C928.7,574.9,931.3,576.4,932.4,574.9L932.4,574.9z"/>
<path id="Path_00000146482401402216824010000013190547734520417705_" class="st2" d="M924.5,566c6.9-9.9,7.4-23.5,2.1-34.2
	c-0.9-1.7-3.4-0.2-2.6,1.5c4.8,9.8,4.2,22.2-2.1,31.2C920.8,566,923.4,567.5,924.5,566z"/>
<path id="Path_00000004506632601410821080000009306842980578533812_" class="st2" d="M918.6,558.3c2.8-8.8,3.7-18.4,1.7-27.5
	c-1.1-4.9-6-13.5-12.1-8.8c-5.7,4.4-3.1,16.5-2.5,22.4c0.6,5.9-0.1,10.1-3.2,15.2c-2.7,4.4-4.9,9-6.6,13.9c-0.7,1.8,2.2,2.6,2.9,0.8
	c2.3-6.5,6.4-11.8,9.1-18c2.5-5.8,0.8-12.1,0.4-18.2c-0.2-2.8-1-7.3,0.1-10c0.1-2.1,1.4-2.5,3.9-1.4c2.8-1.1,4.4-0.3,4.7,2.5
	c0.7,1.9,1,4.1,1.2,6.1c0.8,7.5,0,14.9-2.3,22.1C915.2,559.4,918,560.2,918.6,558.3L918.6,558.3z"/>
<path id="Path_00000011002460390997226000000007418821924204818849_" class="st2" d="M927.7,533.3c-1.2-4.6-6.4-8.3-10.9-5.2
	c-1.6,1.1-0.1,3.7,1.5,2.6c2.8-1.9,5.7,0.6,6.5,3.4C925.3,536,928.2,535.2,927.7,533.3z"/>
<path id="Path_00000088844937865673532930000018082503832774286467_" class="st2" d="M897.7,571.1c-1.6-5.9-5.5-13.4-12.1-14.6
	c-6.3-1.2-8.5,4.9-8.7,10c-0.5,9.6,4.6,16.2,7.1,25c2,7.1,1.4,14.2,8.6,18.4c1.7,1,3.2-1.6,1.5-2.6c-5.4-3.1-5.6-8.5-6.7-14
	c-0.8-4.4-2.9-8.1-4.7-12.2c-2.1-4.7-4.4-12-2.6-17.1c0.1-0.5,0.2-0.9,0.3-1.4c2.3-0.7,4.6-1.5,6.8-2.2c1.3,0.4,2.9,2.5,3.8,3.5
	c1.9,2.4,3,5,3.7,8C895.3,573.8,898.2,573,897.7,571.1L897.7,571.1z"/>
<path id="Path_00000047053264995118669930000008032172272784415148_" class="st2" d="M892,608.4c4.2,34.7,8.7,70.7,5.6,105.6
	c-1.5,16.5-5.6,31.8-12.2,46.9c-5.4,12.4-9.3,24.1-6.7,37.7c0.4,1.9,3.3,1.1,2.9-0.8c-2.9-15.2,3.3-27.7,9-41.3
	c6-14.1,9-29.1,10.2-44.3c2.7-34.4-1.6-69.7-5.7-103.8C894.7,606.5,891.7,606.5,892,608.4L892,608.4z"/>
<path id="Path_00000031184032005113696140000012303292891254119323_" class="st2" d="M922.3,604c-2.4,6.9-1.2,14.6-0.4,21.7
	c0.9,7.5,2.1,15,3.5,22.4c3.1,16.3,7,32.4,9.1,48.9c2.1,16.2,2.2,32.6,0.4,48.8c-1.8,16.1-4.9,33.7-13.9,47.5
	c-4.3,6.6-10.7,13-18.8,14.5c-8.7,1.7-16.6-3.5-20.7-11c-0.9-1.7-3.5-0.2-2.6,1.5c5.8,10.5,17.7,15.7,29,10.7
	c13.4-5.9,20.5-20.9,24.4-34.2c10.3-35,7.4-71.5,0.3-106.8c-2-10-4.2-20-5.8-30.1c-0.9-5.4-1.6-10.8-2.2-16.2
	c-0.5-5.7-1.3-11.7,0.6-17.2C925.9,603,923,602.2,922.3,604L922.3,604z"/>
<path id="Path_00000101078624084105908670000000084909050495268285_" class="st6" d="M932.1,541.7c0.3,5,0.3,11.4-0.9,18.4
	c-3.2,19.2-12.7,31.3-17.1,36.1c-0.1,5.7-0.3,14.5,0,25.1c1.2,47.6,8.6,70.9,9.8,93.2c1.2,21.7-2.8,53.4-27.8,94.4
	c3.3,0.3,8.5,0.3,13.9-2.6c4.9-2.6,12.5-8.6,19.4-28.7c6.3-18.4,13.2-52.1,5.5-90.7c-3.4-16.8-8.6-30-11.3-58.2
	c-0.7-7.5-1-13.8-1.2-18.1c1.7-4,4.2-9.5,7.8-15.5c5.9-9.9,9.7-13.2,10.7-20.3c0.7-5-0.3-10.1-2.3-15.1c0.2-1.3,1-6.6-1.4-11.8
	C935.6,544.2,933.2,542.4,932.1,541.7L932.1,541.7z"/>
<path id="Path_00000111875462106334480510000007848153785847491207_" class="st7" d="M922,618c-0.5,0.1,1.1,17.5,4.3,52.3
	c2.9,30.7,4.3,46,4.3,47.2c1,45.6-13,77.8-10.7,78.9c1.6,0.8,9.6-15.4,14.2-35c6.3-27.1,3.8-50.6,2.3-64.1c-1.4-11.9-1.9-8.6-9-49
	C923.9,628,922.5,617.9,922,618L922,618z"/>
<path id="Path_00000160901234100388171220000002657866671185748154_" class="st8" d="M675.7,712.5c-9.5,19.3-12.2,36.3-14.7,52.9
	c-1.4,9.1-2.8,22-2.7,37.6c31.2,8.3,59,12.8,81.8,15.2c29.6,3.2,20.9-0.7,95.6,1.9c37.3,1.3,56.5,2.6,61.8-7.6
	c4.4-8.6-6.4-17.2-7-37c-0.5-15.9,5.8-28.9,10.8-37c-29.5-11.9-63.6-23.7-102-33.7c-38.2-10-73.6-16.4-105.1-20.4
	C689.2,690.3,682,699.7,675.7,712.5z"/>
<path id="Path_00000117673361803549034460000003052884670983283857_" class="st4" d="M678.3,709.1c7.3,14.6,22.7,39.6,51.4,53.6
	c11.2,5.5,23.9,9,61.3,10.9c24.2,1.2,57.8,1.8,98.5-1.5c-0.6,8.7,1.2,14.9,2.9,19c2.6,6.1,6.2,9.6,5.8,16c-0.1,1.5-0.3,5.3-2.9,8.4
	c-3.6,4.2-9.5,4.6-12.4,4.7c-28.8,1.4-38.7,0.4-38.7,0.4c-24.2-2.6-45.7-2-63.5-1.5c-7.7,0.2-11.8,0.5-20.1,0.4
	c-4.6-0.1-17.3-0.4-35.7-2.9c-27.1-3.7-52.1-10-66-13.9c-0.3-17.9,1.3-32.7,2.9-43.4c2.5-16.4,5.5-25.5,6.6-28.4
	C671.6,721.7,675.3,714.3,678.3,709.1L678.3,709.1z"/>
<path id="Path_00000011019023497270745600000001762682253534153089_" class="st6" d="M667.3,735.3c3.9,7.9,10.6,19.1,21.9,29.5
	c19,17.4,39.5,22,63.8,27.7c51.5,12.2,104,26.1,103.6,28.4c-0.2,1.4-19.8-1.8-53.6-2.2c-8.2-0.1-13.5-0.2-21.2,0
	c-15,0.3-19.1,1.1-28.1,0.7c-9.7-0.4-16.8-1.8-24.4-3.3c-30.5-6.1-60.9-12.8-70.7-15c0.1-6.4,0.5-13.1,1.1-20.1
	C661.2,764.3,664,748.9,667.3,735.3L667.3,735.3z"/>
<path id="Path_00000088109537134559749880000005035557491645710742_" class="st9" d="M959.3,793.7c-21.2,3-33.3,3.6-53.1,9.2
	c-9.2,2.6-16.6,5.3-21.5,7.3c-3.1-8.7-6.8-22.8-5.2-40c0.9-10.2,3.4-18.7,6-25.1c5.5,1.4,12.4,2.7,20.5,3.2
	c10.1,0.6,18.7-0.2,25.2-1.3c2.5-9,4.9-17.9,7.4-26.9c4.5-1.2,9.1-2.5,13.6-3.7c0.4-2.5,0.9-5,1.3-7.5c5.6,2.6,14.5,6.8,25.6,11.5
	c20.9,9,23.9,9.3,28.4,13.3c12.1,10.9,17.9,32.6,9,45.1C1011.1,786.3,993.8,788.8,959.3,793.7z"/>
<path id="Path_00000040549030322237872680000012260357981816491944_" class="st2" d="M951.8,708.7c-0.7,4.7-1,9.4-0.8,14.2
	c0.1,1.9,3.1,1.9,3,0c-0.2-4.5,0.1-8.9,0.7-13.4C954.9,707.6,952,706.8,951.8,708.7L951.8,708.7z"/>
<path id="Path_00000092415849133024002950000001582253974262890942_" class="st2" d="M984.4,734.2c0.8,3.7-1.5,7-4.7,8.5
	c-1.8,0.8-0.2,3.4,1.5,2.6c4.6-2.1,7.1-7,6.1-11.9C986.9,731.5,984,732.3,984.4,734.2L984.4,734.2z"/>
<path id="Path_00000075869925120565076930000008024909060297573045_" class="st2" d="M973.1,733.2c1.1,0.1,2.3,0.4,3.2,1.2
	c0.2,0.2,0.4,0.4,0.6,0.6c0.6-0.5,0.7-0.8,0.2-0.7c-0.3-0.2-1.1-0.2-1.4-0.3c-0.5-0.2-1-0.3-1.5-0.6c-0.3-0.1-0.5-0.3-0.8-0.5
	c-0.8,0.5-0.9,0.9-0.2,1.1c0.4,0.4,1.2,0.8,1.7,1.1c0.6,0.4,1.1,0.7,1.7,1.1c1.6,1,2.8-1.1,1.8-2.4c-0.6-0.8-1.3-1.2-2.2-1.6
	c-1.8-0.7-2.6,2.2-0.8,2.9c0.4,0.2,0.6,0.5,0.9,0.8c0.6-0.8,1.2-1.6,1.8-2.4c-1.4-0.9-2.7-1.9-4.1-2.6c-1.1-0.6-2.5-0.4-3.2,0.7
	c-1.8,2.7,2.1,4.6,4.1,5.2c1.1,0.3,2.4,0.6,3.5,0.2c1.2-0.4,1.8-1.7,1.4-2.9c-0.8-2.6-4.3-3.7-6.7-3.9
	C971.1,730.1,971.2,733.1,973.1,733.2L973.1,733.2z"/>
<path id="Path_00000020390924346100299220000009644308246654791554_" class="st1" d="M1002.4,729.6c4.3,1.2,11.4,3.8,18.3,9.2
	c2.4,1.9,7.6,6,10.7,11.9c5.9,11.2,3.2,26.9-7.1,37.3c-10.1,10.1-26.3,13.7-41.4,9.2C989.4,774.7,995.9,752.2,1002.4,729.6z"/>
<path id="Path_00000075141771714008375140000015062815723167748504_" class="st2" d="M1007.3,691.3c-9.4,34.8-18.8,69.6-28.2,104.4
	c-1.5,5.6,7.2,8,8.7,2.4c9.4-34.8,18.8-69.6,28.2-104.4C1017.5,688.1,1008.8,685.7,1007.3,691.3z"/>
<path id="Path_00000005266329932164115650000001202490353795737257_" class="st10" d="M986.9,774.4c-1.6-6.6-5.8-10.8-10.7-15.7
	c-10.4-10.4-15-8.3-21.5-15.5c-10.2-11.5-2.1-20.7-12.2-31.1c-8.6-8.8-21.6-9.5-24.6-9.6c-2.9-0.1-14.6-0.2-23.6,7.5
	c-7.8,6.7-10.7,16.8-9.3,17.6c0.5,0.3,2-0.4,6.8-5.5c-1.5,1.5-3.3,3.9-4.4,7.1c-1.2,3.8-1,7.5-0.4,7.6c0.5,0.1,0.7-2,2.8-3.4
	c1.2-0.8,2.6-1.1,3.6-1.1c-2.6,2.8-5,6.5-4.2,10.3c2,10.6,25.8,15.5,33.7,17.1c25.6,5.3,40.6,0.2,48.6,9.8c0.7,0.8,3.9,4.7,2.7,8.3
	c-1.6,4.6-9.9,7.2-14.9,5c-4.3-1.9-4.9-6.8-5.8-6.6c-1.1,0.3-0.5,8.5,4.3,16c1.8,2.7,3.2,4.9,6.1,6.4c5.1,2.5,11.6,1.2,15.5-1.2
	C987.7,792.7,988.7,781.6,986.9,774.4L986.9,774.4z"/>
<path id="Path_00000067916651658994756550000002275186486561356687_" class="st11" d="M952.3,779.5c0-1.5,0.2-3.7,0.8-3.7
	c0.3,0,0.6,0.6,0.6,0.5c0,0-2.2-2.1-2.2-4.4c0-1.1,0.5-2,0.9-2.5c-9.6,2.8-21,5.5-34,7.3c-14.3,2-27.1,2.5-38,2.3
	c-0.5,4.1-0.8,9.9,0.6,16.8c1.1,5.6,3,10.2,4.7,13.6c15.5-6.7,27.5-9.5,35.6-10.9c3.8-0.6,12.8-2,17.2-2.6c8-1.2,14.6-2.1,19.1-2.7
	c-0.5-0.7-1.3-1.8-2.1-3.2C954.4,788.1,952.3,784.2,952.3,779.5L952.3,779.5z"/>
<path id="Path_00000134233678658267694460000003389185721404237722_" class="st12" d="M1034.2,764.3c-3.2,8.9-11.9,14.8-21.4,14.7
	c-11.2-0.2-17.8-8.8-18.4-9.6c-2.6,9.6-5.1,19.3-7.7,28.9c2.4,0.5,5.7,1,9.7,0.9c12.6-0.3,21.2-6,23-7.3c2.8-1.9,12-8.9,14.3-20.8
	C1034.2,768.3,1034.2,765.9,1034.2,764.3L1034.2,764.3z"/>
<path id="Path_00000026154533929162011570000015215360468766322590_" class="st3" d="M855.9,559.1c4.4,6.1,9.4,12.5,15.2,19.1
	c7.8,8.9,15.5,16.4,22.7,22.7c10.3-10,21.2-20.1,32.7-30.4c10.9-9.8,21.7-19,32.3-27.7c-2.5-5.1-5.9-11-10.4-17
	c-8.8-11.7-18.5-19.5-25.9-24.5c-16.9,11.9-34.7,26.1-52.3,43.2C865.2,549.5,860.5,554.3,855.9,559.1L855.9,559.1z"/>
<path id="Path_00000064346546018710284070000004631175206457695109_" class="st2" d="M876.2,541.8c14.3-14.2,29.6-27.3,45.9-39.1
	c1.5-1.1,0.1-3.7-1.5-2.6c-16.5,12-32.1,25.2-46.5,39.6C872.7,541.1,874.8,543.2,876.2,541.8z"/>
<path id="Path_00000152226184438138103590000015098673748098617476_" class="st2" d="M921.4,502.1c14.4,10.9,26.5,24.4,35.9,39.8
	c1,1.6,3.6,0.1,2.6-1.5c-9.7-15.9-22.2-29.6-37-40.9C921.4,498.4,919.9,501,921.4,502.1z"/>
<path id="Path_00000139285177542996943160000003072012677658710950_" class="st2" d="M875.7,538.3c-7.3,6.3-14.3,13-20.9,20.1
	c-1.3,1.4,0.8,3.5,2.1,2.1c6.6-7.1,13.5-13.8,20.9-20.1C879.3,539.1,877.2,537,875.7,538.3z"/>
<path id="Path_00000008129394945102768910000014389590591733703565_" class="st2" d="M855.2,561.2c11.4,14,23.6,27.2,36.7,39.7
	c1.4,1.3,3.5-0.8,2.1-2.1c-13-12.5-25.3-25.7-36.7-39.7C856.1,557.5,853.9,559.7,855.2,561.2z"/>
<path id="Path_00000158742736458955441150000008197189515197904826_" class="st2" d="M895.2,601.5c21.1-20.1,42.8-39.5,65-58.3
	c1.5-1.2-0.7-3.4-2.1-2.1c-22.2,18.8-43.9,38.3-65,58.3C891.7,600.7,893.8,602.8,895.2,601.5z"/>
<path id="Path_00000049923574509657886790000010496729015024038332_" class="st2" d="M867.6,560.2c6.8,8.8,13.9,17.4,21.2,25.7
	c1.3,1.5,3.4-0.7,2.1-2.1c-7.3-8.4-14.4-17-21.2-25.7C868.6,556.5,866.5,558.7,867.6,560.2z"/>
<path id="Path_00000033349804549353602550000000882536932446302094_" class="st2" d="M869.8,560.2c15.2-16.7,33.1-30.4,50.9-44.1
	c1.5-1.2,0-3.8-1.5-2.6c-18.1,13.8-36.2,27.7-51.5,44.5C866.3,559.5,868.5,561.6,869.8,560.2z"/>
<path id="Path_00000124121691926250937310000006012001219017243792_" class="st2" d="M921,516.1c9.2,6.9,17.6,14.6,25.3,23.1
	c1.3,1.4,3.4-0.7,2.1-2.1c-7.9-8.7-16.5-16.5-25.9-23.6C920.9,512.4,919.4,515,921,516.1z"/>
<path id="Path_00000111154354111955823420000006766198074635541151_" class="st2" d="M890.6,586.7c5.1-0.2,9-2.7,13-5.7
	c5.2-4,10.3-8.1,15.3-12.4c10.6-8.9,20.7-18.3,30.4-28c1.4-1.4-0.8-3.5-2.1-2.1C938.8,547,930,555.1,921,563
	c-4.4,3.8-8.9,7.5-13.4,11.2c-4.9,3.9-10.3,9.4-17,9.6C888.7,583.7,888.7,586.7,890.6,586.7L890.6,586.7z"/>
<path id="Path_00000027581871198619791660000012900953765098665905_" class="st7" d="M916.4,503c-2.4,4.5-5.9,11-10,18.9
	c-10.2,19.8-15.4,29.8-17,36.1c-2.1,8.2-3.7,22.6,4.8,42.9c-12.7-13.5-25.4-27.1-38.1-40.6C876.2,541.2,896.3,522.1,916.4,503
	L916.4,503z"/>
<path id="Path_00000015338664360872869470000015257723036387014330_" class="st0" d="M906,535.4c4.8,4.9,9.3,10.1,13.5,15.5
	c1.2,1.5,3.3-0.6,2.1-2.1c-4.2-5.4-8.7-10.6-13.5-15.5C906.8,531.9,904.7,534,906,535.4z"/>
<path id="Path_00000085948656960597747130000002512638573350825649_" class="st0" d="M907.2,535c2.3-1.5,4.7-2.9,7-4.4
	c1.2-0.8,2.5-2,3.9-2.4c1.9-0.7,0.7-1.1,2.2-0.3c1.8,0.9,3.8,4.8,5.1,6.4c1.9,2.4,3.7,4.7,5.6,7.1c1.2,1.5,3.3-0.6,2.1-2.1
	c-2.4-3.1-4.9-6.2-7.3-9.3c-1.2-1.6-3.1-5.4-5.2-5.9c-1.5-0.3-2.8,0.7-4,1.5c-3.7,2.2-7.3,4.6-10.9,6.8
	C904.1,533.5,905.6,536.1,907.2,535L907.2,535z"/>
<path id="Path_00000142873612710508103050000004971166224360500904_" class="st0" d="M921.3,550.8c4.2-1.8,7.9-4.4,11.1-7.6
	c1.4-1.4-0.8-3.5-2.1-2.1c-3.1,3-6.6,5.4-10.5,7.1C918,549,919.5,551.6,921.3,550.8z"/>
<path id="Path_00000032611275355917141170000010668468837383197853_" class="st0" d="M914.5,540.7c1.3-1.3,2.5-2.6,4.5-2.3
	c1.1,0.2,1.5,0.4,2.7,0.2c1-0.2,1.3-1.4,0.9-2.2c-0.9-1.5-1.7,1-1.7,1.9c0,0.8,0.3,1.7,0.9,2.3c1.5,1.6,3.7,1.2,5.5,0.4
	c1.8-0.7,1-3.6-0.8-2.9c-0.7,0.3-1.4,0.5-2.2,0.6c-0.3-0.7-0.3-1.4,0-2.1c0-0.7,0.1-1.3-0.1-2c-0.3-1-1.1-1.9-2.2-2
	c-3.2-0.4-3.2,3.4-2,5.4c0.3-0.7,0.6-1.5,0.9-2.2c-0.8,0.1-1.8-0.5-2.6-0.5c-0.6,0-1.3,0.2-1.9,0.4c-1.6,0.6-2.8,1.8-3.9,3
	C911,540,913.2,542.1,914.5,540.7L914.5,540.7z"/>
<path id="Path_00000037683840111724770710000009479777965744336512_" class="st0" d="M913,534.3c1.4,0.1,2.7,0,4-0.3
	c1.9-0.4,1.1-3.3-0.8-2.9c-1.1,0.2-2.1,0.3-3.2,0.2c-0.8-0.1-1.5,0.7-1.5,1.5C911.5,533.7,912.2,534.2,913,534.3L913,534.3z"/>
<path id="Path_00000107582462005115503090000000751494274713662080_" class="st0" d="M890.1,548.7c4.6,5.3,9.2,10.5,13.9,15.6
	c1.3,1.4,3.4-0.7,2.1-2.1c-4.7-5.1-9.4-10.3-13.9-15.6C891,545.1,888.9,547.2,890.1,548.7z"/>
<path id="Path_00000060709002164683408250000016099389805944068511_" class="st0" d="M892.5,549.1c1-1.8,1.5-3.3,3.6-3.4
	c1.8-0.1,2.9,1.3,4.1,2.4c1.7,1.5,3.1,3.3,4.8,4.9c1.3,1.2,2.7,2.4,4.2,3.4c1.3,0.9,2.5,1.4,1.1,3.1c-0.8,1-2.9,1.4-4.1,1.8
	c-1.8,0.6-1,3.5,0.8,2.9c2.7-0.9,7-2.3,7.9-5.5c0.4-1.3,0.1-1.9-0.8-2.8c-1.9-1.7-4.5-2.8-6.4-4.6c-3.2-2.9-6-7.2-10.1-8.9
	c-3.9-1.5-5.9,2.1-7.6,5.1C889,549.2,891.6,550.8,892.5,549.1z"/>
<path id="Path_00000031173814054021782910000005628112596845812156_" class="st3" d="M862,537.5c-3.4,1.4-3.2,2.9-7.5,5.7
	c-3.5,2.3-4.7,2-6.1,3.9c-1.6,2.1-1.8,4.5-1.8,6.1c-1.4,0-3.9,0.3-6.6,1.8c-0.8,0.4-6,3.3-7.5,9.6c-1,4.3,0.3,7.9,0.9,9.2
	c-1.4,1-3.5,2.8-4.4,5.7c-1.1,3.6,0.3,6.9,2.2,10.5c5.2,10.1,9.9,14.3,15.3,22.8c1.6,2.5,3.9,6.4,6.1,11.4c0.1,3.8,0.1,10-0.9,17.5
	c-1.5,11.2-4.4,19.3-5.3,21.9c-4.5,13-12.4,43.4-13.2,71.3c-0.4,14.3-0.8,37.2,11.8,60.6c4.7,8.8,11.7,21.2,25.9,26.3
	c2.2,0.8,18.7,6.7,30.2-2.6c4.2-3.4,6.3-7.6,7.5-10.5c0.3-1.5,0.5-3.8,0.4-6.6c-0.4-12.1-7.6-20.8-10.1-24.1
	c-8.7-11.5-11.3-24.3-15.8-46c-2.8-13.4-2.2-25-0.9-47.8c0.9-15.6,2.7-36.7,7-61.8c2.1-0.5,5-1.5,7-3.9c3-3.7,1.2-7.1,3.5-13.6
	c1.7-4.9,3.1-4,6.1-10.5c2.2-4.7,4.1-9,3.1-14c-0.2-1-1.5-6.9-5.7-8.3c-5.4-1.9-11.6,4.9-13.1,6.6c-3.1,3.4-4.5,7-5.3,9.2
	c-3.1-4-6.3-8.8-9.2-14.5c-1.3-2.6-2.5-5.1-3.5-7.5c0.5-2.2,1.2-5.4,1.7-9.3c0.6-5.2,0.9-7.9,0.1-11.3c-0.6-2.3-1.8-7.4-5.7-8.8
	C866.1,535.7,863.4,536.8,862,537.5L862,537.5z"/>
<path id="Path_00000170238814310497568120000005283925825293432753_" class="st2" d="M852.5,619.2c-5-7-10.1-14-15-21.1
	c-4.7-6.8-10.2-16.4-3.4-23.9c1.3-1.4-0.8-3.6-2.1-2.1c-5.3,5.8-4.7,13.7-1.4,20.4c5,10,12.9,19.1,19.4,28.2
	C851,622.3,853.6,620.8,852.5,619.2z"/>
<path id="Path_00000036946164509526805040000000245112805095638404_" class="st2" d="M843.1,587.2c-4.8-5-8.8-11.8-8.7-18.9
	c0.1-6.9,5.1-12.1,11.7-13.2c1.9-0.3,1.1-3.2-0.8-2.9c-7.1,1.2-12.8,6.7-13.8,13.9c-1.2,8.6,3.7,17.3,9.5,23.3
	C842.3,590.8,844.4,588.6,843.1,587.2L843.1,587.2z"/>
<path id="Path_00000052790527356112261920000002283862469085563837_" class="st2" d="M853.2,578.3c-7.7-8.6-8.6-21.2-2.5-30.9
	c1-1.6-1.6-3.1-2.6-1.5c-6.9,10.9-5.6,25,2.9,34.5C852.4,581.9,854.5,579.8,853.2,578.3z"/>
<path id="Path_00000157271307044927093870000012580594195579735443_" class="st2" d="M861.3,571.7c-3.2-7.8-4.4-16.5-2.4-24.8
	c1.1-4.7,7.1-13.6,11.9-6.4c2,3,1.3,7.5,1,10.9c-0.5,6.4-2.8,13.4,0.5,19.4c1.6,2.8,4,5.2,5.8,7.8c2.3,3.2,4.1,6.7,5.8,10.3
	c0.8,1.8,3.4,0.2,2.6-1.5c-2.1-4.6-4.7-8.9-7.8-12.9c-1.8-2.4-4.1-4.6-4.9-7.6c-0.8-2.9,0-6.1,0.3-9.1c0.8-6.1,3.3-17.5-3.3-21.6
	c-5.9-3.7-12.2,1.8-14.1,7.2c-3.4,9.3-2,20.2,1.6,29.2C859.1,574.3,862,573.5,861.3,571.7z"/>
<path id="Path_00000134208834008258027720000007165397801070203558_" class="st2" d="M849.7,548.3c1.2-3.5,5.6-5.1,8.9-3.4
	c1.7,0.9,3.2-1.7,1.5-2.6c-5-2.7-11.4-0.1-13.3,5.2C846.1,549.3,849,550.1,849.7,548.3z"/>
<path id="Path_00000037671750146024931280000018222966287901724330_" class="st2" d="M888,586.1c1.1-3.2,2.7-6,5.1-8.3
	c1-0.9,2.1-1.8,3.3-2.5c2.8-1.6,4-1.6,7.1-0.5c3.6,1.3,4.1,2.1,4.4,5.9c0.1,1.2,0.1,2.4,0,3.6c-0.3,3.8-1.7,7.4-3.5,10.7
	c-2.1,3.8-4.7,7.3-5.9,11.6c-1.8,6.5-1.9,11.8-8.9,14.9c-1.8,0.8-0.2,3.4,1.5,2.6c3-1.3,5.5-3.3,7.2-6.1c2.3-3.7,2.1-8.1,3.5-12.1
	c1.6-4.4,4.7-8.1,6.7-12.3c1.8-4,2.7-8.4,2.4-12.8c-0.4-6-3.9-11-10.5-10c-7.5,1.1-13,7.8-15.3,14.6
	C884.4,587.1,887.3,587.9,888,586.1L888,586.1z"/>
<path id="Path_00000142879179386369032810000007296408719721041341_" class="st2" d="M888.6,622.2c-2.8,18.2-5.1,36.5-6.7,54.8
	c-1.4,16.4-2.3,32.9-0.7,49.4c1.5,15.1,5.3,29.8,12.4,43.2c7.2,13.7,16.1,26.2,12.1,42.5c-0.5,1.9,2.4,2.7,2.9,0.8
	c3.4-14.1-1.8-25.6-8.5-37.7c-8-14.3-13.4-28.9-15.5-45.3c-2-16.4-1.3-32.9,0-49.3c1.6-19.2,3.9-38.4,6.9-57.5
	C891.8,621.1,888.9,620.3,888.6,622.2L888.6,622.2z"/>
<path id="Path_00000127029002052412456220000003531791295723412384_" class="st2" d="M850.1,619.3c2,4.4,1.5,9.3,1,14
	c-0.6,5.3-1.4,10.6-2.5,15.9c-1.8,9.3-4.3,18.5-6.7,27.7c-4.7,18.1-9.2,36.2-9.8,54.9c-0.6,18.5,1.8,37.6,7.9,55.1
	c5.1,14.6,14.1,28.7,28.6,35.2c13.7,6.1,30.6,3.2,39.4-9.6c1.1-1.6-1.5-3.1-2.6-1.5c-9.7,14-29,13.7-42,4.7
	c-14-9.7-20.4-26.4-24.2-42.3c-4.2-17.6-5.3-36-3.3-53.9c2-17.6,7-34.6,11.3-51.7c2.3-9.2,4.5-18.4,5.8-27.8
	c1.1-7.3,2.6-15.3-0.6-22.2C851.9,616,849.3,617.6,850.1,619.3L850.1,619.3z"/>
<path id="Path_00000104707935882323506550000012152174663190525330_" class="st6" d="M840.9,555.8c-0.4,5-0.4,11.4,1.1,18.4
	c4.1,19.2,16.2,31.3,21.7,36.1c0.2,5.7,0.3,14.5,0,25.1c-1.5,47.6-10.9,70.9-12.5,93.2c-1.5,21.7,3.6,53.4,35.4,94.4
	c-4.3,0.3-10.8,0.3-17.7-2.6c-6.2-2.6-15.9-8.6-24.7-28.7c-8-18.4-16.8-52.1-7-90.7c4.3-16.8,11-30,14.4-58.2
	c0.9-7.5,1.3-13.8,1.5-18.1c-2.2-4-5.4-9.5-10-15.5c-7.5-9.9-12.4-13.2-13.6-20.3c-0.9-5,0.3-10.1,2.9-15.1
	c-0.3-1.3-1.2-6.6,1.8-11.8C836.4,558.4,839.5,556.6,840.9,555.8L840.9,555.8z"/>
<path id="Path_00000128482981862563613110000009657980006194497462_" class="st7" d="M853.8,632.1c0.7,0.1-1.4,17.5-5.5,52.3
	c-3.7,30.7-5.5,46-5.5,47.2c-1.3,45.6,16.5,77.8,13.6,78.9c-2.1,0.8-12.2-15.4-18.1-35c-8.1-27.1-4.9-50.6-2.9-64.1
	c1.7-11.9,2.4-8.6,11.4-49C851.3,642.1,853.1,632,853.8,632.1z"/>
<path id="Shape" class="st3" d="M374.3,917.9c-0.9-2.4-2.6-5.9-5.6-9.4c-3.3-3.9-6.1-5.3-8.3-6.9c-3.9-3-5.4-6.7-11.8-34.4
	c-3-13.2-3.3-14.7-2.8-17.4c1.3-7,5-9.4,6.9-18.4c0.9-4.3,0.9-7.4,0.7-13.2c-0.3-8.8-0.5-17.8-4.2-28.1c-3.3-9.5-7.1-20-17-24.7
	c-6.9-3.2-13.7-2.1-19.8-1c-12.3,2.2-15,6.8-27.8,12.5c-6.4,2.8-24.8,11-46.6,9.7c-9.7-0.6-15.1-2.7-21.2,1
	c-6.4,4-9.1,11.6-11.1,17.4c-2.5,7.1-3.1,13.3-3.1,17.4c-1.3,4.3-3.3,10.8-5.6,18.8c-6.4,22.8-6.4,27-10.8,39.3
	c-4.4,12.5-7.2,20.3-13.9,29.2c-2.2,2.9-2.3,2.6-22.6,22.2c-10.4,10-15.9,15.5-18.4,24.7c-1,3.6-2.6,9.3,0.3,13.2
	c0.9,1.1,3.8,4.4,21.5,3.8c8.2-0.3,9.3-1,17.7-1.7c15.5-1.3,27.6,0,33.7,0.7c5.8,0.6,10.6,1.5,13.9,2.1c3.2,0.3,8,0.9,13.6,2.4
	c10.1,2.8,13.2,5.9,22.2,9.7c5.5,2.3,16.8,7,30.6,6.6c9.4-0.3,17-2.8,21.9-4.9c7.2,1.1,13.1,0.6,17,0c6.8-1.1,12-3.3,16.3-5.2
	c5.2-2.3,4.9-2.8,11.5-5.9c11.5-5.6,13.4-4.6,16.7-7.6c2.4-2.2,4.6-5.7,5.9-20.2C375,941.9,375.5,931.1,374.3,917.9L374.3,917.9z
	 M209,945.5c0.8,5.5,2.4,9.9,0,12.3c-3.1,3-8.4-1.3-21.8-0.6c-2.2,0.1-3.5,0.3-10,0.8c-5.7,0.4-5.5,0.3-9.1,0.6
	c-5.8,0.5-6.3,0.8-8.7,0.6c-4.3-0.4-6.5-0.5-8.3-2.1c-2.9-2.5-3.4-7.1-2.8-10.2c1-6.2,6.1-8.8,15.2-16.3c3.8-3.1,9.3-7.9,15.5-14.6
	c3.7-4.9,7.3-10,11-15.3c1.7-2.5,3.3-4.9,4.9-7.4c1.5-4.1,3.4-9.8,5.3-16.7c5-18.2,5.1-29.5,6.8-29.6c2,0,3.7,14.8,4.4,22.9
	c0.8,10.4,0.6,19,0.2,24.8c1,1.9,2.4,5.1,2.8,9.3c0.5,4.7-0.4,8.5-1.1,10.6C207.9,928.1,207.9,938.4,209,945.5L209,945.5z"/>
<path id="Path_00000065766277761444187370000018421450606640587668_" class="st2" d="M209.5,793c-13.3,21.6-4.8,47-1,70.1
	c1.1,6.8,1.7,13.6,1.4,20.4c-0.2,3.2-0.6,6.4-0.2,9.7c0.4,3,1.5,5.7,2.2,8.6c1.9,7.5-0.8,15.1-2.3,22.4c-1.3,6.3-2.6,12.6-2.8,19
	c-0.4,10.1,2.1,20.9,9.4,28.2c8.1,8.1,19.9,6.8,29.6,11.9c10.1,5.4,19.6,9.9,31.2,11c5.7,0.5,11.6,0.3,17.2-0.7
	c6-1,11.6-3.9,17.6-4.9c5.7-0.9,11.2,1.1,16.9-0.4c6.4-1.6,12.6-5.2,18.6-7.9c6.2-2.8,12.4-5.7,18.7-8.5c4.1-1.9,7.8-3.6,8.8-8.4
	c1.3-6,0.6-13.1,0.7-19.2c0.2-6.4,0.7-12.8,0.3-19.2c-0.2-4.1-0.8-8.2-2.5-11.9c-2.6-5.8-8.1-7.6-11.7-12.4
	c-7.1-9.8-10.7-23.5-12.7-35.3c-0.6-3.7-1-7.4-1.3-11.1c-0.2-3.8,1.1-6.2,2.5-9.5c2-4.7,3.3-9.7,3.9-14.7
	c1.6-11.6,0.1-23.5-2.6-34.8c-2.3-9.6-5.4-20.3-13.1-27.1c-20.2-17.8-46.7,3.1-65.4,11.9c-6.9,3.2-14.1,5.3-21.7,5.3
	c-7.3,0-14.5-1.4-21.8-0.9c-9.7,0.6-19.8,5-23.1,14.7c-0.6,1.8,2.3,2.6,2.9,0.8c4-11.7,17.9-13,28.4-12.4c11.2,0.7,21.4,1.4,32-2.8
	c18.2-7.2,37.1-25.4,58.2-19c11.6,3.5,16.5,14.8,19.5,25.6s4.9,22,4.3,33.2c-0.3,5.5-1.3,11-3.1,16.3c-0.8,2.4-1.9,4.8-3.1,7.1
	c-1.3,2.6-1,4.5-0.8,7.5c0.7,10.8,3,21.4,6.9,31.5c1.7,4.4,3.6,8.8,5.9,13c2.5,4.4,5.9,6.2,9.4,9.6c8,7.6,5.9,21.1,5.6,31
	c-0.2,6.3-0.4,12.6-0.6,18.9c-0.1,4.2-1,6.6-4.6,8.7c-2.9,1.7-6.2,2.9-9.3,4.2c-5.6,2.6-11.3,5.1-16.9,7.7
	c-6.4,2.9-12.8,6.6-20.1,6.2c-4.8-0.2-8.7-0.8-13.4,0.5c-5.8,1.7-11.3,3.8-17.3,4.5c-11.5,1.4-23.4-0.4-33.8-5.4
	c-4.4-2.1-8.5-4.9-13-6.9c-4.7-2.1-9.6-2.6-14.6-3.8c-11.8-2.8-18.1-14-19.1-25.4c-1.2-13.6,4-26.3,5.6-39.6
	c0.9-6.7-2.6-12.3-3.1-18.9c-0.4-6.7,0.7-13.3,0-20.1c-2.5-25.1-15-53-0.5-76.7C213.2,792.8,210.6,791.3,209.5,793L209.5,793z"/>
<path id="Path_00000059308823073212921490000018056563566129779848_" class="st2" d="M211.4,792.7c17.5-2.6,31.2,11.4,38.5,25.6
	c7,13.4,10.6,28.3,18.3,41.4c6.5,11,16,20.2,28.8,23c11.3,2.5,23.8,0.1,33.1-6.9c12.5-9.4,17.9-24.9,20.7-39.7
	c0.4-1.9-2.5-2.7-2.9-0.8c-2.6,13.5-7.2,28-18.2,37c-11.1,9.1-27.5,11-40.4,4.5c-26.7-13.3-26.9-49.6-43.9-71
	c-8.4-10.6-21.2-18-35-16C208.7,790.1,209.5,793,211.4,792.7L211.4,792.7z"/>
<path id="Path_00000111872251517739638160000003876711909672223111_" class="st2" d="M317.1,888.1c0.1,0.2,0.2,0.3,0.3,0.5
	c0.1-0.6,0.2-1.2,0.2-1.8c-0.2,0.2-0.3,0.3-0.5,0.5c0.6-0.1,1.2-0.2,1.8-0.2c-1.7-0.9-2.5-4.7-3.1-6.4c-0.9-2.6-1.5-5.4-2-8.1
	c-0.3-2.1-1.7-17.8,2.7-16.3c1.3,0.5,2.3,5.9,2.7,7.3c0.7,2.7,1.1,5.5,1.4,8.3c0.3,2.7,0.3,5.4,0.4,8c0,1.2,0.1,2.4,0.1,3.6
	c0,0.6,0,1.2-0.1,1.8c0.2,0.7-0.1,1.2-0.8,1.5c0.2-1.9-2.8-1.9-3,0c-0.2,2,1.4,3.6,3.5,3.4c2.9-0.3,3.3-3.5,3.3-5.8
	c0.2-5.4-0.1-11.1-0.9-16.4c-0.6-4.4-1.5-10.7-4.7-14.1c-5.9-6.4-7.9,6.1-8,9.5c-0.3,5.3,0.4,10.6,1.8,15.6c0.9,3,2.2,9.1,5.3,10.7
	c0.6,0.3,1.3,0.3,1.8-0.2c0.2-0.2,0.3-0.3,0.5-0.5c0.5-0.5,0.6-1.3,0.2-1.8c-0.1-0.2-0.2-0.3-0.3-0.5
	C318.7,884.9,316.1,886.4,317.1,888.1L317.1,888.1z"/>
<path id="Path_00000079466021438503334220000017549873876020443311_" class="st2" d="M293.1,942.3c0.5,16,1.9,32,4.2,47.8
	c0.3,1.9,3.2,1.1,2.9-0.8c-2.2-15.6-3.6-31.3-4.1-47C296,940.4,293,940.4,293.1,942.3L293.1,942.3z"/>
<path id="Path_00000067218757910503115890000001254852356114464959_" class="st2" d="M295.2,943c7.1-10,19.8-14.2,30.8-18
	c12.1-4.2,24.4-7.4,37-9.7c1.9-0.3,1.1-3.2-0.8-2.9c-14.4,2.6-28.6,6.5-42.3,11.6c-10.3,3.9-20.8,8.3-27.4,17.5
	C291.5,943.1,294.1,944.6,295.2,943z"/>
<path id="Path_00000077303686879616120120000002570534600170423213_" class="st2" d="M295.7,943.6c11.8,6.3,23.3,11.1,36.9,7.5
	c13-3.5,25.1-10.8,35.3-19.3c1.5-1.2-0.6-3.3-2.1-2.1c-9.5,7.9-20.5,14.5-32.3,18.1c-13.4,4.1-24.5-0.3-36.3-6.7
	C295.5,940.1,294,942.7,295.7,943.6L295.7,943.6z"/>
<path id="Path_00000066486132985039432720000015737624970067194801_" class="st2" d="M342.3,941.2c0.8,3.9,1.6,7.9,2.4,11.8
	c0.4,1.9,3.3,1.1,2.9-0.8c-0.8-3.9-1.6-7.9-2.4-11.8C344.8,938.5,341.9,939.3,342.3,941.2z"/>
<path id="Path_00000121980626833750104690000002698169709899303846_" class="st2" d="M349,938.4c0.4,3.7,0.7,7.4,1.1,11.1
	c0.2,1.9,3.2,1.9,3,0c-0.4-3.7-0.7-7.4-1.1-11.1C351.8,936.5,348.8,936.4,349,938.4z"/>
<path id="Path_00000008853495768661363590000002509993464940743301_" class="st2" d="M212.1,916.7c-1.9,5.5,0,10.5,6.5,9.4
	c1.6-0.3,3-1,4.6-1.5c0.9-0.3,2.2-0.8,3.2-0.7c5.1,0.7,2.2,2.4,3.5,4.2c1.5,2,2.4,3,5.1,3c3.6-0.1,10.7-3.5,13.1,0.9
	c0.9,1.8,0,6.6,0,8.8c0,2.6,0.1,5.2,0.1,7.8c0.2,11.4,0.5,22.8,0.9,34.1c0.1,1.9,3.1,1.9,3,0c-0.7-17.5-1-35.1-1.1-52.7
	c0-0.5-0.3-1.1-0.7-1.3c-3.3-1.5-6.6-2.2-10.2-1.7c-2.5,0.3-3.6,1.3-6-0.1c-2.3-1.3-1.5-2.1-2.9-3.9c-1.5-1.9-3.7-2.3-6-2
	c-1.6,0.2-2.9,0.9-4.4,1.4c-0.8,0.3-1.8,0.8-2.7,0.8c-2.2-0.1-3.8-3.5-3-5.6C215.6,915.7,212.7,914.9,212.1,916.7L212.1,916.7z"/>
<path id="Path_00000127761934720064814220000000511935634116703378_" class="st2" d="M205.5,817.6c0.1-11.5,3.8-32.3,20.2-28.3
	c1.9,0.5,2.7-2.4,0.8-2.9c-6.9-1.7-13.7,1.3-18,6.8c-5.4,6.8-6,16-6,24.4C202.5,819.6,205.5,819.6,205.5,817.6z"/>
<path id="Path_00000145771422133940407170000014030158323362889917_" class="st2" d="M202.8,811.3c-2.2,4.6,0.9,9.3,3.7,13.1
	c2.9,4,7.3,7.6,12.5,6.5c2.9-0.6,4.9-3.2,7.8-3.7c3.2-0.7,6.3,2.1,9.5,2c6.8-0.3,10.9-6.8,15.8-10.4c1.5-1.1,0.1-3.7-1.5-2.6
	c-3.9,2.8-6.9,7.2-11.4,9.1c-4.7,2-7.5-1.5-12-1.2c-4.5,0.3-7.1,4.9-11.9,3.7c-4-1-12-10.2-9.8-15
	C206.2,811.1,203.6,809.5,202.8,811.3L202.8,811.3z"/>
<path id="Path_00000105385715885306271430000016377185066848317363_" class="st2" d="M203.6,809.5c-4.8,21-10.4,41.8-16.7,62.3
	c-3,9.7-5.8,19.8-10.8,28.8c-4.3,7.7-10.2,14.2-16.5,20.3c-11,10.6-23.7,20.6-29.9,35c-2.5,5.8-3.2,11.8,2.5,15.9
	c6.3,4.6,15.6,4.4,22.9,3.7c11.2-1.1,22.3-4.6,33.6-3.7c10.8,0.9,21.1,5.3,31.9,2.1c1.8-0.6,1.1-3.4-0.8-2.9
	c-9.7,2.9-19.2-0.8-28.9-2c-8-1-16,0.3-23.8,1.6c-9.4,1.6-20,3.9-29.3,0.6c-5.8-2-8.3-6.3-6.2-12.2c1.4-3.9,3.5-7.6,5.9-10.9
	c8.5-12.2,20.9-21,30.9-31.9c11.2-12.3,16.3-27,21.2-42.7c6.4-20.9,12.1-42,17-63.3C207,808.4,204.1,807.6,203.6,809.5L203.6,809.5z
	"/>
<path id="Path_00000057857341356564840420000006304824700365599134_" class="st2" d="M203.7,842.7c-1.8,18.9-3.8,38.3-13.1,55.3
	c-4.1,7.6-9.4,14.5-15.6,20.4c-5.7,5.4-12.3,9.7-18.2,14.8c-4.4,3.8-10.7,9.5-11.1,15.8c-0.4,5.7,4.4,10.2,9.5,11.7
	c8.2,2.5,18.1-0.5,26.5-1c9.8-0.5,19.7-0.2,29.5,0.8c1.9,0.2,1.9-2.8,0-3c-9.1-1-18.3-1.3-27.5-0.9c-3.9,0.2-7.9,0.5-11.8,0.9
	c-4.6,0.5-9.5,1.6-14.1,0.7c-5.7-1.1-10.6-5.6-8.2-11.8c1.5-3.7,4.7-6.9,7.6-9.6c5.3-5,11.5-8.9,16.9-13.7
	c10.3-8.9,18.4-20.4,23.5-33c6.1-15.1,7.6-31.5,9.2-47.6C206.9,840.8,203.9,840.8,203.7,842.7L203.7,842.7z"/>
<path id="Path_00000089575074842123638210000011572104976452111549_" class="st2" d="M229.5,928c0.9,8.9,2.3,17.6,4.3,26.3
	c0.4,1.9,3.3,1.1,2.9-0.8c-1.9-8.4-3.3-16.9-4.2-25.6C232.3,926.1,229.3,926.1,229.5,928z"/>
<path id="Path_00000065782281705785950890000007832108225309435781_" class="st2" d="M254.5,801.7c16,12.3,41.8,19.4,60.5,9
	c1.7-0.9,0.2-3.5-1.5-2.6c-17.8,9.8-42.4,2.6-57.4-9C254.4,797.9,252.9,800.5,254.5,801.7z"/>
<path id="Path_00000176761458506028775440000009707661440078380172_" class="st2" d="M205.8,814.5c-0.6-7.2,0.8-15.6,5.8-21.1
	c5-5.4,12.8-4.9,19.6-4.9c12.5,0.2,25.1,1.5,37-2.9c1.8-0.7,1-3.6-0.8-2.9c-15.3,5.7-31,1.2-46.7,3.2c-13.7,1.8-18.9,16.2-17.9,28.6
	C202.9,816.4,205.9,816.5,205.8,814.5L205.8,814.5z"/>
<path id="Path_00000052805886957201502070000005981987057460095112_" class="st2" d="M206.4,817.4c1-6.9,3.2-13.4,7-19.3
	c2-3.1,4.1-6,7.6-7.3c3.4-1.3,7.4-0.8,11-0.8c12.1,0.2,24.5,0.6,35.5-5.2c1.7-0.9,0.2-3.5-1.5-2.6c-7.2,3.8-15.1,4.8-23.1,4.9
	c-6.8,0.1-14.1-1.1-20.8,0.2c-11.7,2.3-17.1,19.1-18.6,29.2C203.2,818.4,206.1,819.3,206.4,817.4L206.4,817.4z"/>
<path id="Path_00000033341041712420333650000011254474431285414577_" class="st2" d="M205.5,814.8c0.7-9.1,1.8-20.8,10.8-25.8
	c4.9-2.7,11.3-2.1,16.7-2.2c4.7,0,9.4,0.1,14.2,0c9.1-0.2,18.2-0.9,26.9-3.9c8.3-2.9,16-7.4,23.5-11.9c1.7-1,0.2-3.6-1.5-2.6
	c-9.1,5.4-18.4,10.9-28.8,13.3c-11.5,2.7-23.4,2-35.1,2.1c-8.6,0.1-16.9,0.1-22.7,7.4c-5.3,6.7-6.1,15.4-6.8,23.6
	C202.4,816.7,205.4,816.7,205.5,814.8L205.5,814.8z"/>
<path id="Path_00000165213351495548041220000000149214484028205457_" class="st13" d="M273.9,783.9c4.3,4-1.3,11.6,2.6,18.4
	c5.1,8.8,19.8,9.9,31,9.4c-5.9,1.6-14.9,5.3-19.9,13.6c-8.8,14.6-2.7,39,18.4,56.2c1.9,15,3.8,30.1,5.8,45.1
	c-5.6,4.9-11.2,9.8-16.8,14.7c0.2,16.8,0.3,33.6,0.5,50.4c-5,1.8-12.8,3.8-22,2.6c-9.2-1.1-11.3-4.3-28.9-11.5
	c-16.3-6.7-18.7-5.6-24.1-10.5c-10-8.9-11.9-21.4-12.1-22.6c-1.3-9.2,2.4-10.4,4.2-28.9c0.9-9.6,0.7-17.2,0.5-19.9
	c-0.4-8.9-1.5-12.2-2.6-22c-1.4-11.7-0.7-14.1-1.6-25.2c-2.2-28.6-8.1-33.8-4.2-48.3c1.6-5.9,3.5-13.3,10-17.3
	c8.1-5.1,14,0.9,31-0.5C262,786.2,269.5,779.6,273.9,783.9L273.9,783.9z"/>
<path id="Path_00000139251991792388802790000000905875920043801509_" class="st7" d="M218.3,790.7c-11.1,2.1-18.8,19.5-13.6,29.9
	c1.7,3.4,5.6,7.8,10.5,8.4c4,0.5,5-2.1,11-2.6c6.1-0.5,7.2,1.9,12.1,1c3.6-0.6,8.9-3.1,10.5-7.3c2.8-7.5-7.4-16.6-11-19.9
	C232.1,795.1,225.7,789.3,218.3,790.7z"/>
<path id="Path_00000177469201431988216000000002498999004758705817_" class="st14" d="M211.5,857.4c2.4-0.4,7.9,32.5,19.4,64.6
	c10.8,29.9,24.5,52.8,35.2,68.2c-8.6-4.3-15.9-6.9-21-8.4c-6.7-2-11.6-2.8-18.4-6.3c-5-2.6-8.7-5.4-11-7.3
	c-2.2-2.8-5.3-7.4-6.3-13.6c-0.4-2.3-0.3-3.4,0.5-13.6c1.1-14.8,1.1-15.3,1.6-17.8c1.5-8.2,2.8-8.1,3.1-13.6
	c0.4-5.2-0.7-6.2-2.1-16.3c-1.2-8.8-1.4-15.5-1.6-19.9C210.7,863.4,210.5,857.5,211.5,857.4L211.5,857.4z"/>
<rect x="170.9" y="-307.3" class="st12" width="243.7" height="125.1"/>
<rect x="621.6" y="-298.7" class="st1" width="299.7" height="133.7"/>
</svg>
