<?xml version="1.0" standalone="no"?>
<!DOCTYPE svg PUBLIC "-//W3C//DTD SVG 20010904//EN"
 "http://www.w3.org/TR/2001/REC-SVG-20010904/DTD/svg10.dtd">
<svg version="1.0" xmlns="http://www.w3.org/2000/svg"
 width="450.000000pt" height="460.000000pt" viewBox="0 0 450.000000 460.000000"
 preserveAspectRatio="xMidYMid meet">

<g transform="translate(0.000000,460.000000) scale(0.100000,-0.100000)"
fill="#000000" stroke="none">
<path d="M2260 4390 c0 -6 -5 -10 -11 -10 -20 0 -115 -132 -148 -207 -5 -11
-15 -24 -20 -28 -6 -3 -11 -15 -11 -26 0 -11 -4 -18 -9 -14 -18 10 -33 -33
-21 -57 10 -21 10 -21 -3 -5 -13 15 -16 15 -27 3 -6 -9 -8 -21 -4 -27 4 -8 3
-9 -4 -5 -7 4 -20 -6 -31 -26 -11 -18 -24 -37 -28 -43 -37 -44 -62 -83 -57
-88 4 -4 1 -14 -7 -23 -11 -14 -12 -18 -1 -22 9 -2 3 -9 -13 -18 -32 -16 -55
-18 -55 -4 0 6 -17 1 -37 -10 -21 -11 -47 -20 -59 -20 -12 0 -32 -8 -45 -18
-13 -10 -35 -23 -49 -30 -14 -7 -38 -20 -54 -29 -44 -24 -90 -23 -94 2 -2 14
-16 24 -42 33 -53 16 -67 15 -91 -7 -29 -27 -71 -34 -86 -14 -10 13 -27 16
-70 14 -72 -4 -82 -4 -113 -2 -14 1 -44 -2 -67 -7 -28 -6 -43 -6 -43 0 0 6
-14 8 -34 4 -39 -7 -86 7 -86 27 0 8 -16 31 -35 51 -19 21 -35 35 -35 31 0 -3
-14 10 -31 30 -17 19 -35 32 -40 29 -5 -3 -9 0 -9 6 0 7 -9 25 -20 40 -11 16
-29 70 -39 120 -11 50 -25 98 -32 107 -7 8 -14 22 -15 30 -3 19 -14 30 -14 14
0 -7 -5 -9 -10 -6 -6 3 -10 16 -10 27 0 46 -15 3 -17 -48 -1 -31 -8 -63 -15
-71 -10 -12 -13 -62 -13 -192 0 -97 -5 -185 -10 -195 -6 -14 -5 -21 3 -24 7
-2 10 -8 6 -13 -3 -5 2 -9 10 -9 17 0 32 -58 23 -92 -8 -27 12 -190 24 -203 5
-5 9 -17 9 -27 0 -10 7 -30 16 -43 9 -13 13 -29 10 -34 -4 -5 -2 -13 4 -16 16
-10 260 -13 266 -4 2 4 10 7 17 5 7 -1 9 -1 5 1 -13 7 -9 40 6 52 11 9 15 6
20 -15 5 -20 1 -33 -15 -50 -15 -16 -18 -24 -9 -24 7 0 22 -7 32 -17 11 -9 18
-11 18 -5 0 7 5 12 10 12 6 0 10 -9 10 -20 0 -29 64 -95 115 -120 48 -23 247
-43 278 -28 10 5 17 5 17 -1 0 -5 23 -14 52 -20 40 -9 53 -9 60 1 6 10 8 10 8
0 0 -10 20 -13 83 -11 105 2 157 18 213 64 35 29 50 36 70 31 15 -4 22 -11 18
-18 -5 -7 1 -9 18 -5 18 5 28 2 32 -8 3 -8 15 -15 27 -15 28 0 185 79 181 92
-1 5 2 7 8 3 6 -4 31 10 55 30 38 31 55 37 114 44 56 6 70 4 78 -8 9 -14 13
-13 36 2 14 9 40 17 56 17 16 0 42 5 56 10 22 8 28 7 32 -7 2 -10 21 -28 41
-41 20 -13 50 -43 65 -68 21 -32 35 -44 53 -44 14 0 24 -6 24 -15 0 -23 72
-36 239 -42 194 -7 192 -7 274 -1 46 3 70 1 75 -7 4 -7 22 -17 41 -24 31 -10
39 -9 73 14 20 14 42 25 47 25 17 0 53 60 66 112 8 27 22 59 32 70 24 26 87
58 125 63 16 2 40 11 54 19 20 14 22 20 14 41 -10 25 -8 63 8 215 5 47 9 94 9
105 1 53 14 399 18 470 2 44 1 86 -4 94 -16 25 -47 3 -60 -42 -37 -126 -169
-297 -230 -297 -6 0 -72 -29 -146 -65 -137 -67 -151 -72 -157 -56 -2 6 -30 6
-75 1 -40 -5 -79 -7 -87 -4 -8 3 -27 -1 -43 -9 -47 -24 -157 -41 -182 -28 -12
7 -18 17 -15 26 4 8 1 15 -6 15 -6 0 -8 -4 -5 -10 3 -5 0 -10 -8 -10 -8 0 -22
-9 -32 -20 -23 -26 -31 -25 -38 2 l-6 23 -21 -23 c-23 -24 -37 -27 -60 -12
-12 8 -13 13 -3 29 14 22 2 37 -19 25 -7 -4 -8 -3 -4 5 8 12 -47 129 -68 146
-7 6 -29 59 -49 119 -21 59 -49 127 -62 151 -14 23 -25 57 -25 76 0 27 -6 37
-30 51 -17 9 -30 24 -30 33 0 8 -6 15 -13 15 -7 0 -17 8 -23 18 -12 19 -64 29
-64 12z m330 -640 c0 -5 -7 -10 -15 -10 -8 0 -15 5 -15 10 0 6 7 10 15 10 8 0
15 -4 15 -10z m41 -51 c28 -14 14 -29 -15 -16 -13 7 -22 15 -20 19 7 10 12 10
35 -3z m554 2 c-14 -12 -95 -23 -95 -13 0 17 14 22 59 22 26 0 41 -4 36 -9z
m-551 -76 c-4 -8 -13 -15 -21 -15 -13 0 -13 3 -3 15 7 8 16 15 21 15 5 0 6 -7
3 -15z m27 -13 c-11 -21 -51 -58 -51 -48 0 5 9 21 21 37 22 32 46 41 30 11z
m1053 -246 c-3 -9 -13 -16 -22 -16 -13 0 -12 3 3 20 20 23 29 21 19 -4z
m-2836 -56 c-7 -10 -14 -17 -17 -15 -4 4 18 35 25 35 2 0 -1 -9 -8 -20z m1702
-10 c0 -5 -7 -10 -15 -10 -8 0 -15 5 -15 10 0 6 7 10 15 10 8 0 15 -4 15 -10z
m-1765 -10 c-3 -5 -10 -10 -16 -10 -5 0 -9 5 -9 10 0 6 7 10 16 10 8 0 12 -4
9 -10z m155 -55 c0 -8 -4 -15 -10 -15 -5 0 -10 7 -10 15 0 8 5 15 10 15 6 0
10 -7 10 -15z m2350 -34 c0 -5 -7 -14 -15 -21 -8 -7 -12 -16 -9 -21 3 -5 1 -8
-4 -7 -5 2 -23 -12 -39 -29 -33 -35 -79 -49 -52 -16 24 29 104 103 112 103 4
0 7 -4 7 -9z m-2230 -58 c0 -22 -2 -24 -15 -13 -8 7 -15 21 -15 31 0 12 5 16
15 13 8 -4 15 -17 15 -31z m1680 22 c0 -21 -13 -55 -20 -55 -4 0 -10 15 -12
33 -3 26 0 33 14 33 10 0 18 -5 18 -11z m426 -12 c-10 -10 -19 5 -10 18 6 11
8 11 12 0 2 -7 1 -15 -2 -18z m-1676 1 c0 -10 -46 -50 -66 -58 -12 -5 -6 6 15
28 33 34 51 44 51 30z m1448 -14 c-7 -11 -16 -20 -21 -20 -4 0 -3 9 3 20 6 11
15 20 20 20 6 0 5 -9 -2 -20z m-1563 0 c10 -16 -5 -50 -22 -50 -10 0 -13 6 -9
16 3 9 6 22 6 30 0 16 16 19 25 4z m1785 -12 c0 -16 -31 -48 -47 -48 -19 0
-16 17 7 40 22 22 40 26 40 8z m211 -20 c-7 -33 -23 -41 -29 -15 -2 12 22 47
32 47 2 0 0 -15 -3 -32z m-321 2 c0 -21 -39 -49 -59 -43 -12 3 -21 9 -21 13 0
14 28 30 43 24 8 -3 18 -1 22 5 8 14 15 14 15 1z m-1520 -14 c0 -8 5 -16 12
-18 25 -9 -5 -28 -43 -28 -46 0 -55 24 -12 35 21 5 24 8 12 16 -11 7 -9 9 9 9
12 0 22 -6 22 -14z m1380 4 c0 -5 -5 -10 -11 -10 -5 0 -7 5 -4 10 3 6 8 10 11
10 2 0 4 -4 4 -10z m-72 -11 c-2 -6 -8 -10 -13 -10 -5 0 -11 4 -13 10 -2 6 4
11 13 11 9 0 15 -5 13 -11z"/>
<path d="M980 3720 c0 -5 5 -10 11 -10 5 0 7 5 4 10 -3 6 -8 10 -11 10 -2 0
-4 -4 -4 -10z"/>
<path d="M3754 3138 c-11 -13 -42 -39 -71 -58 -32 -21 -54 -43 -58 -59 -16
-62 -67 -120 -110 -125 -16 -2 -36 -34 -33 -53 2 -10 -2 -18 -8 -18 -6 0 -24
-16 -40 -35 -16 -19 -31 -37 -34 -40 -10 -8 -50 -77 -50 -84 0 -4 6 -4 13 0
22 13 2 -5 -32 -28 -20 -13 -39 -38 -45 -58 -7 -19 -18 -34 -25 -32 -7 1 -10
-2 -6 -8 3 -5 1 -10 -4 -10 -6 0 -11 -7 -11 -15 0 -8 -5 -15 -11 -15 -5 0 -7
-4 -4 -10 10 -17 -6 -34 -17 -19 -7 11 -8 9 -4 -4 3 -10 -1 -32 -10 -49 -9
-17 -14 -38 -11 -48 3 -14 1 -17 -11 -13 -11 5 -14 2 -9 -11 5 -12 -1 -20 -18
-28 -14 -6 -25 -16 -25 -21 0 -5 7 -4 15 3 19 16 19 7 0 -30 -18 -36 -25 -38
-18 -7 4 21 3 21 -11 -3 -8 -14 -16 -36 -17 -50 -1 -20 -3 -18 -9 10 -4 19 -8
27 -9 18 0 -10 -6 -18 -11 -18 -7 0 -10 -23 -8 -57 3 -64 -5 -85 -27 -76 -11
4 -15 -3 -15 -28 0 -26 -3 -30 -10 -19 -8 13 -10 12 -10 -3 0 -10 -9 -28 -20
-40 -18 -18 -22 -20 -30 -7 -7 11 -10 0 -10 -35 -1 -55 -19 -89 -43 -79 -12 4
-14 1 -10 -17 4 -14 2 -20 -5 -15 -6 3 -13 -6 -17 -24 -4 -17 -15 -36 -26 -43
-10 -6 -19 -21 -19 -33 0 -25 -45 -51 -54 -31 -3 7 -5 -1 -5 -18 1 -16 1 -36
0 -42 -2 -19 -29 -15 -34 5 -3 10 -5 6 -6 -11 -1 -29 -21 -57 -40 -57 -13 0
-14 -6 -2 -29 14 -26 2 -61 -20 -61 -12 0 -19 -7 -19 -20 0 -17 -3 -19 -18
-11 -24 13 -42 -4 -42 -36 0 -13 -5 -23 -12 -23 -6 0 -9 -3 -5 -6 3 -3 -12
-32 -34 -64 -21 -31 -39 -61 -39 -66 0 -4 -8 -17 -19 -28 -21 -25 -41 -98 -41
-155 0 -23 -4 -41 -9 -41 -4 0 -6 -32 -3 -71 3 -49 2 -70 -6 -65 -5 3 -10 42
-11 85 -1 92 -6 111 -32 111 -10 0 -28 8 -39 17 -15 13 -17 20 -7 31 10 13 8
14 -11 8 -19 -7 -22 -4 -22 23 0 33 -16 42 -23 14 -3 -10 -5 -65 -6 -123 -6
-372 -9 -478 -16 -503 -6 -23 -5 -26 10 -21 14 6 15 2 10 -27 -3 -19 -7 -62
-8 -96 -2 -52 -5 -63 -21 -67 -24 -6 -63 14 -95 48 -14 14 -30 26 -37 26 -7 0
-18 9 -24 21 -7 11 -18 18 -25 15 -7 -2 -25 6 -40 20 -16 15 -34 23 -44 19
-11 -3 -30 7 -54 31 -24 25 -42 35 -55 32 -21 -6 -113 40 -119 58 -5 14 45 25
53 12 3 -5 15 -2 25 8 18 16 19 16 19 -3 0 -28 22 -54 38 -44 9 5 15 46 18
137 3 71 10 139 16 151 8 15 9 100 5 262 -4 192 -8 243 -21 262 -13 20 -14 52
-11 188 3 118 8 167 17 174 9 6 8 7 -5 3 -12 -4 -17 -2 -14 6 6 18 -10 46 -33
58 -11 6 -19 7 -18 3 1 -4 -1 -18 -6 -31 -8 -23 20 -102 36 -102 4 0 8 -9 8
-20 0 -13 -7 -20 -19 -20 -15 0 -20 -10 -26 -57 -3 -32 -9 -69 -12 -83 -3 -19
-2 -21 6 -11 14 21 18 -156 9 -394 -10 -270 -11 -398 -4 -426 6 -22 6 -22 -7
-6 -8 9 -18 17 -23 17 -5 1 -20 24 -34 52 l-25 51 0 306 c0 168 3 395 7 504 8
189 7 197 -11 197 -10 0 -21 9 -24 20 -8 31 -30 24 -52 -16 -13 -25 -24 -34
-37 -31 -9 3 -22 -1 -28 -8 -17 -20 -30 -164 -31 -345 -1 -150 -2 -159 -12
-100 -9 61 6 686 17 698 3 2 20 -7 38 -21 18 -13 43 -28 56 -32 21 -6 23 -4
20 21 -2 19 -13 32 -35 43 -23 12 -32 25 -37 49 -3 19 -10 40 -17 48 -16 19
-45 18 -54 -3 -4 -10 -9 -135 -11 -278 -5 -301 -6 -310 -34 -295 -19 10 -20
22 -20 219 0 114 -3 211 -7 215 -5 4 -8 18 -9 29 -7 195 -25 38 -32 -288 -6
-236 -8 -265 -14 -186 -5 52 -8 222 -8 378 0 176 -4 283 -10 283 -5 0 -9 -31
-7 -72 3 -95 -4 -436 -8 -423 -2 6 -6 23 -9 38 -5 22 -12 28 -29 25 -16 -2
-23 -11 -25 -32 -2 -16 -7 -25 -10 -19 -4 6 -4 69 0 140 9 191 9 441 -1 447
-4 3 -14 -7 -22 -22 -9 -19 -15 -88 -19 -232 l-5 -205 -8 110 c-4 61 -11 142
-14 180 -7 65 -8 67 -13 30 -4 -22 -6 28 -6 112 1 135 -7 194 -22 154 -3 -9
-9 -2 -18 18 -11 27 -44 44 -44 24 0 -5 -1 -81 -3 -170 -2 -144 -7 -186 -21
-172 -8 7 -9 366 -2 377 3 6 2 13 -2 16 -5 3 -7 29 -4 59 5 59 -10 100 -32 91
-8 -3 -17 -1 -21 5 -17 29 -25 3 -25 -83 0 -67 4 -96 13 -99 9 -3 9 -11 0 -37
-7 -18 -20 -90 -28 -159 -25 -201 -45 -325 -56 -336 -5 -5 -9 -41 -9 -80 0
-38 -6 -88 -12 -110 -7 -22 -13 -84 -13 -139 -1 -82 -4 -100 -19 -108 -14 -8
-17 -22 -15 -84 2 -66 -1 -78 -26 -114 -15 -22 -30 -38 -33 -35 -3 3 -5 102
-5 220 1 174 5 221 17 247 10 20 16 58 16 106 0 51 5 81 14 91 11 13 16 78 21
302 9 320 1 484 -20 475 -8 -3 -17 3 -20 15 -6 19 -25 25 -38 12 -4 -3 0 -14
8 -23 8 -9 18 -45 22 -81 6 -59 5 -63 -10 -50 -13 10 -15 25 -12 62 4 40 1 52
-16 68 -20 19 -21 27 -16 155 5 144 1 160 -40 150 -24 -7 -33 -31 -33 -93 0
-72 -10 -40 -16 50 -7 106 -14 118 -48 84 -11 -12 -13 -22 -6 -40 5 -14 10
-177 10 -363 0 -442 5 -803 13 -927 5 -81 18 -427 18 -485 0 -8 -1 -24 -3 -35
-2 -14 2 -19 13 -17 9 1 19 -5 23 -13 4 -11 2 -14 -7 -9 -6 3 3 -8 22 -26 23
-24 35 -29 41 -21 5 9 9 8 14 -5 3 -9 4 -19 1 -22 -3 -3 -5 1 -5 8 0 7 -2 11
-5 8 -12 -11 7 -37 23 -31 11 5 14 2 9 -9 -5 -15 33 -50 163 -148 25 -19 70
-57 101 -86 68 -64 165 -127 284 -185 50 -24 92 -46 95 -50 3 -3 29 -18 57
-34 29 -15 53 -32 53 -37 0 -10 -3 -10 -34 2 -21 8 -26 6 -26 -6 0 -8 5 -12
10 -9 6 3 10 3 10 -2 0 -14 60 -42 78 -37 14 5 15 4 2 -5 -15 -10 -12 -12 20
-15 8 -1 14 -8 12 -15 -2 -10 5 -12 25 -7 19 5 23 4 14 -3 -11 -7 -2 -15 37
-35 28 -14 62 -26 74 -26 16 0 19 -3 10 -8 -18 -12 7 -32 88 -72 36 -18 77
-41 92 -52 16 -11 32 -17 38 -13 10 6 105 -38 115 -55 3 -5 15 -15 27 -21 15
-8 19 -8 14 0 -11 17 -2 13 24 -9 12 -11 27 -17 32 -14 5 3 26 -2 46 -12 20
-10 43 -17 51 -15 7 1 10 -2 7 -7 -3 -6 17 -22 45 -36 l51 -27 51 53 c29 28
51 55 50 59 -1 4 4 10 13 13 9 4 12 2 8 -5 -3 -6 6 -3 22 7 41 26 284 244 284
255 0 5 7 9 15 9 8 0 15 5 15 11 0 5 4 8 8 5 5 -3 27 12 49 32 22 21 46 36 52
34 6 -2 20 12 32 32 11 19 29 38 40 41 13 4 18 12 15 21 -3 8 -2 13 3 9 12 -7
41 5 41 17 0 6 -6 5 -15 -2 -8 -7 -15 -8 -15 -3 0 5 12 15 26 21 20 10 24 9
18 0 -4 -7 7 -2 24 11 18 12 30 26 27 30 -2 5 5 17 17 27 21 19 21 19 14 0 -7
-21 -11 -23 62 35 33 25 42 39 39 56 -3 18 -1 20 12 13 12 -6 23 -1 40 16 13
14 43 39 67 56 24 17 46 39 49 50 4 10 13 18 21 18 16 0 19 26 4 35 -16 10
-12 20 30 71 22 27 40 54 40 60 0 6 9 23 20 37 11 14 20 32 20 41 0 9 6 16 13
16 6 0 24 12 40 25 21 19 27 33 27 63 0 25 5 42 14 45 9 4 17 29 21 71 5 44
13 70 26 82 17 15 19 33 19 163 1 136 11 434 28 784 4 90 3 152 -3 158 -6 6
-5 21 2 42 7 18 13 122 15 242 3 208 3 210 -18 213 -13 2 -29 -6 -40 -20z
m-124 -238 c0 -6 -8 -25 -17 -43 -16 -29 -18 -30 -21 -10 -2 12 2 31 8 42 11
22 30 28 30 11z m115 -149 c3 -5 1 -12 -5 -16 -5 -3 -10 1 -10 9 0 18 6 21 15
7z m40 -201 c3 -5 1 -10 -4 -10 -6 0 -11 5 -11 10 0 6 2 10 4 10 3 0 8 -4 11
-10z m-235 -79 c0 -10 -7 -24 -15 -31 -12 -10 -15 -10 -15 3 0 23 11 47 21 47
5 0 9 -8 9 -19z m227 -118 c-3 -10 -5 -2 -5 17 0 19 2 27 5 18 2 -10 2 -26 0
-35z m-397 -78 c0 -17 -30 -34 -47 -28 -21 7 -15 33 10 42 26 10 37 6 37 -14z
m-114 -137 c-3 -13 -6 -31 -6 -40 0 -9 -7 -24 -17 -33 -15 -15 -17 -15 -25 -1
-6 10 -2 29 12 56 22 43 46 55 36 18z m501 -20 c-3 -8 -6 -5 -6 6 -1 11 2 17
5 13 3 -3 4 -12 1 -19z m-567 -104 c0 -8 -5 -12 -10 -9 -6 4 -8 11 -5 16 9 14
15 11 15 -7z m-60 -82 c0 -10 -4 -10 -16 2 -8 9 -12 21 -8 27 7 13 24 -7 24
-29z m-2473 -69 c-3 -10 -5 -4 -5 12 0 17 2 24 5 18 2 -7 2 -21 0 -30z m493
12 c0 -13 7 -28 15 -32 13 -8 14 -20 3 -91 -8 -63 -8 -86 0 -94 9 -9 12 -2 13
27 1 22 4 51 8 65 6 19 9 10 13 -39 4 -43 12 -67 22 -73 19 -11 21 -70 6 -216
-14 -131 -19 -371 -8 -399 11 -32 -1 -29 -48 15 -22 20 -32 31 -22 23 35 -27
41 1 12 57 l-27 52 21 17 c19 16 21 30 23 123 2 131 -27 307 -53 321 -32 17
-39 -19 -28 -157 6 -70 13 -131 16 -135 3 -5 -1 -20 -9 -35 -11 -22 -12 -33
-2 -62 7 -20 10 -43 7 -51 -3 -9 -12 4 -23 35 -14 39 -18 84 -18 217 -1 146
-3 167 -17 167 -15 0 -16 -24 -11 -236 3 -129 3 -234 -1 -232 -67 33 -92 71
-54 85 39 15 43 57 8 111 -18 28 -24 48 -21 82 1 24 8 46 14 48 7 2 11 45 11
128 0 81 4 123 10 119 6 -3 10 -19 10 -35 0 -32 11 -43 34 -34 10 4 16 23 18
62 3 53 5 57 28 57 19 0 25 7 31 34 4 19 5 49 2 68 -4 21 -2 33 6 33 6 0 11
-11 11 -25z m1985 -250 c-40 -208 -64 -301 -65 -257 0 6 -10 12 -21 12 -21 0
-21 2 -17 148 l5 147 37 58 c20 31 39 64 43 73 7 19 57 71 61 63 1 -3 -18
-113 -43 -244z m-2182 -13 c4 -174 3 -201 -10 -191 -11 10 -13 45 -12 173 1
149 8 255 15 231 1 -5 4 -101 7 -213z m2647 172 c0 -39 -2 -44 -14 -35 -11 9
-12 19 -3 46 6 19 12 35 14 35 2 0 3 -21 3 -46z m-550 -21 c0 -20 -3 -24 -11
-16 -7 7 -9 19 -6 27 10 24 17 19 17 -11z m-1766 -264 c4 -165 2 -197 -11
-211 -16 -18 -16 -17 3 -173 6 -47 5 -49 -11 -34 -14 14 -17 37 -17 145 0 71
4 197 10 279 5 83 10 161 11 174 0 13 3 22 6 20 2 -3 6 -93 9 -200z m1696 175
c0 -8 -5 -12 -10 -9 -6 4 -8 11 -5 16 9 14 15 11 15 -7z m-10 -95 c0 -3 -7
-20 -16 -37 -8 -18 -19 -46 -25 -64 -14 -49 13 -15 35 44 24 64 36 69 36 14 0
-34 -5 -48 -19 -55 -12 -7 -20 -27 -25 -63 -8 -60 -15 -75 -26 -57 -7 10 -11
10 -24 0 -12 -10 -16 -32 -16 -82 0 -96 -16 -94 -23 3 -6 85 -17 104 -49 87
-13 -7 -18 -22 -18 -52 0 -72 -16 -75 -24 -4 -7 68 12 137 37 137 7 0 18 9 25
20 7 12 17 18 23 14 12 -7 34 18 56 66 10 22 23 36 34 36 11 0 19 -3 19 -7z
m-2217 -190 c5 -4 8 -12 6 -18 -3 -8 -10 -8 -23 2 -14 10 -17 20 -11 33 6 15
8 16 13 4 3 -8 9 -18 15 -21z m2840 -11 c4 -15 -4 -37 -24 -68 -18 -27 -29
-54 -26 -67 2 -12 1 -20 -4 -18 -4 3 -22 -11 -41 -30 -32 -35 -33 -35 -40 -13
-10 36 -9 126 1 133 5 3 11 -7 13 -22 l4 -28 12 28 c6 15 18 27 27 27 11 0 15
10 15 36 0 31 3 35 20 29 11 -4 20 -2 20 4 0 20 18 11 23 -11z m-834 -70 c0
-35 -6 -90 -13 -123 l-13 -60 -6 47 c-4 29 -2 58 5 73 9 19 9 28 0 37 -15 15
-15 43 0 68 21 34 28 23 27 -42z m-1819 -8 c8 -14 8 -26 0 -40 -6 -11 -8 -25
-4 -31 7 -12 -18 0 -49 23 -15 11 -16 18 -8 41 13 32 45 36 61 7z m2415 -63
c0 -83 17 -88 31 -9 13 73 24 90 25 41 1 -39 16 -92 19 -69 2 8 5 -1 9 -20 9
-48 -13 -90 -46 -90 -16 0 -27 -7 -30 -18 -2 -11 -22 -30 -43 -43 -22 -13 -40
-29 -40 -35 0 -6 -24 -31 -52 -57 -29 -26 -64 -58 -78 -72 -14 -14 -29 -25
-33 -25 -15 0 5 125 24 152 14 20 20 47 21 100 l2 73 5 -85 c6 -83 7 -85 32
-88 43 -5 77 37 88 110 13 80 21 85 22 12 1 -91 15 -37 24 89 7 115 20 136 20
34z m-729 -94 c-18 -34 -22 -8 -4 34 8 21 12 24 15 11 2 -9 -3 -29 -11 -45z
m-1126 -35 c11 -18 20 -44 19 -58 0 -14 -3 -19 -6 -12 -3 7 -22 22 -44 32 -21
11 -39 27 -39 36 0 11 22 27 48 33 1 1 11 -14 22 -31z m803 -8 c33 -1 63 -113
39 -143 -6 -7 -12 -21 -14 -32 -4 -18 -5 -17 -10 5 -4 14 -11 52 -16 85 -5 33
-13 71 -16 85 -3 14 -4 19 0 13 3 -7 11 -13 17 -13z m-905 -85 c-3 -64 -5 -70
-33 -86 -33 -19 -65 -24 -65 -10 0 6 -14 23 -31 39 l-31 29 28 7 c21 6 31 3
41 -10 11 -15 13 -15 23 10 5 15 10 36 10 46 0 24 41 63 52 52 5 -5 8 -40 6
-77z m891 -133 c-1 -92 -5 -156 -10 -142 -11 40 -11 322 1 315 7 -4 10 -68 9
-173z m566 -10 c-10 -11 -11 4 -6 88 l6 85 3 -84 c2 -46 0 -86 -3 -89z m635
158 c0 -5 -5 -10 -11 -10 -5 0 -7 5 -4 10 3 6 8 10 11 10 2 0 4 -4 4 -10z
m-2375 -40 c3 -5 2 -10 -4 -10 -5 0 -13 5 -16 10 -3 6 -2 10 4 10 5 0 13 -4
16 -10z m1476 -418 c-8 -12 -10 10 -11 76 0 83 -11 120 -23 75 -3 -10 -5 39
-5 109 -1 120 1 129 21 143 l22 15 3 -200 c1 -120 -2 -208 -7 -218z m-1104
358 c7 -8 13 -29 13 -47 0 -17 7 -38 15 -47 8 -8 15 -26 15 -41 0 -23 -3 -25
-22 -19 -13 4 -30 7 -38 7 -23 0 -29 16 -19 51 16 54 11 97 -10 103 -13 3 -17
11 -14 24 5 19 6 19 27 2 11 -10 26 -25 33 -33z m1022 -85 c-5 -66 -12 -124
-14 -130 -2 -5 -4 49 -4 121 -1 72 2 134 6 138 18 18 22 -20 12 -129z m142
-18 c-13 -13 -15 33 -3 84 6 32 7 30 10 -20 2 -30 -2 -59 -7 -64z m429 36 c0
-29 -5 -46 -15 -49 -8 -3 -17 -14 -20 -25 -4 -10 -13 -19 -20 -19 -10 0 -12 9
-8 38 16 97 63 139 63 55z m-1406 -191 c-1 -2 -22 10 -48 25 l-46 28 0 60 c0
33 5 67 10 75 5 8 10 11 11 5 3 -48 11 -80 21 -92 19 -24 38 12 40 76 1 31 4
4 7 -59 3 -63 5 -116 5 -118z m-265 171 c1 -19 -26 -16 -33 3 -4 9 -1 23 6 31
10 13 13 12 19 -4 4 -10 8 -24 8 -30z m1391 -54 c0 -44 -4 -68 -10 -64 -18 11
-12 135 7 135 2 0 3 -32 3 -71z m172 -11 c4 -35 1 -55 -13 -78 -18 -28 -45
-48 -54 -39 -4 4 18 111 29 142 3 9 9 25 12 35 8 25 20 -2 26 -60z m-412 -196
c5 -31 10 -76 10 -101 0 -40 -5 -49 -42 -84 -35 -33 -43 -36 -50 -22 -13 23 7
246 23 256 8 5 14 36 16 86 5 115 15 121 24 14 5 -51 13 -118 19 -149z m-140
57 c5 -79 13 -166 18 -194 10 -70 5 -92 -23 -98 -14 -2 -29 1 -34 7 -10 12 -8
164 4 344 5 66 11 108 16 100 5 -8 13 -80 19 -159z m451 131 c5 0 9 -22 9 -48
0 -26 6 -54 13 -61 7 -9 8 -15 2 -17 -34 -13 -133 -87 -145 -109 -7 -14 -20
-25 -28 -25 -12 0 -13 15 -7 93 8 101 18 135 29 99 7 -21 17 -26 43 -23 6 1
13 -8 15 -20 5 -39 28 -35 28 5 0 45 23 146 28 124 2 -10 8 -18 13 -18z m-564
-12 c-3 -7 -5 -2 -5 12 0 14 2 19 5 13 2 -7 2 -19 0 -25z m-447 -85 c-1 -38
-3 -44 -11 -30 -9 16 -4 77 7 77 2 0 4 -21 4 -47z m-93 5 c-3 -7 -5 -2 -5 12
0 14 2 19 5 13 2 -7 2 -19 0 -25z m540 -65 c-2 -16 -4 -3 -4 27 0 30 2 43 4
28 2 -16 2 -40 0 -55z m378 -73 c8 -47 -1 -80 -22 -80 -12 0 -14 8 -9 38 3 20
6 47 6 60 0 37 18 25 25 -18z m-47 -51 c-2 -36 -7 -44 -23 -44 -16 0 -21 8
-25 45 -3 25 -1 52 4 61 9 15 11 15 28 -1 15 -13 18 -29 16 -61z m-333 -67
c-5 -14 -8 -14 -15 -3 -8 14 -7 23 7 59 5 13 8 11 11 -11 2 -16 1 -36 -3 -45z
m50 -61 c-13 -12 -22 18 -17 54 l6 40 8 -44 c4 -25 5 -47 3 -50z m-40 19 c3
-5 1 -10 -4 -10 -6 0 -11 5 -11 10 0 6 2 10 4 10 3 0 8 -4 11 -10z m123 -192
c-6 -18 -28 -21 -28 -4 0 9 7 16 16 16 9 0 14 -5 12 -12z"/>
<path d="M866 2898 c-12 -47 -7 -68 21 -79 20 -8 30 -6 42 5 13 14 13 19 -7
45 -12 17 -22 35 -22 41 0 20 -28 10 -34 -12z"/>
<path d="M1418 2234 c-5 -4 -8 -16 -8 -28 0 -14 3 -17 11 -9 6 6 9 19 7 28 -1
9 -6 13 -10 9z"/>
<path d="M1720 1916 c0 -9 5 -16 10 -16 6 0 10 4 10 9 0 6 -4 13 -10 16 -5 3
-10 -1 -10 -9z"/>
<path d="M1760 1862 c0 -10 21 -32 32 -32 16 0 8 19 -12 30 -11 6 -20 7 -20 2z"/>
<path d="M1914 1732 c-7 -4 -11 -18 -10 -32 1 -25 35 -50 69 -50 24 0 17 22
-10 34 -11 5 -24 20 -29 33 -6 14 -13 20 -20 15z"/>
<path d="M2086 1472 c-15 -25 -45 -673 -33 -736 5 -31 5 -64 -2 -90 -5 -22 -8
-44 -5 -48 11 -17 22 3 28 52 11 83 28 60 24 -33 l-3 -82 32 -3 c26 -3 34 -9
38 -28 3 -13 7 -36 10 -50 4 -15 8 -25 10 -22 2 2 11 61 20 131 15 117 15 131
1 161 -9 19 -16 43 -16 55 0 11 -6 24 -13 28 -28 17 -35 80 -27 218 10 161 19
225 31 225 5 0 9 20 9 45 0 34 -4 45 -15 45 -9 0 -20 -10 -25 -22 -7 -20 -9
-18 -9 16 -1 30 -4 37 -16 32 -12 -4 -15 5 -15 54 0 54 -10 75 -24 52z m37
-507 c1 -80 -5 -153 -19 -223 -9 -44 -24 -10 -20 46 2 31 5 138 6 237 l2 180
14 -75 c8 -41 15 -115 17 -165z m29 -353 c-3 -42 -8 -62 -15 -59 -14 4 -14 86
-1 167 l9 55 5 -50 c3 -27 3 -78 2 -113z"/>
<path d="M1980 1365 c-11 -60 -15 -160 -15 -392 0 -171 4 -315 8 -319 13 -14
25 17 25 62 0 24 3 48 6 53 4 5 2 56 -2 113 -5 57 -6 186 -3 288 3 102 4 205
1 230 -5 45 -6 45 -20 -35z"/>
<path d="M2210 1226 c0 -2 7 -9 15 -16 13 -11 14 -10 9 4 -5 14 -24 23 -24 12z"/>
<path d="M1780 971 c0 -27 5 -53 10 -56 6 -4 10 13 10 44 0 27 -4 53 -10 56
-6 4 -10 -13 -10 -44z"/>
</g>
</svg>
