<svg xmlns="http://www.w3.org/2000/svg" xmlns:xlink="http://www.w3.org/1999/xlink" width="1920" zoomAndPan="magnify" viewBox="0 0 1440 449.999984" height="600" preserveAspectRatio="xMidYMid meet" version="1.0"><defs><g/></defs><rect x="-144" width="1728" fill="#ffffff" y="-44.999998" height="539.99998" fill-opacity="1"/><rect x="-144" width="1728" fill="#8c52ff" y="-44.999998" height="539.99998" fill-opacity="1"/><rect x="-144" width="1728" fill="#ffffff" y="-44.999998" height="539.99998" fill-opacity="1"/><rect x="-144" width="1728" fill="#8c52ff" y="-44.999998" height="539.99998" fill-opacity="1"/><g fill="#ffde59" fill-opacity="1"><g transform="translate(204.685558, 262.12498)"><g><path d="M 8.085938 -1.464844 C 8.085938 -0.617188 8.625 0 9.46875 0 L 44.503906 0 C 45.351562 0 45.890625 -0.617188 45.890625 -1.464844 L 45.890625 -3.15625 C 45.890625 -4.003906 46.503906 -4.621094 47.351562 -4.621094 L 49.046875 -4.621094 C 49.894531 -4.621094 50.507812 -5.234375 50.507812 -6.082031 L 50.507812 -7.699219 C 50.507812 -8.625 51.125 -9.238281 52.046875 -9.238281 L 53.589844 -9.238281 C 54.511719 -9.238281 55.128906 -9.855469 55.128906 -10.78125 L 55.128906 -28.949219 C 55.128906 -29.875 54.511719 -30.488281 53.589844 -30.488281 L 52.046875 -30.488281 C 51.125 -30.488281 50.507812 -31.105469 50.507812 -32.03125 L 50.507812 -33.648438 C 50.507812 -34.492188 49.894531 -35.109375 49.046875 -35.109375 L 47.351562 -35.109375 C 46.503906 -35.109375 45.890625 -35.726562 45.890625 -36.574219 L 45.890625 -38.265625 C 45.890625 -39.113281 45.273438 -39.730469 44.425781 -39.730469 L 31.953125 -39.730469 C 31.105469 -39.730469 30.488281 -40.34375 30.488281 -41.191406 L 30.488281 -42.886719 C 30.488281 -43.734375 29.875 -44.347656 29.027344 -44.347656 L 26.5625 -44.347656 C 25.714844 -44.347656 25.101562 -44.964844 25.101562 -45.8125 L 25.101562 -61.363281 C 25.101562 -62.210938 25.714844 -62.828125 26.5625 -62.828125 L 28.257812 -62.828125 C 29.105469 -62.828125 29.71875 -63.445312 29.71875 -64.289062 L 29.71875 -65.984375 C 29.71875 -66.832031 30.335938 -67.449219 31.183594 -67.449219 L 32.875 -67.449219 C 33.722656 -67.449219 34.339844 -66.832031 34.339844 -65.984375 L 34.339844 -57.359375 C 34.339844 -56.515625 34.957031 -55.898438 35.800781 -55.898438 L 37.496094 -55.898438 C 38.34375 -55.898438 38.960938 -55.28125 38.960938 -54.433594 L 38.960938 -52.742188 C 38.960938 -51.894531 39.574219 -51.277344 40.421875 -51.277344 L 52.125 -51.277344 C 52.972656 -51.277344 53.589844 -51.894531 53.589844 -52.742188 L 53.589844 -65.984375 C 53.589844 -66.832031 52.972656 -67.449219 52.125 -67.449219 L 46.582031 -67.449219 C 45.734375 -67.449219 45.117188 -68.0625 45.117188 -68.910156 L 45.117188 -70.605469 C 45.117188 -71.453125 44.503906 -72.066406 43.65625 -72.066406 L 15.015625 -72.066406 C 14.167969 -72.066406 13.550781 -71.453125 13.550781 -70.605469 L 13.550781 -68.910156 C 13.550781 -68.0625 12.933594 -67.449219 12.089844 -67.449219 L 10.394531 -67.449219 C 9.546875 -67.449219 8.929688 -66.832031 8.929688 -65.984375 L 8.929688 -64.367188 C 8.929688 -63.445312 8.316406 -62.828125 7.390625 -62.828125 L 5.851562 -62.828125 C 4.925781 -62.828125 4.3125 -62.210938 4.3125 -61.289062 L 4.3125 -45.890625 C 4.3125 -44.964844 4.925781 -44.347656 5.851562 -44.347656 L 7.390625 -44.347656 C 8.316406 -44.347656 8.929688 -43.734375 8.929688 -42.808594 L 8.929688 -41.191406 C 8.929688 -40.34375 9.546875 -39.730469 10.394531 -39.730469 L 12.089844 -39.730469 C 12.933594 -39.730469 13.550781 -39.113281 13.550781 -38.265625 L 13.550781 -36.574219 C 13.550781 -35.726562 14.167969 -35.109375 15.015625 -35.109375 L 28.257812 -35.109375 C 29.105469 -35.109375 29.71875 -34.492188 29.71875 -33.648438 L 29.71875 -31.953125 C 29.71875 -31.105469 30.335938 -30.488281 31.183594 -30.488281 L 32.875 -30.488281 C 33.722656 -30.488281 34.339844 -29.875 34.339844 -29.027344 L 34.339844 -10.703125 C 34.339844 -9.855469 33.722656 -9.238281 32.875 -9.238281 L 30.335938 -9.238281 C 29.488281 -9.238281 28.875 -8.625 28.875 -7.777344 L 28.875 -6.082031 C 28.875 -5.234375 28.257812 -4.621094 27.410156 -4.621094 L 25.714844 -4.621094 C 24.871094 -4.621094 24.253906 -5.234375 24.253906 -6.082031 L 24.253906 -19.324219 C 24.253906 -20.171875 23.636719 -20.789062 22.789062 -20.789062 L 4.925781 -20.789062 C 4.082031 -20.789062 3.464844 -20.171875 3.464844 -19.324219 L 3.464844 -6.082031 C 3.464844 -5.234375 4.082031 -4.621094 4.925781 -4.621094 L 6.621094 -4.621094 C 7.46875 -4.621094 8.085938 -4.003906 8.085938 -3.15625 Z M 8.085938 -1.464844 "/></g></g></g><g fill="#ffde59" fill-opacity="1"><g transform="translate(264.046596, 262.12498)"><g><path d="M 14.628906 -1.464844 C 14.628906 -0.539062 15.167969 0 16.09375 0 L 45.503906 0 C 46.429688 0 46.96875 -0.539062 46.96875 -1.464844 L 46.96875 -3.15625 C 46.96875 -4.082031 47.507812 -4.621094 48.429688 -4.621094 L 50.125 -4.621094 C 51.046875 -4.621094 51.585938 -5.160156 51.585938 -6.082031 L 51.585938 -7.777344 C 51.585938 -8.699219 52.125 -9.238281 53.050781 -9.238281 L 54.742188 -9.238281 C 55.667969 -9.238281 56.207031 -9.777344 56.207031 -10.703125 L 56.207031 -16.015625 C 56.207031 -16.9375 55.667969 -17.476562 54.742188 -17.476562 L 36.878906 -17.476562 C 35.957031 -17.476562 35.417969 -16.9375 35.417969 -16.015625 L 35.417969 -10.703125 C 35.417969 -9.777344 34.878906 -9.238281 33.953125 -9.238281 L 32.261719 -9.238281 C 31.335938 -9.238281 30.796875 -8.699219 30.796875 -7.777344 L 30.796875 -6.082031 C 30.796875 -5.160156 30.257812 -4.621094 29.335938 -4.621094 L 27.640625 -4.621094 C 26.71875 -4.621094 26.179688 -5.160156 26.179688 -6.082031 L 26.179688 -23.175781 C 26.179688 -24.097656 26.71875 -24.636719 27.640625 -24.636719 L 50.125 -24.636719 C 51.046875 -24.636719 51.585938 -25.175781 51.585938 -26.101562 L 51.585938 -27.796875 C 51.585938 -28.71875 52.125 -29.257812 53.050781 -29.257812 L 54.742188 -29.257812 C 55.667969 -29.257812 56.207031 -29.796875 56.207031 -30.722656 L 56.207031 -43.195312 C 56.207031 -44.117188 55.667969 -44.65625 54.742188 -44.65625 L 53.050781 -44.65625 C 52.125 -44.65625 51.585938 -45.195312 51.585938 -46.121094 L 51.585938 -47.8125 C 51.585938 -48.738281 51.046875 -49.277344 50.125 -49.277344 L 48.429688 -49.277344 C 47.507812 -49.277344 46.96875 -49.816406 46.96875 -50.738281 L 46.96875 -52.433594 C 46.96875 -53.359375 46.429688 -53.898438 45.503906 -53.898438 L 16.09375 -53.898438 C 15.167969 -53.898438 14.628906 -53.359375 14.628906 -52.433594 L 14.628906 -50.738281 C 14.628906 -49.816406 14.089844 -49.277344 13.167969 -49.277344 L 11.472656 -49.277344 C 10.546875 -49.277344 10.007812 -48.738281 10.007812 -47.8125 L 10.007812 -46.121094 C 10.007812 -45.195312 9.46875 -44.65625 8.546875 -44.65625 L 6.851562 -44.65625 C 5.929688 -44.65625 5.390625 -44.117188 5.390625 -43.195312 L 5.390625 -10.703125 C 5.390625 -9.777344 5.929688 -9.238281 6.851562 -9.238281 L 8.546875 -9.238281 C 9.46875 -9.238281 10.007812 -8.699219 10.007812 -7.777344 L 10.007812 -6.082031 C 10.007812 -5.160156 10.546875 -4.621094 11.472656 -4.621094 L 13.167969 -4.621094 C 14.089844 -4.621094 14.628906 -4.082031 14.628906 -3.15625 Z M 27.640625 -29.257812 C 26.71875 -29.257812 26.179688 -29.796875 26.179688 -30.722656 L 26.179688 -43.195312 C 26.179688 -44.117188 26.71875 -44.65625 27.640625 -44.65625 L 29.335938 -44.65625 C 30.257812 -44.65625 30.796875 -45.195312 30.796875 -46.121094 L 30.796875 -47.8125 C 30.796875 -48.738281 31.335938 -49.277344 32.261719 -49.277344 L 33.953125 -49.277344 C 34.878906 -49.277344 35.417969 -48.738281 35.417969 -47.8125 L 35.417969 -30.722656 C 35.417969 -29.796875 34.878906 -29.257812 33.953125 -29.257812 Z M 27.640625 -29.257812 "/></g></g></g><g fill="#ffde59" fill-opacity="1"><g transform="translate(324.100561, 262.12498)"><g><path d="M 14.628906 -1.464844 C 14.628906 -0.617188 15.246094 0 16.09375 0 L 45.503906 0 C 46.351562 0 46.96875 -0.617188 46.96875 -1.464844 L 46.96875 -3.15625 C 46.96875 -4.003906 47.582031 -4.621094 48.429688 -4.621094 L 50.125 -4.621094 C 50.96875 -4.621094 51.585938 -5.234375 51.585938 -6.082031 L 51.585938 -7.777344 C 51.585938 -8.625 52.203125 -9.238281 53.050781 -9.238281 L 54.742188 -9.238281 C 55.589844 -9.238281 56.207031 -9.855469 56.207031 -10.703125 L 56.207031 -17.015625 C 56.207031 -17.863281 55.589844 -18.480469 54.742188 -18.480469 L 36.878906 -18.480469 C 36.035156 -18.480469 35.417969 -17.863281 35.417969 -17.015625 L 35.417969 -10.703125 C 35.417969 -9.855469 34.800781 -9.238281 33.953125 -9.238281 L 32.261719 -9.238281 C 31.414062 -9.238281 30.796875 -8.625 30.796875 -7.777344 L 30.796875 -6.082031 C 30.796875 -5.234375 30.183594 -4.621094 29.335938 -4.621094 L 27.640625 -4.621094 C 26.792969 -4.621094 26.179688 -5.234375 26.179688 -6.082031 L 26.179688 -43.195312 C 26.179688 -44.042969 26.792969 -44.65625 27.640625 -44.65625 L 29.335938 -44.65625 C 30.183594 -44.65625 30.796875 -45.273438 30.796875 -46.121094 L 30.796875 -47.8125 C 30.796875 -48.660156 31.414062 -49.277344 32.261719 -49.277344 L 33.953125 -49.277344 C 34.800781 -49.277344 35.417969 -48.660156 35.417969 -47.8125 L 35.417969 -34.726562 C 35.417969 -33.800781 35.957031 -33.261719 36.878906 -33.261719 L 54.742188 -33.261719 C 55.667969 -33.261719 56.207031 -33.800781 56.207031 -34.726562 L 56.207031 -43.195312 C 56.207031 -44.042969 55.589844 -44.65625 54.742188 -44.65625 L 53.050781 -44.65625 C 52.203125 -44.65625 51.585938 -45.273438 51.585938 -46.121094 L 51.585938 -47.8125 C 51.585938 -48.660156 50.96875 -49.277344 50.125 -49.277344 L 48.429688 -49.277344 C 47.582031 -49.277344 46.96875 -49.894531 46.96875 -50.738281 L 46.96875 -52.433594 C 46.96875 -53.28125 46.351562 -53.898438 45.503906 -53.898438 L 16.09375 -53.898438 C 15.246094 -53.898438 14.628906 -53.28125 14.628906 -52.433594 L 14.628906 -50.738281 C 14.628906 -49.894531 14.011719 -49.277344 13.167969 -49.277344 L 11.472656 -49.277344 C 10.625 -49.277344 10.007812 -48.660156 10.007812 -47.8125 L 10.007812 -46.121094 C 10.007812 -45.273438 9.394531 -44.65625 8.546875 -44.65625 L 6.851562 -44.65625 C 6.003906 -44.65625 5.390625 -44.042969 5.390625 -43.195312 L 5.390625 -10.703125 C 5.390625 -9.855469 6.003906 -9.238281 6.851562 -9.238281 L 8.546875 -9.238281 C 9.394531 -9.238281 10.007812 -8.625 10.007812 -7.777344 L 10.007812 -6.082031 C 10.007812 -5.234375 10.625 -4.621094 11.472656 -4.621094 L 13.167969 -4.621094 C 14.011719 -4.621094 14.628906 -4.003906 14.628906 -3.15625 Z M 14.628906 -1.464844 "/></g></g></g><g fill="#ffde59" fill-opacity="1"><g transform="translate(384.154526, 262.12498)"><g><path d="M 14.628906 -1.386719 C 14.628906 -0.539062 15.246094 0.078125 16.09375 0.078125 L 45.503906 0.078125 C 46.351562 0.078125 46.96875 -0.539062 46.96875 -1.386719 L 46.96875 -3.078125 C 46.96875 -3.925781 47.582031 -4.542969 48.429688 -4.542969 L 50.125 -4.542969 C 50.96875 -4.542969 51.585938 -5.160156 51.585938 -6.003906 L 51.585938 -7.699219 C 51.585938 -8.546875 52.203125 -9.164062 53.050781 -9.164062 L 54.742188 -9.164062 C 55.589844 -9.164062 56.207031 -9.777344 56.207031 -10.625 L 56.207031 -52.355469 C 56.207031 -53.28125 55.667969 -53.820312 54.742188 -53.820312 L 36.878906 -53.820312 C 35.957031 -53.820312 35.417969 -53.28125 35.417969 -52.355469 L 35.417969 -10.625 C 35.417969 -9.703125 34.878906 -9.164062 33.953125 -9.164062 L 32.261719 -9.164062 C 31.335938 -9.164062 30.796875 -8.625 30.796875 -7.699219 L 30.796875 -6.003906 C 30.796875 -5.082031 30.257812 -4.542969 29.335938 -4.542969 L 27.640625 -4.542969 C 26.71875 -4.542969 26.179688 -5.082031 26.179688 -6.003906 L 26.179688 -52.355469 C 26.179688 -53.28125 25.640625 -53.820312 24.714844 -53.820312 L 6.851562 -53.820312 C 6.003906 -53.820312 5.390625 -53.203125 5.390625 -52.355469 L 5.390625 -10.625 C 5.390625 -9.777344 6.003906 -9.164062 6.851562 -9.164062 L 8.546875 -9.164062 C 9.394531 -9.164062 10.007812 -8.546875 10.007812 -7.699219 L 10.007812 -6.003906 C 10.007812 -5.160156 10.625 -4.542969 11.472656 -4.542969 L 13.167969 -4.542969 C 14.011719 -4.542969 14.628906 -3.925781 14.628906 -3.078125 Z M 14.628906 -1.386719 "/></g></g></g><g fill="#ffde59" fill-opacity="1"><g transform="translate(445.748328, 262.12498)"><g><path d="M 5.390625 -1.464844 C 5.390625 -0.617188 6.003906 0 6.851562 0 L 24.714844 0 C 25.640625 0 26.179688 -0.539062 26.179688 -1.464844 L 26.179688 -43.195312 C 26.179688 -44.117188 26.71875 -44.65625 27.640625 -44.65625 L 29.335938 -44.65625 C 30.257812 -44.65625 30.796875 -44.117188 30.796875 -43.195312 L 30.796875 -37.1875 C 30.796875 -36.339844 31.414062 -35.726562 32.261719 -35.726562 L 47.8125 -35.726562 C 48.660156 -35.726562 49.277344 -36.339844 49.277344 -37.1875 L 49.277344 -47.8125 C 49.277344 -48.660156 48.660156 -49.277344 47.8125 -49.277344 L 46.121094 -49.277344 C 45.273438 -49.277344 45.273438 -49.277344 46.121094 -49.277344 L 47.8125 -49.277344 C 48.660156 -49.277344 48.660156 -49.277344 47.8125 -49.277344 L 46.121094 -49.277344 C 45.273438 -49.277344 44.65625 -49.894531 44.65625 -50.738281 L 44.65625 -52.433594 C 44.65625 -53.28125 44.042969 -53.898438 43.195312 -53.898438 L 29.949219 -53.898438 C 29.105469 -53.898438 28.488281 -53.28125 28.488281 -52.433594 L 28.488281 -50.738281 C 28.488281 -49.894531 27.871094 -49.277344 27.023438 -49.277344 L 25.332031 -49.277344 C 24.484375 -49.277344 23.867188 -48.660156 23.867188 -47.8125 L 23.867188 -46.121094 C 23.867188 -45.273438 23.253906 -44.65625 22.40625 -44.65625 L 20.710938 -44.65625 C 19.789062 -44.65625 19.25 -45.195312 19.25 -46.121094 L 19.25 -52.433594 C 19.25 -53.359375 18.710938 -53.898438 17.785156 -53.898438 L 6.851562 -53.898438 C 6.003906 -53.898438 5.390625 -53.28125 5.390625 -52.433594 Z M 5.390625 -1.464844 "/></g></g></g><g fill="#ffde59" fill-opacity="1"><g transform="translate(496.563227, 262.12498)"><g><path d="M 5.390625 -1.464844 C 5.390625 -0.617188 6.003906 0 6.851562 0 L 24.714844 0 C 25.5625 0 26.179688 -0.617188 26.179688 -1.464844 L 26.179688 -52.433594 C 26.179688 -53.28125 25.5625 -53.898438 24.714844 -53.898438 L 6.851562 -53.898438 C 6.003906 -53.898438 5.390625 -53.28125 5.390625 -52.433594 Z M 7.699219 -59.980469 C 7.699219 -59.132812 8.316406 -58.515625 9.164062 -58.515625 L 22.40625 -58.515625 C 23.253906 -58.515625 23.867188 -59.132812 23.867188 -59.980469 C 23.867188 -60.980469 24.484375 -61.597656 25.332031 -61.597656 C 26.332031 -61.597656 26.949219 -62.210938 26.949219 -63.058594 L 26.949219 -70.140625 C 26.949219 -70.988281 26.332031 -71.605469 25.484375 -71.605469 C 24.484375 -71.605469 23.867188 -72.222656 23.867188 -73.066406 C 23.867188 -74.070312 23.253906 -74.683594 22.40625 -74.683594 L 9.164062 -74.683594 C 8.316406 -74.683594 7.699219 -74.070312 7.699219 -73.222656 C 7.699219 -72.222656 7.082031 -71.605469 6.238281 -71.605469 C 5.234375 -71.605469 4.621094 -70.988281 4.621094 -70.140625 L 4.621094 -63.058594 C 4.621094 -62.210938 5.234375 -61.597656 6.082031 -61.597656 C 7.082031 -61.597656 7.699219 -60.980469 7.699219 -60.132812 Z M 7.699219 -59.980469 "/></g></g></g><g fill="#ffde59" fill-opacity="1"><g transform="translate(528.130058, 262.12498)"><g><path d="M 5.390625 -1.464844 C 5.390625 -0.617188 6.003906 0 6.851562 0 L 24.714844 0 C 25.640625 0 26.179688 -0.539062 26.179688 -1.464844 L 26.179688 -43.195312 C 26.179688 -44.117188 26.71875 -44.65625 27.640625 -44.65625 L 29.335938 -44.65625 C 30.257812 -44.65625 30.796875 -45.195312 30.796875 -46.121094 L 30.796875 -47.8125 C 30.796875 -48.738281 31.335938 -49.277344 32.261719 -49.277344 L 33.953125 -49.277344 C 34.878906 -49.277344 35.417969 -48.738281 35.417969 -47.8125 L 35.417969 -1.464844 C 35.417969 -0.617188 36.035156 0 36.878906 0 L 54.742188 0 C 55.589844 0 56.207031 -0.617188 56.207031 -1.464844 L 56.207031 -47.8125 C 56.207031 -48.660156 55.589844 -49.277344 54.742188 -49.277344 L 53.050781 -49.277344 C 52.203125 -49.277344 52.203125 -49.277344 53.050781 -49.277344 L 54.742188 -49.277344 C 55.589844 -49.277344 55.589844 -49.277344 54.742188 -49.277344 L 53.050781 -49.277344 C 52.203125 -49.277344 51.585938 -49.894531 51.585938 -50.738281 L 51.585938 -52.433594 C 51.585938 -53.28125 50.96875 -53.898438 50.125 -53.898438 L 29.949219 -53.898438 C 29.105469 -53.898438 28.488281 -53.28125 28.488281 -52.433594 L 28.488281 -50.738281 C 28.488281 -49.894531 27.871094 -49.277344 27.023438 -49.277344 L 25.332031 -49.277344 C 24.484375 -49.277344 23.867188 -48.660156 23.867188 -47.8125 L 23.867188 -46.121094 C 23.867188 -45.273438 23.253906 -44.65625 22.40625 -44.65625 L 20.710938 -44.65625 C 19.789062 -44.65625 19.25 -45.195312 19.25 -46.121094 L 19.25 -52.433594 C 19.25 -53.359375 18.710938 -53.898438 17.785156 -53.898438 L 6.851562 -53.898438 C 6.003906 -53.898438 5.390625 -53.28125 5.390625 -52.433594 Z M 5.390625 -1.464844 "/></g></g></g><g fill="#ffde59" fill-opacity="1"><g transform="translate(589.723872, 262.12498)"><g><path d="M 27.640625 -4.621094 C 26.71875 -4.621094 26.179688 -5.160156 26.179688 -6.082031 L 26.179688 -43.039062 C 26.179688 -43.886719 26.792969 -44.503906 27.640625 -44.503906 L 29.335938 -44.503906 C 30.183594 -44.503906 30.796875 -45.117188 30.796875 -45.964844 L 30.796875 -47.660156 C 30.796875 -48.507812 31.414062 -49.121094 32.261719 -49.121094 L 33.953125 -49.121094 C 34.878906 -49.121094 35.417969 -48.582031 35.417969 -47.660156 L 35.417969 -10.703125 C 35.417969 -9.777344 34.878906 -9.238281 33.953125 -9.238281 L 32.261719 -9.238281 C 31.335938 -9.238281 30.796875 -8.699219 30.796875 -7.777344 L 30.796875 -6.082031 C 30.796875 -5.160156 30.257812 -4.621094 29.335938 -4.621094 Z M 10.007812 -1.464844 C 10.007812 -0.617188 10.625 0 11.472656 0 L 31.644531 0 C 32.492188 0 33.109375 -0.617188 33.109375 -1.464844 L 33.109375 -3.15625 C 33.109375 -4.003906 33.722656 -4.621094 34.570312 -4.621094 L 36.265625 -4.621094 C 37.113281 -4.621094 37.726562 -4.003906 37.726562 -3.15625 L 37.726562 13.167969 C 37.726562 14.089844 37.1875 14.628906 36.265625 14.628906 L 31.492188 14.628906 C 30.644531 14.628906 30.027344 14.011719 30.027344 13.167969 L 30.027344 11.011719 C 30.027344 10.085938 29.488281 9.546875 28.566406 9.546875 L 27.640625 9.546875 C 26.792969 9.546875 26.179688 8.929688 26.179688 8.085938 L 26.179688 6.851562 C 26.179688 6.003906 25.5625 5.390625 24.714844 5.390625 L 6.851562 5.390625 C 6.003906 5.390625 5.390625 6.003906 5.390625 6.851562 L 5.390625 13.167969 C 5.390625 14.011719 6.003906 14.628906 6.851562 14.628906 L 8.546875 14.628906 C 9.394531 14.628906 9.394531 14.628906 8.546875 14.628906 L 6.851562 14.628906 C 6.003906 14.628906 6.003906 14.628906 6.851562 14.628906 L 8.546875 14.628906 C 9.394531 14.628906 10.007812 15.246094 10.007812 16.09375 L 10.007812 17.785156 C 10.007812 18.632812 10.625 19.25 11.472656 19.25 L 45.503906 19.25 C 46.351562 19.25 46.96875 18.632812 46.96875 17.785156 L 46.96875 16.09375 C 46.96875 15.246094 47.582031 14.628906 48.429688 14.628906 L 50.125 14.628906 C 50.96875 14.628906 51.585938 14.011719 51.585938 13.167969 L 51.585938 11.472656 C 51.585938 10.625 52.203125 10.007812 53.050781 10.007812 L 54.742188 10.007812 C 55.589844 10.007812 56.207031 9.394531 56.207031 8.546875 L 56.207031 -47.8125 C 56.207031 -48.660156 55.589844 -49.277344 54.742188 -49.277344 L 53.125 -49.277344 C 52.28125 -49.277344 51.664062 -49.894531 51.664062 -50.738281 L 51.664062 -52.433594 C 51.664062 -53.28125 51.046875 -53.898438 50.199219 -53.898438 L 16.09375 -53.898438 C 15.246094 -53.898438 14.628906 -53.28125 14.628906 -52.433594 L 14.628906 -50.738281 C 14.628906 -49.894531 14.011719 -49.277344 13.167969 -49.277344 L 11.472656 -49.277344 C 10.625 -49.277344 10.007812 -48.660156 10.007812 -47.8125 L 10.007812 -46.121094 C 10.007812 -45.273438 9.394531 -44.65625 8.546875 -44.65625 L 6.851562 -44.65625 C 6.003906 -44.65625 5.390625 -44.042969 5.390625 -43.195312 L 5.390625 -6.082031 C 5.390625 -5.234375 6.003906 -4.621094 6.851562 -4.621094 L 8.546875 -4.621094 C 9.394531 -4.621094 9.394531 -4.621094 8.546875 -4.621094 L 6.851562 -4.621094 C 6.003906 -4.621094 6.003906 -4.621094 6.851562 -4.621094 L 8.546875 -4.621094 C 9.394531 -4.621094 10.007812 -4.003906 10.007812 -3.15625 Z M 10.007812 -1.464844 "/></g></g></g><g fill="#ffde59" fill-opacity="1"><g transform="translate(651.317663, 262.12498)"><g/></g></g><g fill="#ffde59" fill-opacity="1"><g transform="translate(670.565709, 262.12498)"><g><path d="M 13.089844 -1.464844 C 13.089844 -0.617188 13.707031 0 14.550781 0 L 40.882812 0 C 41.730469 0 42.347656 -0.617188 42.347656 -1.464844 L 42.347656 -3.15625 C 42.347656 -4.003906 42.964844 -4.621094 43.808594 -4.621094 L 47.8125 -4.621094 C 48.660156 -4.621094 49.277344 -5.234375 49.277344 -6.082031 L 49.277344 -13.9375 C 49.277344 -14.78125 48.660156 -15.398438 47.8125 -15.398438 L 35.339844 -15.398438 C 34.492188 -15.398438 33.878906 -14.78125 33.878906 -13.9375 L 33.878906 -6.082031 C 33.878906 -5.234375 33.261719 -4.621094 32.414062 -4.621094 L 30.722656 -4.621094 C 29.875 -4.621094 29.257812 -5.234375 29.257812 -6.082031 L 29.257812 -47.890625 C 29.257812 -48.738281 29.875 -49.355469 30.722656 -49.355469 L 38.496094 -49.355469 C 39.34375 -49.355469 39.960938 -49.96875 39.960938 -50.816406 L 39.960938 -52.433594 C 39.960938 -53.28125 39.34375 -53.898438 38.496094 -53.898438 L 30.722656 -53.898438 C 29.875 -53.898438 29.257812 -54.511719 29.257812 -55.359375 L 29.257812 -66.0625 C 29.257812 -66.910156 28.640625 -67.523438 27.796875 -67.523438 L 9.933594 -67.523438 C 9.085938 -67.523438 8.46875 -66.910156 8.46875 -66.0625 L 8.46875 -55.359375 C 8.46875 -54.511719 7.851562 -53.898438 7.007812 -53.898438 L 4.542969 -53.898438 C 3.695312 -53.898438 3.078125 -53.28125 3.078125 -52.433594 L 3.078125 -50.816406 C 3.078125 -49.96875 3.695312 -49.355469 4.542969 -49.355469 L 7.007812 -49.355469 C 7.851562 -49.355469 8.46875 -48.738281 8.46875 -47.890625 L 8.46875 -6.082031 C 8.46875 -5.234375 9.085938 -4.621094 9.933594 -4.621094 L 11.625 -4.621094 C 12.472656 -4.621094 13.089844 -4.003906 13.089844 -3.15625 Z M 13.089844 -1.464844 "/></g></g></g><g fill="#ffde59" fill-opacity="1"><g transform="translate(720.610673, 262.12498)"><g><path d="M 5.390625 -1.464844 C 5.390625 -0.617188 6.003906 0 6.851562 0 L 24.714844 0 C 25.640625 0 26.179688 -0.539062 26.179688 -1.464844 L 26.179688 -43.195312 C 26.179688 -44.117188 26.71875 -44.65625 27.640625 -44.65625 L 29.335938 -44.65625 C 30.257812 -44.65625 30.796875 -45.195312 30.796875 -46.121094 L 30.796875 -47.8125 C 30.796875 -48.738281 31.335938 -49.277344 32.261719 -49.277344 L 33.953125 -49.277344 C 34.878906 -49.277344 35.417969 -48.738281 35.417969 -47.8125 L 35.417969 -1.464844 C 35.417969 -0.617188 36.035156 0 36.878906 0 L 54.742188 0 C 55.589844 0 56.207031 -0.617188 56.207031 -1.464844 L 56.207031 -47.8125 C 56.207031 -48.660156 55.589844 -49.277344 54.742188 -49.277344 L 53.050781 -49.277344 C 52.203125 -49.277344 52.203125 -49.277344 53.050781 -49.277344 L 54.742188 -49.277344 C 55.589844 -49.277344 55.589844 -49.277344 54.742188 -49.277344 L 53.050781 -49.277344 C 52.203125 -49.277344 51.585938 -49.894531 51.585938 -50.738281 L 51.585938 -52.433594 C 51.585938 -53.28125 50.96875 -53.898438 50.125 -53.898438 L 29.949219 -53.898438 C 29.105469 -53.898438 28.488281 -53.28125 28.488281 -52.433594 L 28.488281 -50.433594 C 28.488281 -49.738281 28.027344 -49.277344 27.332031 -49.277344 C 26.640625 -49.277344 26.179688 -49.738281 26.179688 -50.433594 L 26.179688 -72.914062 C 26.179688 -73.839844 25.640625 -74.378906 24.714844 -74.378906 L 6.851562 -74.378906 C 6.003906 -74.378906 5.390625 -73.761719 5.390625 -72.914062 Z M 5.390625 -1.464844 "/></g></g></g><g fill="#ffde59" fill-opacity="1"><g transform="translate(782.204464, 262.12498)"><g><path d="M 14.628906 -1.464844 C 14.628906 -0.539062 15.167969 0 16.09375 0 L 45.503906 0 C 46.429688 0 46.96875 -0.539062 46.96875 -1.464844 L 46.96875 -3.15625 C 46.96875 -4.082031 47.507812 -4.621094 48.429688 -4.621094 L 50.125 -4.621094 C 51.046875 -4.621094 51.585938 -5.160156 51.585938 -6.082031 L 51.585938 -7.777344 C 51.585938 -8.699219 52.125 -9.238281 53.050781 -9.238281 L 54.742188 -9.238281 C 55.667969 -9.238281 56.207031 -9.777344 56.207031 -10.703125 L 56.207031 -16.015625 C 56.207031 -16.9375 55.667969 -17.476562 54.742188 -17.476562 L 36.878906 -17.476562 C 35.957031 -17.476562 35.417969 -16.9375 35.417969 -16.015625 L 35.417969 -10.703125 C 35.417969 -9.777344 34.878906 -9.238281 33.953125 -9.238281 L 32.261719 -9.238281 C 31.335938 -9.238281 30.796875 -8.699219 30.796875 -7.777344 L 30.796875 -6.082031 C 30.796875 -5.160156 30.257812 -4.621094 29.335938 -4.621094 L 27.640625 -4.621094 C 26.71875 -4.621094 26.179688 -5.160156 26.179688 -6.082031 L 26.179688 -23.175781 C 26.179688 -24.097656 26.71875 -24.636719 27.640625 -24.636719 L 50.125 -24.636719 C 51.046875 -24.636719 51.585938 -25.175781 51.585938 -26.101562 L 51.585938 -27.796875 C 51.585938 -28.71875 52.125 -29.257812 53.050781 -29.257812 L 54.742188 -29.257812 C 55.667969 -29.257812 56.207031 -29.796875 56.207031 -30.722656 L 56.207031 -43.195312 C 56.207031 -44.117188 55.667969 -44.65625 54.742188 -44.65625 L 53.050781 -44.65625 C 52.125 -44.65625 51.585938 -45.195312 51.585938 -46.121094 L 51.585938 -47.8125 C 51.585938 -48.738281 51.046875 -49.277344 50.125 -49.277344 L 48.429688 -49.277344 C 47.507812 -49.277344 46.96875 -49.816406 46.96875 -50.738281 L 46.96875 -52.433594 C 46.96875 -53.359375 46.429688 -53.898438 45.503906 -53.898438 L 16.09375 -53.898438 C 15.167969 -53.898438 14.628906 -53.359375 14.628906 -52.433594 L 14.628906 -50.738281 C 14.628906 -49.816406 14.089844 -49.277344 13.167969 -49.277344 L 11.472656 -49.277344 C 10.546875 -49.277344 10.007812 -48.738281 10.007812 -47.8125 L 10.007812 -46.121094 C 10.007812 -45.195312 9.46875 -44.65625 8.546875 -44.65625 L 6.851562 -44.65625 C 5.929688 -44.65625 5.390625 -44.117188 5.390625 -43.195312 L 5.390625 -10.703125 C 5.390625 -9.777344 5.929688 -9.238281 6.851562 -9.238281 L 8.546875 -9.238281 C 9.46875 -9.238281 10.007812 -8.699219 10.007812 -7.777344 L 10.007812 -6.082031 C 10.007812 -5.160156 10.546875 -4.621094 11.472656 -4.621094 L 13.167969 -4.621094 C 14.089844 -4.621094 14.628906 -4.082031 14.628906 -3.15625 Z M 27.640625 -29.257812 C 26.71875 -29.257812 26.179688 -29.796875 26.179688 -30.722656 L 26.179688 -43.195312 C 26.179688 -44.117188 26.71875 -44.65625 27.640625 -44.65625 L 29.335938 -44.65625 C 30.257812 -44.65625 30.796875 -45.195312 30.796875 -46.121094 L 30.796875 -47.8125 C 30.796875 -48.738281 31.335938 -49.277344 32.261719 -49.277344 L 33.953125 -49.277344 C 34.878906 -49.277344 35.417969 -48.738281 35.417969 -47.8125 L 35.417969 -30.722656 C 35.417969 -29.796875 34.878906 -29.257812 33.953125 -29.257812 Z M 27.640625 -29.257812 "/></g></g></g><g fill="#ffde59" fill-opacity="1"><g transform="translate(842.258429, 262.12498)"><g/></g></g><g fill="#ffde59" fill-opacity="1"><g transform="translate(861.506521, 262.12498)"><g><path d="M 10.007812 -1.464844 C 10.007812 -0.539062 10.546875 0 11.472656 0 L 34.492188 0 C 35.417969 0 35.957031 -0.539062 35.957031 -1.464844 L 35.957031 -3.15625 C 35.957031 -4.082031 36.496094 -4.621094 37.417969 -4.621094 L 39.113281 -4.621094 C 40.039062 -4.621094 40.578125 -5.160156 40.578125 -6.082031 L 40.578125 -7.777344 C 40.578125 -8.699219 41.117188 -9.238281 42.039062 -9.238281 L 43.734375 -9.238281 C 44.65625 -9.238281 45.195312 -8.699219 45.195312 -7.777344 L 45.195312 -6.082031 C 45.195312 -5.160156 45.734375 -4.621094 46.660156 -4.621094 L 48.351562 -4.621094 C 49.277344 -4.621094 49.816406 -4.082031 49.816406 -3.15625 L 49.816406 -1.464844 C 49.816406 -0.539062 50.355469 0 51.277344 0 L 65.984375 0 C 66.910156 0 67.449219 -0.539062 67.449219 -1.464844 L 67.449219 -3.15625 C 67.449219 -4.082031 67.988281 -4.621094 68.910156 -4.621094 L 69.679688 -4.621094 C 70.605469 -4.621094 71.144531 -5.160156 71.144531 -6.082031 L 71.144531 -7.777344 C 71.144531 -8.699219 71.683594 -9.238281 72.605469 -9.238281 L 74.300781 -9.238281 C 75.222656 -9.238281 75.761719 -9.777344 75.761719 -10.703125 L 75.761719 -12.394531 C 75.761719 -13.320312 76.300781 -13.859375 77.226562 -13.859375 L 81.230469 -13.859375 C 82.152344 -13.859375 82.691406 -14.398438 82.691406 -15.320312 L 82.691406 -17.015625 C 82.691406 -17.941406 83.230469 -18.480469 84.15625 -18.480469 L 85.847656 -18.480469 C 86.773438 -18.480469 87.3125 -19.019531 87.3125 -19.941406 L 87.3125 -70.605469 C 87.3125 -71.527344 86.773438 -72.066406 85.847656 -72.066406 L 67.988281 -72.066406 C 67.0625 -72.066406 66.523438 -71.527344 66.523438 -70.605469 L 66.523438 -10.703125 C 66.523438 -9.777344 65.984375 -9.238281 65.0625 -9.238281 L 63.367188 -9.238281 C 62.441406 -9.238281 61.902344 -8.699219 61.902344 -7.777344 L 61.902344 -6.082031 C 61.902344 -5.160156 61.363281 -4.621094 60.441406 -4.621094 L 58.207031 -4.621094 C 57.285156 -4.621094 56.746094 -5.160156 56.746094 -6.082031 L 56.746094 -70.605469 C 56.746094 -71.527344 56.207031 -72.066406 55.28125 -72.066406 L 37.417969 -72.066406 C 36.496094 -72.066406 35.957031 -71.527344 35.957031 -70.605469 L 35.957031 -10.703125 C 35.957031 -9.777344 35.417969 -9.238281 34.492188 -9.238281 L 32.800781 -9.238281 C 31.875 -9.238281 31.335938 -8.699219 31.335938 -7.777344 L 31.335938 -6.082031 C 31.335938 -5.160156 30.796875 -4.621094 29.875 -4.621094 L 27.640625 -4.621094 C 26.71875 -4.621094 26.179688 -5.160156 26.179688 -6.082031 L 26.179688 -70.605469 C 26.179688 -71.527344 25.640625 -72.066406 24.714844 -72.066406 L 6.851562 -72.066406 C 5.929688 -72.066406 5.390625 -71.527344 5.390625 -70.605469 L 5.390625 -6.082031 C 5.390625 -5.160156 5.929688 -4.621094 6.851562 -4.621094 L 8.546875 -4.621094 C 9.46875 -4.621094 10.007812 -4.082031 10.007812 -3.15625 Z M 10.007812 -1.464844 "/></g></g></g><g fill="#ffde59" fill-opacity="1"><g transform="translate(953.435301, 262.12498)"><g><path d="M 14.628906 -1.464844 C 14.628906 -0.539062 15.167969 0 16.09375 0 L 45.503906 0 C 46.429688 0 46.96875 -0.539062 46.96875 -1.464844 L 46.96875 -3.15625 C 46.96875 -4.082031 47.507812 -4.621094 48.429688 -4.621094 L 50.125 -4.621094 C 51.046875 -4.621094 51.585938 -5.160156 51.585938 -6.082031 L 51.585938 -7.777344 C 51.585938 -8.699219 52.125 -9.238281 53.050781 -9.238281 L 54.742188 -9.238281 C 55.667969 -9.238281 56.207031 -9.777344 56.207031 -10.703125 L 56.207031 -16.015625 C 56.207031 -16.9375 55.667969 -17.476562 54.742188 -17.476562 L 36.878906 -17.476562 C 35.957031 -17.476562 35.417969 -16.9375 35.417969 -16.015625 L 35.417969 -10.703125 C 35.417969 -9.777344 34.878906 -9.238281 33.953125 -9.238281 L 32.261719 -9.238281 C 31.335938 -9.238281 30.796875 -8.699219 30.796875 -7.777344 L 30.796875 -6.082031 C 30.796875 -5.160156 30.257812 -4.621094 29.335938 -4.621094 L 27.640625 -4.621094 C 26.71875 -4.621094 26.179688 -5.160156 26.179688 -6.082031 L 26.179688 -23.175781 C 26.179688 -24.097656 26.71875 -24.636719 27.640625 -24.636719 L 50.125 -24.636719 C 51.046875 -24.636719 51.585938 -25.175781 51.585938 -26.101562 L 51.585938 -27.796875 C 51.585938 -28.71875 52.125 -29.257812 53.050781 -29.257812 L 54.742188 -29.257812 C 55.667969 -29.257812 56.207031 -29.796875 56.207031 -30.722656 L 56.207031 -43.195312 C 56.207031 -44.117188 55.667969 -44.65625 54.742188 -44.65625 L 53.050781 -44.65625 C 52.125 -44.65625 51.585938 -45.195312 51.585938 -46.121094 L 51.585938 -47.8125 C 51.585938 -48.738281 51.046875 -49.277344 50.125 -49.277344 L 48.429688 -49.277344 C 47.507812 -49.277344 46.96875 -49.816406 46.96875 -50.738281 L 46.96875 -52.433594 C 46.96875 -53.359375 46.429688 -53.898438 45.503906 -53.898438 L 16.09375 -53.898438 C 15.167969 -53.898438 14.628906 -53.359375 14.628906 -52.433594 L 14.628906 -50.738281 C 14.628906 -49.816406 14.089844 -49.277344 13.167969 -49.277344 L 11.472656 -49.277344 C 10.546875 -49.277344 10.007812 -48.738281 10.007812 -47.8125 L 10.007812 -46.121094 C 10.007812 -45.195312 9.46875 -44.65625 8.546875 -44.65625 L 6.851562 -44.65625 C 5.929688 -44.65625 5.390625 -44.117188 5.390625 -43.195312 L 5.390625 -10.703125 C 5.390625 -9.777344 5.929688 -9.238281 6.851562 -9.238281 L 8.546875 -9.238281 C 9.46875 -9.238281 10.007812 -8.699219 10.007812 -7.777344 L 10.007812 -6.082031 C 10.007812 -5.160156 10.546875 -4.621094 11.472656 -4.621094 L 13.167969 -4.621094 C 14.089844 -4.621094 14.628906 -4.082031 14.628906 -3.15625 Z M 27.640625 -29.257812 C 26.71875 -29.257812 26.179688 -29.796875 26.179688 -30.722656 L 26.179688 -43.195312 C 26.179688 -44.117188 26.71875 -44.65625 27.640625 -44.65625 L 29.335938 -44.65625 C 30.257812 -44.65625 30.796875 -45.195312 30.796875 -46.121094 L 30.796875 -47.8125 C 30.796875 -48.738281 31.335938 -49.277344 32.261719 -49.277344 L 33.953125 -49.277344 C 34.878906 -49.277344 35.417969 -48.738281 35.417969 -47.8125 L 35.417969 -30.722656 C 35.417969 -29.796875 34.878906 -29.257812 33.953125 -29.257812 Z M 27.640625 -29.257812 "/></g></g></g><g fill="#ffde59" fill-opacity="1"><g transform="translate(1013.489266, 262.12498)"><g><path d="M 29.335938 -44.65625 C 30.257812 -44.65625 30.796875 -45.195312 30.796875 -46.121094 L 30.796875 -47.8125 C 30.796875 -48.738281 31.335938 -49.277344 32.261719 -49.277344 L 33.953125 -49.277344 C 34.878906 -49.277344 35.417969 -48.738281 35.417969 -47.8125 L 35.417969 -10.703125 C 35.417969 -9.777344 34.878906 -9.238281 33.953125 -9.238281 L 32.261719 -9.238281 C 31.335938 -9.238281 30.796875 -8.699219 30.796875 -7.777344 L 30.796875 -6.082031 C 30.796875 -5.160156 30.257812 -4.621094 29.335938 -4.621094 L 27.640625 -4.621094 C 26.71875 -4.621094 26.179688 -5.160156 26.179688 -6.082031 L 26.179688 -43.195312 C 26.179688 -44.117188 26.71875 -44.65625 27.640625 -44.65625 Z M 5.390625 -1.464844 C 5.390625 -0.617188 6.003906 0 6.851562 0 L 50.125 0 C 50.96875 0 51.585938 -0.617188 51.585938 -1.464844 L 51.585938 -3.234375 C 51.585938 -4.082031 52.203125 -4.695312 53.050781 -4.695312 L 54.742188 -4.695312 C 55.589844 -4.695312 56.207031 -5.3125 56.207031 -6.160156 L 56.207031 -43.195312 C 56.207031 -44.042969 55.589844 -44.65625 54.742188 -44.65625 L 53.050781 -44.65625 C 52.203125 -44.65625 51.585938 -45.273438 51.585938 -46.121094 L 51.585938 -47.8125 C 51.585938 -48.660156 50.96875 -49.277344 50.125 -49.277344 L 48.429688 -49.277344 C 47.582031 -49.277344 46.96875 -49.894531 46.96875 -50.738281 L 46.96875 -52.433594 C 46.96875 -53.28125 46.351562 -53.898438 45.503906 -53.898438 L 27.640625 -53.898438 C 26.792969 -53.898438 26.179688 -54.511719 26.179688 -55.359375 L 26.179688 -71.683594 C 26.179688 -72.527344 25.5625 -73.144531 24.714844 -73.144531 L 6.851562 -73.144531 C 6.003906 -73.144531 5.390625 -72.527344 5.390625 -71.683594 Z M 5.390625 -1.464844 "/></g></g></g><g fill="#ffde59" fill-opacity="1"><g transform="translate(1075.083103, 262.12498)"><g><path d="M 10.78125 -1.464844 C 10.78125 -0.539062 11.316406 0 12.242188 0 L 47.199219 0 C 48.121094 0 48.660156 -0.539062 48.660156 -1.464844 L 48.660156 -3.15625 C 48.660156 -4.082031 49.199219 -4.621094 50.125 -4.621094 L 51.816406 -4.621094 C 52.742188 -4.621094 53.28125 -5.160156 53.28125 -6.082031 L 53.28125 -7.777344 C 53.28125 -8.699219 53.820312 -9.238281 54.742188 -9.238281 L 55.898438 -9.238281 C 56.824219 -9.238281 57.359375 -9.777344 57.359375 -10.703125 L 57.359375 -30.105469 C 57.359375 -31.027344 56.824219 -31.566406 55.898438 -31.566406 L 54.203125 -31.566406 C 53.28125 -31.566406 52.742188 -32.105469 52.742188 -33.03125 L 52.742188 -34.726562 C 52.742188 -35.648438 52.203125 -36.1875 51.277344 -36.1875 L 49.585938 -36.1875 C 48.738281 -36.1875 48.121094 -36.804688 48.121094 -37.652344 L 48.121094 -39.34375 C 48.121094 -40.191406 48.738281 -40.808594 49.585938 -40.808594 L 51.277344 -40.808594 C 52.125 -40.808594 52.742188 -41.421875 52.742188 -42.269531 L 52.742188 -43.964844 C 52.742188 -44.8125 53.359375 -45.425781 54.203125 -45.425781 L 55.898438 -45.425781 C 56.746094 -45.425781 57.359375 -46.042969 57.359375 -46.890625 L 57.359375 -65.984375 C 57.359375 -66.832031 56.746094 -67.449219 55.898438 -67.449219 L 54.203125 -67.449219 C 53.28125 -67.449219 52.742188 -67.988281 52.742188 -68.910156 L 52.742188 -70.605469 C 52.742188 -71.453125 52.125 -72.066406 51.277344 -72.066406 L 7.082031 -72.066406 C 6.160156 -72.066406 5.621094 -71.527344 5.621094 -70.605469 L 5.699219 -52.742188 C 5.699219 -51.816406 6.238281 -51.277344 7.160156 -51.277344 L 25.023438 -51.277344 C 25.949219 -51.277344 26.484375 -51.816406 26.484375 -52.742188 L 26.484375 -65.984375 C 26.484375 -66.910156 27.023438 -67.449219 27.949219 -67.449219 L 29.644531 -67.449219 C 30.566406 -67.449219 31.105469 -66.910156 31.105469 -65.984375 L 31.105469 -64.289062 C 31.105469 -63.367188 31.644531 -62.828125 32.570312 -62.828125 L 35.109375 -62.828125 C 36.035156 -62.828125 36.574219 -62.289062 36.574219 -61.363281 L 36.574219 -44.582031 C 36.574219 -43.734375 35.957031 -43.117188 35.109375 -43.117188 L 14.9375 -43.117188 C 14.089844 -43.117188 13.472656 -42.5 13.472656 -41.652344 L 13.472656 -35.339844 C 13.472656 -34.417969 14.011719 -33.878906 14.9375 -33.878906 L 35.109375 -33.878906 C 35.957031 -33.878906 36.574219 -33.261719 36.574219 -32.414062 L 36.574219 -10.703125 C 36.574219 -9.777344 36.035156 -9.238281 35.109375 -9.238281 L 33.414062 -9.238281 C 32.492188 -9.238281 31.953125 -8.699219 31.953125 -7.777344 L 31.953125 -6.082031 C 31.953125 -5.160156 31.414062 -4.621094 30.488281 -4.621094 L 28.796875 -4.621094 C 27.871094 -4.621094 27.332031 -5.160156 27.332031 -6.082031 L 27.332031 -14.707031 C 27.332031 -15.628906 26.792969 -16.167969 25.871094 -16.167969 L 24.175781 -16.167969 C 23.253906 -16.167969 22.714844 -16.707031 22.714844 -17.632812 L 22.714844 -19.324219 C 22.714844 -20.25 22.175781 -20.789062 21.25 -20.789062 L 6.46875 -20.789062 C 5.542969 -20.789062 5.003906 -20.25 5.003906 -19.324219 L 5.003906 -6.082031 C 5.003906 -5.160156 5.542969 -4.621094 6.46875 -4.621094 L 9.316406 -4.621094 C 10.242188 -4.621094 10.78125 -4.082031 10.78125 -3.15625 Z M 10.78125 -1.464844 "/></g></g></g><g fill="#ffde59" fill-opacity="1"><g transform="translate(1137.446806, 262.12498)"><g><path d="M 8.46875 -1.464844 C 8.46875 -0.539062 9.007812 0 9.933594 0 L 21.636719 0 C 22.558594 0 23.097656 -0.539062 23.097656 -1.464844 C 23.097656 -2.464844 23.636719 -3.078125 24.5625 -3.078125 C 25.5625 -3.078125 26.179688 -3.617188 26.179688 -4.542969 L 26.179688 -16.324219 C 26.179688 -17.246094 25.640625 -17.707031 24.714844 -17.707031 C 23.714844 -17.707031 23.097656 -18.324219 23.097656 -19.25 C 23.097656 -20.25 22.558594 -20.789062 21.636719 -20.789062 L 9.933594 -20.789062 C 9.007812 -20.789062 8.46875 -20.328125 8.46875 -19.402344 C 8.46875 -18.402344 7.929688 -17.707031 7.007812 -17.707031 C 6.003906 -17.707031 5.390625 -17.246094 5.390625 -16.324219 L 5.390625 -4.542969 C 5.390625 -3.617188 5.929688 -3.078125 6.851562 -3.078125 C 7.851562 -3.078125 8.46875 -2.539062 8.46875 -1.617188 Z M 8.46875 -1.464844 "/></g></g></g><g fill="#ffde59" fill-opacity="1"><g transform="translate(1169.013637, 262.12498)"><g><path d="M 14.628906 -1.464844 C 14.628906 -0.617188 15.246094 0 16.09375 0 L 50.125 0 C 50.96875 0 51.585938 -0.617188 51.585938 -1.464844 L 51.585938 -3.15625 C 51.585938 -4.003906 52.203125 -4.621094 53.050781 -4.621094 L 54.742188 -4.621094 C 55.589844 -4.621094 56.207031 -5.234375 56.207031 -6.082031 L 56.207031 -7.777344 C 56.207031 -8.625 56.824219 -9.238281 57.667969 -9.238281 L 59.363281 -9.238281 C 60.210938 -9.238281 60.824219 -9.855469 60.824219 -10.703125 L 60.824219 -61.363281 C 60.824219 -62.210938 60.210938 -62.828125 59.363281 -62.828125 L 57.667969 -62.828125 C 56.824219 -62.828125 56.207031 -63.445312 56.207031 -64.289062 L 56.207031 -65.984375 C 56.207031 -66.832031 55.589844 -67.449219 54.742188 -67.449219 L 53.050781 -67.449219 C 52.203125 -67.449219 51.585938 -68.0625 51.585938 -68.910156 L 51.585938 -70.605469 C 51.585938 -71.453125 50.96875 -72.066406 50.125 -72.066406 L 16.09375 -72.066406 C 15.246094 -72.066406 14.628906 -71.453125 14.628906 -70.605469 L 14.628906 -68.910156 C 14.628906 -68.0625 14.011719 -67.449219 13.167969 -67.449219 L 11.472656 -67.449219 C 10.625 -67.449219 10.007812 -66.832031 10.007812 -65.984375 L 10.007812 -64.289062 C 10.007812 -63.445312 9.394531 -62.828125 8.546875 -62.828125 L 6.851562 -62.828125 C 6.003906 -62.828125 5.390625 -62.210938 5.390625 -61.363281 L 5.390625 -10.703125 C 5.390625 -9.855469 6.003906 -9.238281 6.851562 -9.238281 L 8.546875 -9.238281 C 9.394531 -9.238281 10.007812 -8.625 10.007812 -7.777344 L 10.007812 -6.082031 C 10.007812 -5.234375 10.625 -4.621094 11.472656 -4.621094 L 13.167969 -4.621094 C 14.011719 -4.621094 14.628906 -4.003906 14.628906 -3.15625 Z M 30.796875 -7.699219 C 30.796875 -8.546875 30.183594 -9.164062 29.335938 -9.164062 L 27.640625 -9.164062 C 26.792969 -9.164062 26.179688 -9.777344 26.179688 -10.625 L 26.179688 -61.363281 C 26.179688 -62.210938 26.792969 -62.828125 27.640625 -62.828125 L 29.335938 -62.828125 C 30.183594 -62.828125 30.796875 -63.445312 30.796875 -64.289062 L 30.796875 -65.984375 C 30.796875 -66.910156 31.335938 -67.449219 32.261719 -67.449219 L 33.953125 -67.449219 C 34.800781 -67.449219 35.417969 -66.832031 35.417969 -65.984375 L 35.417969 -64.289062 C 35.417969 -63.367188 35.957031 -62.828125 36.878906 -62.828125 L 38.574219 -62.828125 C 39.421875 -62.828125 40.039062 -62.210938 40.039062 -61.363281 L 40.039062 -10.625 C 40.039062 -9.703125 39.5 -9.164062 38.574219 -9.164062 L 36.878906 -9.164062 C 36.035156 -9.164062 35.417969 -8.546875 35.417969 -7.699219 L 35.417969 -6.003906 C 35.417969 -5.082031 34.878906 -4.542969 33.953125 -4.542969 L 32.261719 -4.542969 C 31.414062 -4.542969 30.796875 -5.160156 30.796875 -6.003906 Z M 30.796875 -7.699219 "/></g></g></g></svg>